<svg width="1408" height="691" fill="none" xmlns="http://www.w3.org/2000/svg"><path opacity=".1" d="M183.36 582.24l-.946-.324-.004.012.95.312zM166.8 609.6l-.691-.723-.008.008.699.715zm-26.64 15.6l.29.957.013-.004-.303-.953zM16.8 630h-1v1h1v-1zm0-168v-1h-1v1h1zm97.68.96l-.083.997h.002l.081-.997zm22.56 3.84l-.258.966.258-.966zm20.16 8.16l-.491.871.009.005.482-.876zm16.56 13.92l-.779.627.005.007.006.006.768-.64zm11.28 21.36l-.952.305.002.006.95-.311zM40.32 608.88h-1v1h1v-1zm90.72-4.56l-.321-.947.321.947zm20.64-12.96l-.758-.653-.001.002.759.651zm9.84-20.64l-.978-.211-.001.008-.002.007.981.196zm-1.2-54.48l.947-.322-.947.322zm-12.48-18.48l-.663.749.011.01.012.009.64-.768zm-22.08-10.8l-.259.966.01.003.01.002.239-.971zm-32.88-3.84l.012-1h-.012v1zm-52.56 0v-1h-1v1h1zm147.8 58.32c0 15.926-1.912 29.41-5.706 40.476l1.892.648c3.886-11.334 5.814-25.05 5.814-41.124h-2zm-5.71 40.488c-3.637 11.069-9.077 20.04-16.301 26.949l1.382 1.446c7.496-7.171 13.096-16.44 16.819-27.771l-1.9-.624zm-16.309 26.957c-7.078 6.92-15.818 12.045-26.244 15.362l.606 1.906c10.694-3.403 19.714-8.678 27.036-15.838l-1.398-1.43zm-26.231 15.358c-10.447 3.166-22.426 4.757-35.95 4.757v2c13.676 0 25.857-1.609 36.53-4.843l-.58-1.914zM103.92 629H16.8v2h87.12v-2zm-86.12 1V462h-2v168h2zm-1-167h74.88v-2H16.8v2zm74.88 0c7.492 0 15.064.319 22.717.957l.166-1.994A275.57 275.57 0 0091.68 461v2zm22.719.957c7.783.635 15.244 1.905 22.383 3.809l.516-1.932c-7.261-1.936-14.84-3.226-22.737-3.871l-.162 1.994zm22.383 3.809c7.122 1.899 13.763 4.588 19.927 8.065l.982-1.742c-6.316-3.563-13.115-6.314-20.393-8.255l-.516 1.932zm19.936 8.07c6.284 3.457 11.704 8.012 16.263 13.671l1.558-1.254c-4.721-5.861-10.341-10.586-16.857-14.169l-.964 1.752zm16.274 13.684c4.704 5.645 8.408 12.645 11.096 21.025l1.904-.61c-2.752-8.58-6.568-15.82-11.464-21.695l-1.536 1.28zm11.098 21.031c2.678 8.192 4.03 18.082 4.03 29.689h2c0-11.753-1.368-21.863-4.129-30.311l-1.901.622zm4.03 29.689v1.2h2v-1.2h-2zm-147.8 69.64h55.44v-2H40.32v2zm55.44 0c14.617 0 26.498-1.524 35.601-4.613l-.642-1.894c-8.817 2.991-20.456 4.507-34.959 4.507v2zm35.601-4.613c9.083-3.082 16.133-7.487 21.078-13.256l-1.518-1.302c-4.655 5.431-11.365 9.666-20.202 12.664l.642 1.894zm21.077-13.254c5.08-5.9 8.431-12.941 10.063-21.097l-1.962-.392c-1.568 7.844-4.777 14.563-9.617 20.183l1.516 1.306zm10.06-21.082c1.777-8.242 2.662-17.434 2.662-27.571h-2c0 10.023-.875 19.071-2.618 27.149l1.956.422zm2.662-27.571c0-10.636-1.289-19.791-3.893-27.442l-1.894.644c2.516 7.389 3.787 16.314 3.787 26.798h2zm-3.893-27.442c-2.616-7.683-6.877-14.001-12.787-18.926l-1.28 1.536c5.61 4.675 9.669 10.677 12.173 18.034l1.894-.644zm-12.764-18.907c-5.748-5.091-13.266-8.753-22.504-11.022l-.478 1.942c9.002 2.211 16.204 5.749 21.656 10.578l1.326-1.498zm-22.484-11.017c-9.065-2.428-20.114-3.713-33.127-3.874l-.024 2c12.907.159 23.778 1.434 32.633 3.806l.518-1.932zM92.88 482.12H40.32v2h52.56v-2zm-53.56 1v125.76h2V483.12h-2zm317.646 83.04l1 .014v-.014h-1zm-6 30.72l-.916-.4-.004.008.92.392zm-15.84 21.6l-.642-.767-.009.008.651.759zm-24.24 12.96l-.292-.956-.004.001.296.955zm-62.16 0l.297-.955-.008-.002-.007-.003-.282.96zm-24-12.72l-.66.751.009.008.651-.759zm-15.36-21.84l.923-.386-.923.386zm-5.76-30.96h-1v.014l1-.014zm5.52-30.96l.923.386.002-.006-.925-.38zm15.36-22.08l.66.751.001-.001-.661-.75zm24-13.2l.297.955.01-.003-.307-.952zm62.64-.24l-.292.956.292-.956zm24.24 13.2l-.661.75.01.009.009.008.642-.767zm15.84 22.08l-.925.38.003.007.003.007.919-.394zm-124.8 30.72l-1-.018v.037l1-.019zm14.16 38.16l-.667.745.007.006.007.006.653-.757zm78.96 0l-.646-.763.646.763zm14.64-38.16l1 .018v-.036l-1 .018zm-14.88-38.16l-.647.762.007.006.64-.768zm-78.96 0l.666.746.001-.001-.667-.745zm115.64 38.866c-.158 11.575-2.14 21.679-5.916 30.334l1.833.8c3.903-8.945 5.922-19.321 6.083-31.106l-2-.028zm-5.92 30.342c-3.621 8.502-8.808 15.571-15.562 21.225l1.284 1.534c7.007-5.866 12.379-13.197 16.118-21.975l-1.84-.784zm-15.571 21.233c-6.603 5.66-14.557 9.918-23.881 12.763l.584 1.912c9.557-2.915 17.763-7.297 24.599-13.157l-1.302-1.518zm-23.885 12.764c-9.17 2.846-19.388 4.275-30.664 4.275v2c11.444 0 21.866-1.451 31.257-4.365l-.593-1.91zm-30.664 4.275c-11.437 0-21.735-1.43-30.903-4.275l-.593 1.91c9.392 2.915 19.894 4.365 31.496 4.365v-2zm-30.918-4.28c-9.157-2.684-17.028-6.86-23.631-12.519l-1.302 1.518c6.838 5.861 14.967 10.165 24.37 12.921l.563-1.92zm-23.622-12.511c-6.435-5.651-11.47-12.802-15.097-21.475l-1.845.772c3.733 8.927 8.938 16.336 15.622 22.205l1.32-1.502zm-15.097-21.475c-3.62-8.657-5.524-18.846-5.683-30.588l-2 .028c.162 11.938 2.098 22.389 5.838 31.332l1.845-.772zm-5.683-30.574c0-11.738 1.825-21.922 5.443-30.574l-1.845-.772c-3.742 8.948-5.598 19.404-5.598 31.346h2zm5.445-30.58c3.628-8.833 8.663-16.061 15.095-21.709l-1.32-1.502c-6.688 5.872-11.893 13.364-15.625 22.451l1.85.76zm15.096-21.71c6.606-5.819 14.479-10.153 23.636-12.995l-.593-1.91c-9.403 2.918-17.53 7.384-24.365 13.405l1.322 1.5zm23.646-12.998c9.328-3.004 19.622-4.512 30.893-4.512v-2c-11.449 0-21.954 1.532-31.506 4.608l.613 1.904zm30.893-4.512c11.437 0 21.817 1.43 31.148 4.276l.584-1.912c-9.549-2.914-20.129-4.364-31.732-4.364v2zm31.148 4.276c9.318 2.843 17.269 7.178 23.871 12.994l1.322-1.5c-6.837-6.024-15.047-10.489-24.609-13.406l-.584 1.912zm23.89 13.011c6.746 5.648 11.934 12.871 15.557 21.693l1.85-.76c-3.736-9.098-9.109-16.595-16.123-22.467l-1.284 1.534zm15.563 21.707c3.776 8.81 5.679 19.151 5.679 31.046h2c0-12.105-1.936-22.724-5.841-31.834l-1.838.788zm-124.881 30.345c.323 17.44 5.093 30.475 14.493 38.886l1.334-1.49c-8.839-7.909-13.51-20.314-13.827-37.434l-2 .038zm14.507 38.898c9.521 8.208 22.905 12.243 40.013 12.243v-2c-16.812 0-29.668-3.965-38.707-11.757l-1.306 1.514zm40.013 12.243c17.109 0 30.569-4.036 40.247-12.237l-1.293-1.526c-9.202 7.799-22.143 11.763-38.954 11.763v2zm40.247-12.237c9.737-8.252 14.67-21.299 14.993-38.905l-2-.036c-.317 17.274-5.144 29.667-14.286 37.415l1.293 1.526zm14.993-38.941c-.323-17.611-5.339-30.659-15.24-38.91l-1.28 1.536c9.299 7.749 14.204 20.141 14.52 37.41l2-.036zm-15.232-38.904c-9.835-8.36-23.373-12.478-40.488-12.478v2c16.806 0 29.828 4.042 39.193 12.002l1.295-1.524zm-40.488-12.478c-17.111 0-30.423 4.117-39.787 12.495l1.334 1.49c8.876-7.942 21.644-11.985 38.453-11.985v-2zm-39.786 12.494c-9.247 8.256-13.931 21.297-14.254 38.888l2 .036c.317-17.289 4.913-29.688 13.586-37.432l-1.332-1.492zM520.693 629.76l.011 1 .989-.011v-.989h-1zm-22.08.24h-1v1.011l1.011-.011-.011-1zm-.72-83.04l-.998.062.001.016.002.015.995-.093zm-4.32-14.4l.868-.496-.868.496zm-11.76-11.28l-.518.855.009.006.01.006.499-.867zm-44.88-2.16l.232.973.011-.003.01-.003-.253-.967zm-17.52 8.64l-.642-.766-.007.005-.006.005.655.756zm-11.52 17.28l-.931-.364-.004.008-.003.009.938.347zm-4.32 28.08l-1-.014v.014h1zm0 56.64v1h1v-1h-1zm-22.32 0h-1v1h1v-1zm0-127.2l.011-1-1.011-.011v1.011h1zm22.32.24l.988.152.176-1.14-1.153-.012-.011 1zm-2.4 15.6l-.988-.152-.523 3.398 2.264-2.588-.753-.658zm24.96-16.8l.335.942.008-.003-.343-.939zm58.56-1.92l-.31.951.006.002.304-.953zm19.2 10.8l-.673.74.012.011.012.01.649-.761zm12.48 17.76l.929-.371-.929.371zm4.309 100.52l-22.08.24.022 2 22.08-.24-.022-2zM499.613 630v-69.12h-2V630h2zm0-69.12c0-4.197-.242-8.869-.724-14.013l-1.991.186c.477 5.096.715 9.704.715 13.827h2zm-.722-13.982c-.329-5.274-1.814-10.222-4.45-14.834l-1.736.992c2.484 4.348 3.88 9 4.19 13.966l1.996-.124zm-4.45-14.834c-2.662-4.66-6.723-8.538-12.129-11.651l-.998 1.734c5.154 2.967 8.934 6.609 11.391 10.909l1.736-.992zm-12.11-11.639c-5.504-3.336-13.315-4.945-23.318-4.945v2c9.838 0 17.226 1.591 22.282 4.655l1.036-1.71zm-23.318-4.945c-8.073 0-15.519.888-22.333 2.673l.506 1.934c6.626-1.735 13.9-2.607 21.827-2.607v-2zm-22.311 2.667c-6.861 1.634-12.844 4.58-17.931 8.847l1.285 1.532c4.833-4.053 10.53-6.867 17.109-8.433l-.463-1.946zm-17.944 8.857c-4.949 4.289-8.871 10.197-11.796 17.672l1.862.728c2.835-7.245 6.593-12.857 11.244-16.888l-1.31-1.512zm-11.803 17.689c-2.773 7.503-4.221 16.986-4.382 28.413l2 .028c.159-11.293 1.591-20.53 4.258-27.747l-1.876-.694zm-4.382 28.427v56.64h2v-56.64h-2zm1 55.64h-22.32v2h22.32v-2zm-21.32 1v-127.2h-2v127.2h2zm-1.011-126.2l22.32.24.022-2-22.32-.24-.022 2zm21.343-.912l-2.4 15.6 1.976.304 2.4-15.6-1.976-.304zm-.659 16.41c6.603-7.546 14.778-13.051 24.542-16.516l-.669-1.884c-10.076 3.575-18.542 9.27-25.378 17.083l1.505 1.317zm24.55-16.519c9.954-3.634 21.115-5.459 33.497-5.459v-2c-12.578 0-23.977 1.855-34.183 5.581l.686 1.878zm33.497-5.459c9.033 0 17.166 1.189 24.41 3.551l.62-1.902c-7.476-2.438-15.823-3.649-25.03-3.649v2zm24.416 3.553c7.398 2.361 13.668 5.893 18.831 10.587l1.346-1.48c-5.397-4.906-11.927-8.574-19.569-11.013l-.608 1.906zm18.855 10.608c5.307 4.526 9.376 10.308 12.201 17.37l1.857-.742c-2.935-7.338-7.186-13.396-12.76-18.15l-1.298 1.522zm12.201 17.37c2.823 7.058 4.248 15.327 4.248 24.829h2c0-9.698-1.454-18.229-4.391-25.571l-1.857.742zm4.248 24.829v76.32h2v-76.32h-2zm136.345 41.04l1 .012v-.012h-1zm-12.72 30.96l-.646-.763-.007.006.653.757zm-80.4 0l-.64.768.008.007.632-.775zm-13.44-32.64h-1v.022l1-.022zm13.2-31.44l.607.795.009-.007-.616-.788zm110.4-10.32v1h1.12l-.126-1.113-.994.113zm-6-17.28l-.823.568.005.007.004.006.814-.581zm-11.28-10.8l-.533.846.012.007.011.007.51-.86zm-14.16-5.52l-.22.975.018.004.018.004.184-.983zm-29.76-.72l-.137-.991.137.991zm-13.44 3.6l.347.938.016-.006.014-.006-.377-.926zm-11.76 6.72l-.633-.774.633.774zm-7.92 11.28v1h.69l.245-.645-.935-.355zm-23.52 0l-.992-.127-.144 1.127h1.136v-1zm6.72-17.04l-.8-.6-.006.008-.006.008.812.584zm14.88-13.2l.518.856.006-.004-.524-.852zm21.36-8.88l-.247-.969-.005.001.252.968zm59.76 1.2l-.311.95.311-.95zm21.6 13.2l.727-.687-.727.687zm12.24 22.56l.963-.27-.963.27zm4.08 32.4h1v-.013l-1 .013zm0 61.44v1h1v-1h-1zm-22.32 0h-1v1h1v-1zm0-59.76h1v-.99l-.99-.01-.01 1zm-24.72-.24l.01-1-1.995-.019 1.178 1.61.807-.591zm-77.04 22.8l-1-.02v.041l1-.021zm6.72 17.52l-.679.734.007.007.008.006.664-.747zm49.44 0l.664.747-.664-.747zm6.96-17.52l.999.041.002-.041-.002-.041-.999.041zm-6.72-17.28l-.662.749.662-.749zm-49.68 0l-.648-.761.648.761zm76.52 18.948c-.157 13.388-4.32 23.401-12.366 30.209l1.292 1.526c8.595-7.272 12.912-17.899 13.074-31.711l-2-.024zm-12.373 30.215c-7.911 6.825-19.56 10.317-35.107 10.317v2c15.813 0 28.005-3.548 36.413-10.803l-1.306-1.514zM607.558 635h-8.16v2h8.16v-2zm-8.16 0c-15.542 0-27.447-3.49-35.848-10.335l-1.264 1.55C571.165 633.45 583.58 637 599.398 637v-2zm-35.84-10.328c-8.356-6.964-12.764-17.532-13.08-31.894l-2 .044c.325 14.758 4.876 25.95 13.8 33.386l1.28-1.536zm-13.08-31.872c0-14.026 4.323-24.167 12.807-30.645l-1.214-1.59c-9.116 6.962-13.593 17.781-13.593 32.235h2zm12.816-30.652c8.565-6.697 20.559-10.108 36.104-10.108v-2c-15.815 0-28.301 3.469-37.336 10.532l1.232 1.576zm36.104-10.108h73.68v-2h-73.68v2zm74.674-1.113c-.814-7.162-2.857-13.096-6.18-17.748l-1.628 1.162c3.077 4.308 5.034 9.893 5.821 16.812l1.987-.226zm-6.171-17.735c-3.272-4.744-7.134-8.45-11.593-11.092l-1.02 1.72c4.181 2.478 7.839 5.972 10.967 10.508l1.646-1.136zm-11.57-11.078c-4.429-2.789-9.267-4.674-14.509-5.657l-.368 1.966c4.999.937 9.6 2.732 13.811 5.383l1.066-1.692zm-14.473-5.649c-5.02-1.134-9.734-1.705-14.14-1.705v2c4.234 0 8.8.549 13.7 1.655l.44-1.95zm-14.14-1.705h-2.4v2h2.4v-2zm-2.4 0c-4.369 0-8.895.324-13.577.969l.274 1.982c4.598-.635 9.032-.951 13.303-.951v-2zm-13.577.969a56.63 56.63 0 00-13.68 3.665l.754 1.852a54.623 54.623 0 0113.2-3.535l-.274-1.982zm-13.65 3.653a41.824 41.824 0 00-12.046 6.884l1.266 1.548a39.843 39.843 0 0111.474-6.556l-.694-1.876zm-12.046 6.884c-3.668 3.001-6.406 6.911-8.222 11.699l1.87.71c1.704-4.492 4.246-8.102 7.618-10.861l-1.266-1.548zm-7.287 11.054h-23.52v2h23.52v-2zm-22.528 1.127c.779-6.075 2.957-11.598 6.54-16.583l-1.624-1.168c-3.777 5.255-6.079 11.092-6.9 17.497l1.984.254zm6.528-16.567c3.755-5.007 8.615-9.323 14.598-12.945l-1.036-1.711c-6.177 3.739-11.237 8.223-15.162 13.456l1.6 1.2zm14.604-12.948c6.146-3.782 13.172-6.706 21.088-8.764l-.504-1.936c-8.083 2.102-15.297 5.098-21.632 8.996l1.048 1.704zm21.083-8.763c8.073-2.058 16.63-3.089 25.673-3.089v-2c-9.196 0-17.92 1.049-26.167 3.151l.494 1.938zm25.673-3.089h1.92v-2h-1.92v2zm1.92 0c12.409 0 22.938 1.432 31.609 4.27l.622-1.9c-8.928-2.922-19.679-4.37-32.231-4.37v2zm31.609 4.27c8.664 2.836 15.714 7.154 21.185 12.937l1.453-1.374c-5.73-6.057-13.079-10.539-22.016-13.463l-.622 1.9zm21.185 12.937c5.471 5.785 9.48 13.154 12.003 22.143l1.926-.54c-2.597-9.251-6.748-16.922-12.476-22.977l-1.453 1.374zm12.003 22.143c2.531 9.015 3.884 19.724 4.043 32.143l2-.026c-.161-12.541-1.527-23.432-4.117-32.657l-1.926.54zm4.043 32.13V630h2v-61.44h-2zm1 60.44h-22.32v2h22.32v-2zm-21.32 1v-59.76h-2V630h2zm-.99-60.76l-24.72-.24-.02 2 24.72.24.02-2zm-25.537 1.351c4.651 6.356 7.007 14.298 7.007 23.889h2c0-9.929-2.444-18.307-7.393-25.071l-1.614 1.182zm-77.233 22.23c.164 7.865 2.466 13.997 7.041 18.233l1.359-1.468c-4.066-3.764-6.244-9.312-6.4-16.807l-2 .042zm7.056 18.246c4.591 4.081 11.85 6.013 21.544 6.013v-2c-9.506 0-16.166-1.908-20.216-5.507l-1.328 1.494zm21.544 6.013h8.16v-2h-8.16v2zm8.16 0c9.385 0 16.478-1.936 21.064-6.013l-1.328-1.494c-4.054 3.603-10.561 5.507-19.736 5.507v2zm21.064-6.013c4.588-4.077 6.968-10.215 7.295-18.226l-1.998-.082c-.313 7.669-2.572 13.211-6.625 16.814l1.328 1.494zm7.295-18.308c-.326-7.998-2.62-14.064-7.056-17.988l-1.325 1.498c3.883 3.436 6.069 8.89 6.383 16.572l1.998-.082zm-7.056-17.988c-4.436-3.924-11.621-5.771-21.303-5.771v2c9.519 0 16.094 1.833 19.978 5.269l1.325-1.498zM607.558 569h-8.16v2h8.16v-2zm-8.16 0c-9.687 0-16.939 1.849-21.528 5.759l1.297 1.522c4.05-3.45 10.718-5.281 20.231-5.281v-2zm-21.528 5.759c-4.612 3.928-6.908 10.008-7.072 18.021l2 .04c.156-7.667 2.34-13.107 6.369-16.539l-1.297-1.522zm219.768 54.761l.013 1 .976-.013.011-.975-1-.012zm-28.08-2.88l.296-.955-.296.955zm-15.12-11.04l-.862.507.009.015.009.015.844-.537zm-6-22.32l-.998.067.001.008.001.009.996-.084zm-.96-70.56h1v-1h-1v1zm-22.8 0h-1v1h1v-1zm0-19.68v-1h-1v1h1zm23.04 0v1h1v-1h-1zm0-28.08v-1h-1v1h1zm22.32 0l.99.144.166-1.144h-1.156v1zm-4.08 28.08l-.989-.144-.167 1.144h1.156v-1zm41.76 0h1v-1h-1v1zm0 19.68v1h1v-1h-1zm-37.68 0v-1h-.993l-.007.993 1 .007zm-.24 34.08l-1-.007v.007h1zm.48 29.52l-.999.045.001.012v.011l.998-.068zm3.36 15.6l-.886.464.009.016.009.016.868-.496zm8.4 6l-.171.985.007.001.164-.986zm15.84.96l1 .012.012-1.012h-1.012v1zm-.253 19.64c-11.958.16-21.197-.801-27.771-2.835l-.592 1.91c6.867 2.126 16.348 3.085 28.389 2.925l-.026-2zm-27.771-2.835c-6.524-2.019-11.355-5.567-14.572-10.622l-1.688 1.074c3.504 5.505 8.752 9.317 15.668 11.458l.592-1.91zM755.3 615.093c-3.096-5.263-5.072-12.538-5.865-21.897l-1.993.168c.807 9.521 2.83 17.126 6.134 22.743l1.724-1.014zm-5.864-21.88c-.638-9.569-.958-21.705-.958-36.413h-2c0 14.732.32 26.916.962 36.547l1.996-.134zm-.958-36.413v-34.08h-2v34.08h2zm-1-35.08h-22.8v2h22.8v-2zm-21.8 1v-19.68h-2v19.68h2zm-1-18.68h23.04v-2h-23.04v2zm24.04-1v-28.08h-2v28.08h2zm-1-27.08h22.32v-2h-22.32v2zm21.331-1.144l-4.08 28.08 1.979.288 4.08-28.08-1.979-.288zm-3.091 29.224h41.76v-2h-41.76v2zm40.76-1v19.68h2v-19.68h-2zm1 18.68h-37.68v2h37.68v-2zm-38.68.993l-.24 34.08 2 .014.24-34.08-2-.014zm-.24 34.087c0 12.645.16 22.503.481 29.565l1.998-.09c-.319-7.018-.479-16.84-.479-29.475h-2zm.482 29.588c.483 7.08 1.614 12.448 3.472 15.996l1.772-.928c-1.662-3.172-2.771-8.204-3.248-15.204l-1.996.136zm3.49 16.028c2.062 3.608 5.111 5.796 9.097 6.489l.342-1.97c-3.374-.587-5.924-2.399-7.703-5.511l-1.736.992zm9.104 6.49c3.919.654 9.262.974 16.004.974v-2c-6.698 0-11.915-.32-15.675-.946l-.329 1.972zm15.004-.038l-.24 20.64 2 .024.24-20.64-2-.024zm181.668-15.108l.944.329.459-1.315-1.393-.014-.01 1zm-27.36 31.44l-.473-.881-.009.005.482.876zm-21.6 7.92l.214.977-.214-.977zm-56.64-1.68l.291-.956-.007-.003-.008-.002-.276.961zm-24.48-12.72l-.651.759.009.008.642-.767zm-15.84-21.84l-.923.386.003.007.003.007.917-.4zm-5.76-30.96h-1v.014l1-.014zm5.76-30.96l-.914-.408-.003.008.917.4zm16.32-22.08l.642.767.001-.002-.643-.765zm24.96-13.2l.287.958.007-.002.008-.003-.302-.953zm65.76.96l-.353.936.005.002.348-.938zm24.24 15.84l-.741.672.008.009.008.009.725-.69zm15.84 56.4v1h.896l.098-.891-.994-.109zm-129.6 0v-1h-1.129l.136 1.12.993-.12zm16.56 32.4l-.605.797.007.005.598-.802zm68.16 5.28l.371.928.007-.002.007-.003-.385-.923zm19.44-17.04l.01-1-.603-.006-.287.53.88.476zm-85.44-68.88l.538.843.004-.003-.542-.84zm-18 29.04l-.986-.168-.2 1.168h1.186v-1zm106.56 0v1h1.026l-.027-1.026-.999.026zm-4.56-16.32l-.87.493.006.011.006.01.858-.514zm-11.04-12l-.587.81.009.007.01.006.568-.823zm-16.32-7.68l.271-.962-.271.962zm52.095 75.751c-2.359 6.763-5.815 12.729-10.367 17.909l1.503 1.32c4.728-5.38 8.312-11.574 10.753-18.571l-1.889-.658zm-10.367 17.909c-4.556 5.185-10.06 9.512-16.521 12.979l.945 1.762c6.659-3.573 12.355-8.046 17.079-13.421l-1.503-1.32zm-16.53 12.984c-6.307 3.469-13.415 6.077-21.333 7.819l.429 1.954c8.083-1.778 15.374-4.45 21.868-8.021l-.964-1.752zm-21.333 7.819c-7.925 1.744-16.252 2.617-24.985 2.617v2c8.867 0 17.339-.887 25.414-2.663l-.429-1.954zm-24.985 2.617c-11.438 0-21.817-1.43-31.149-4.276l-.583 1.912c9.549 2.914 20.129 4.364 31.732 4.364v-2zm-31.164-4.281c-9.318-2.685-17.351-6.863-24.114-12.526l-1.284 1.534c6.996 5.857 15.284 10.159 24.845 12.914l.553-1.922zm-24.106-12.518c-6.596-5.654-11.789-12.807-15.574-21.481l-1.833.8c3.895 8.926 9.262 16.333 16.106 22.199l1.301-1.518zm-15.568-21.467c-3.62-8.657-5.524-18.846-5.682-30.588l-2 .028c.161 11.938 2.097 22.389 5.837 31.332l1.845-.772zm-5.682-30.574c0-11.734 1.902-21.912 5.676-30.56l-1.833-.8c-3.906 8.952-5.843 19.414-5.843 31.36h2zm5.673-30.552c3.944-8.835 9.296-16.068 16.049-21.721l-1.284-1.534c-7.007 5.867-12.535 13.354-16.592 22.439l1.827.816zm16.05-21.723c6.927-5.824 15.123-10.163 24.604-13.007l-.575-1.916c-9.719 2.916-18.163 7.377-25.316 13.393l1.287 1.53zm24.619-13.012c9.49-3.005 19.867-4.513 31.138-4.513v-2c-11.45 0-22.033 1.532-31.742 4.607l.604 1.906zm31.138-4.513c13.029 0 24.344 1.828 33.967 5.456l.705-1.872c-9.897-3.732-21.462-5.584-34.672-5.584v2zm33.972 5.458c9.791 3.632 17.729 8.828 23.847 15.574l1.481-1.344c-6.362-7.014-14.583-12.378-24.633-16.106l-.695 1.876zm23.863 15.592c6.28 6.593 10.763 14.607 13.443 24.063l1.924-.546c-2.761-9.744-7.398-18.05-13.918-24.897l-1.449 1.38zm13.443 24.063c2.679 9.456 3.396 19.964 2.128 31.538l1.988.218c1.291-11.786.569-22.558-2.192-32.302l-1.924.546zm3.122 30.647h-129.6v2h129.6v-2zM849.153 573c1.783 14.755 7.4 25.833 16.948 33.077l1.209-1.594c-9.011-6.836-14.435-17.358-16.172-31.723l-1.985.24zm16.955 33.082c9.662 7.205 22.453 10.758 38.278 10.758v-2c-15.536 0-27.865-3.487-37.083-10.362l-1.195 1.604zm38.278 10.758c11.62 0 21.91-1.775 30.851-5.352l-.743-1.856c-8.659 3.463-18.689 5.208-30.108 5.208v2zm30.865-5.357c8.99-3.76 15.655-9.587 19.934-17.487l-1.759-.952c-4.041 7.46-10.336 12.993-18.946 16.593l.771 1.846zm19.045-16.963l24.24.24.02-2-24.24-.24-.02 2zm-48.47-80.48c-14.865 0-27.385 3.232-37.503 9.76l1.085 1.68c9.722-6.272 21.842-9.44 36.418-9.44v-2zm-37.499 9.757c-10.034 6.415-16.167 16.363-18.447 29.715l1.971.336c2.201-12.888 8.067-22.3 17.553-28.365l-1.077-1.686zm-17.461 30.883h106.56v-2h-106.56v2zm107.559-1.026c-.164-6.237-1.726-11.848-4.702-16.808l-1.715 1.028c2.784 4.64 4.262 9.909 4.418 15.832l1.999-.052zm-4.689-16.787c-2.797-4.934-6.581-9.046-11.343-12.33l-1.135 1.646c4.518 3.116 8.094 7.004 10.738 11.67l1.74-.986zm-11.324-12.317c-4.747-3.437-10.297-6.045-16.635-7.832l-.543 1.924c6.142 1.733 11.472 4.245 16.005 7.528l1.173-1.62zm-16.635-7.832c-6.333-1.787-12.985-2.678-19.951-2.678v2c6.793 0 13.262.869 19.408 2.602l.543-1.924zM178.539 155.56l-.904-.429-.004.01.908.419zm-14.64 16.32l.545.838.007-.004.007-.005-.559-.829zm-27.36 10.56l-.22-.976-.003.001.223.975zm-83.28-1.92l-.342.94.005.001.337-.941zm-25.2-14.64l-.707.707.009.009.01.009.688-.725zm-13.2-19.92l-.945.329.005.012.004.012.936-.353zm-4.8-21.6v-1H8.964l.099 1.091.996-.091zm25.44 0l.997-.074-.069-.926H35.5v1zm16.32 30.24l-.588.809.008.006.007.005.573-.82zm89.52 3.84l.371.929.007-.003-.378-.926zm17.28-22.08l1 .016-1-.016zm-14.88-21.6l.394-.919-.394.919zm-47.04-8.4l.06-.998-.013-.001h-.013l-.034.999zm-36.72-2.88l-.14.99.003.001.137-.991zm-25.44-7.2l.447-.894-.447.894zM19.659 82.6l.874-.486-.874.486zm0-42.24l-.89-.456.89.456zm15.12-16.32l.559.83.004-.004-.563-.826zm26.88-11.28l.242.97.014-.003-.256-.967zm79.44 1.2l-.338.941.004.002.334-.943zm24.48 14.16l-.698.717.01.009.688-.726zm12.72 19.44l-.949.316.003.01.004.009.942-.335zm4.8 21.36v1h1.095l-.099-1.09-.996.09zm-25.44 0l-.997.085.078.915h.919v-1zm-5.52-18.72l-.86.51.007.013.853-.523zm-12.24-12.24l-.523.853.012.007.511-.86zm-64.56-6.72l-.148-.99-.003.001.15.989zm-19.2 5.28l.39.92.007-.002.006-.003-.403-.915zm-12.48 8.88l-.771-.637-.003.004.774.633zm-.96 25.44l-.832.555.015.023.017.022.8-.6zm11.04 7.92l-.387.922.013.006.013.005.36-.933zm18.96 4.56l-.145.99.012.001.011.002.122-.993zm27.6 2.4l-.061.998h.006l.055-.998zm37.68 4.08l-.182.983.008.002.007.001.167-.986zm40.32 22.56l-.89.457.005.009.005.01.88-.476zm3.8 22.32c0 7.381-1.491 14.193-4.464 20.451l1.807.858c3.108-6.542 4.657-13.65 4.657-21.309h-2zm-4.468 20.461c-2.789 6.042-7.531 11.351-14.291 15.91l1.118 1.658c7-4.721 12.018-10.293 14.989-16.73l-1.816-.838zm-14.278 15.901c-6.748 4.394-15.745 7.879-27.034 10.422l.44 1.952c11.431-2.577 20.674-6.132 27.685-10.698l-1.091-1.676zm-27.037 10.423c-11.102 2.538-25.021 3.815-41.777 3.815v2c16.844 0 30.924-1.283 42.223-3.865l-.446-1.95zm-41.777 3.815c-16.735 0-30.37-1.914-40.943-5.701l-.674 1.882c10.866 3.893 24.751 5.819 41.617 5.819v-2zm-40.939-5.7c-10.468-3.807-18.738-8.624-24.853-14.425l-1.377 1.45c6.366 6.039 14.896 10.982 25.547 14.855l.683-1.88zm-24.834-14.407c-5.992-5.992-10.307-12.514-12.972-19.566l-1.87.706c2.775 7.348 7.26 14.106 13.428 20.274l1.414-1.414zm-12.963-19.542c-2.536-7.29-4.116-14.41-4.748-21.362l-1.992.182c.648 7.128 2.267 14.408 4.851 21.838l1.89-.658zM10.06 125.36H35.5v-2H10.06v2zm24.443-.926c.98 13.233 6.555 23.591 16.73 30.975l1.174-1.618c-9.666-7.016-14.97-16.818-15.91-29.505l-1.995.148zm16.744 30.986c10.316 7.205 25.03 10.74 44.013 10.74v-2c-18.778 0-33.023-3.505-42.868-10.38l-1.145 1.64zm44.013 10.74c19.578 0 35.083-2.244 46.451-6.792l-.743-1.856c-11.031 4.412-26.247 6.648-45.708 6.648v2zm46.458-6.794c5.792-2.366 10.234-5.456 13.249-9.31 3.025-3.865 4.569-8.44 4.653-13.68l-2-.032c-.077 4.84-1.493 8.985-4.228 12.48-2.744 3.506-6.862 6.416-12.43 8.69l.756 1.852zm17.902-22.99c.082-5.215-1.161-9.747-3.777-13.543-2.611-3.791-6.54-6.777-11.709-8.992l-.788 1.838c4.91 2.105 8.502 4.879 10.85 8.288 2.345 3.404 3.501 7.512 3.424 12.377l2 .032zm-15.486-22.535c-10.244-4.39-26.067-7.198-47.374-8.479l-.12 1.996c21.252 1.279 36.79 4.071 46.706 8.321l.788-1.838zm-47.4-8.48c-14.056-.48-26.26-1.438-36.617-2.872l-.274 1.982c10.443 1.446 22.719 2.408 36.823 2.888l.068-1.998zm-36.615-2.871c-10.17-1.43-18.538-3.807-25.132-7.104l-.894 1.788c6.845 3.423 15.438 5.846 25.748 7.296l.278-1.98zm-25.132-7.104c-6.566-3.283-11.364-7.712-14.453-13.272l-1.748.972c3.31 5.96 8.432 10.651 15.307 14.088l.894-1.788zM20.533 82.114c-3.09-5.563-4.674-12.898-4.674-22.074h-2c0 9.384 1.616 17.089 4.926 23.046l1.748-.972zM15.859 60.04c0-6.718 1.56-13.122 4.69-19.224l-1.78-.912c-3.271 6.378-4.91 13.094-4.91 20.136h2zm4.69-19.224c3.11-6.064 8.023-11.384 14.789-15.947l-1.118-1.658c-6.995 4.717-12.161 10.277-15.451 16.693l1.78.912zm14.793-15.95c6.917-4.716 15.76-8.436 26.56-11.136l-.486-1.94c-10.96 2.74-20.038 6.54-27.2 11.424l1.126 1.652zm26.573-11.14c10.772-2.85 23.801-4.286 39.104-4.286v-2c-15.418 0-28.629 1.445-39.616 4.353l.512 1.934zm39.104-4.286c16.418 0 29.651 1.835 39.742 5.461l.676-1.882c-10.389-3.734-23.876-5.579-40.418-5.579v2zm39.746 5.463c10.307 3.647 18.329 8.302 24.116 13.934l1.395-1.434c-6.052-5.888-14.351-10.673-24.844-14.386l-.667 1.886zm24.126 13.943c5.973 5.659 10.116 12.002 12.459 19.03l1.897-.632c-2.457-7.372-6.794-13.989-12.981-19.85l-1.375 1.452zm12.466 19.049c2.534 7.127 4.114 14.165 4.746 21.115l1.992-.18c-.649-7.13-2.268-14.332-4.854-21.605l-1.884.67zm5.742 20.025h-25.44v2h25.44v-2zm-24.444.915c-.649-7.63-2.522-14.031-5.664-19.158l-1.705 1.046c2.938 4.793 4.746 10.872 5.376 18.282l1.993-.17zm-5.656-19.145c-3.126-5.264-7.326-9.465-12.59-12.59l-1.021 1.72c4.976 2.955 8.936 6.914 11.891 11.89l1.72-1.02zm-12.578-12.583c-5.079-3.113-11.037-5.31-17.855-6.61l-.374 1.965c6.621 1.262 12.344 3.384 17.184 6.35l1.045-1.705zm-17.855-6.61c-6.791-1.293-14.215-1.937-22.267-1.937v2c7.947 0 15.244.636 21.893 1.902l.374-1.964zm-22.267-1.937c-9.16 0-17.53.562-25.108 1.69l.295 1.98c7.463-1.112 15.733-1.67 24.813-1.67v-2zm-25.11 1.691c-7.427 1.13-13.916 2.91-19.454 5.354l.807 1.83c5.342-2.357 11.654-4.096 18.947-5.206l-.3-1.978zM55.748 35.6c-5.399 2.29-9.7 5.338-12.861 9.164l1.542 1.274c2.919-3.534 6.938-6.407 12.1-8.596l-.782-1.842zm-12.864 9.168c-3.045 3.72-4.546 8.273-4.546 13.593h2c0-4.92 1.378-9.008 4.094-12.327l-1.548-1.266zM38.339 58.36c0 5.112 1.156 9.476 3.528 13.035l1.664-1.11c-2.108-3.161-3.192-7.117-3.192-11.925h-2zm3.56 13.08c2.537 3.383 6.384 6.116 11.453 8.242l.774-1.844c-4.851-2.034-8.364-4.581-10.627-7.598l-1.6 1.2zm11.479 8.253c5.053 1.956 11.453 3.49 19.176 4.617l.29-1.98c-7.637-1.113-13.878-2.619-18.744-4.503l-.722 1.866zm19.2 4.62c7.865.963 17.086 1.764 27.66 2.405l.121-1.996c-10.546-.64-19.724-1.438-27.539-2.395l-.243 1.986zm27.666 2.406c14.693.798 27.208 2.155 37.553 4.064l.363-1.966c-10.455-1.93-23.06-3.294-37.807-4.095l-.109 1.997zm37.568 4.067c10.328 1.748 18.773 4.44 25.366 8.051l.961-1.754c-6.847-3.75-15.522-6.497-25.993-8.269l-.334 1.972zm25.366 8.051c6.572 3.599 11.296 8.263 14.231 13.98l1.779-.914c-3.144-6.123-8.181-11.059-15.049-14.82l-.961 1.754zm14.241 13.999c3.099 5.733 4.68 12.997 4.68 21.844h2c0-9.073-1.62-16.689-4.921-22.796l-1.759.952zm144.342 53.044l.99.141.476-3.336-2.219 2.536.753.659zm-83.52 18l.304-.953-.01-.003-.009-.002-.285.958zm-19.44-10.56l-.673.74.005.005.006.005.662-.75zm-12.24-18l-.929.371.929-.371zm-4.32-101.52v-1h-1v1h1zm22.32 0h1v-1h-1v1zm.48 82.8l-.999.06.001.017.002.016.996-.093zm4.32 14.4l-.882.472.007.012.006.012.869-.496zm11.76 11.52l-.519.855.015.009.016.009.488-.873zm45.12 2.16l.231.973.011-.003.011-.003-.253-.967zm17.28-8.88l-.643-.766-.006.005-.006.005.655.756zm11.52-17.04l-.932-.364-.004.011.936.353zm4.56-28.08l1 .014v-.014h-1zm0-56.88v-1h-1v1h1zm22.08 0h1v-1h-1v1zm0 127.2v1h1v-1h-1zm-22.08 0l-.99-.141-.163 1.141h1.153v-1zm1.407-15.779c-6.601 7.544-14.77 12.967-24.528 16.272l.641 1.894c10.083-3.415 18.553-9.032 25.392-16.848l-1.505-1.318zm-24.528 16.272c-9.799 3.319-20.888 4.987-33.279 4.987v2c12.568 0 23.879-1.692 33.92-5.093l-.641-1.894zm-33.279 4.987c-9.033 0-17.249-1.188-24.656-3.553l-.608 1.906c7.632 2.435 16.056 3.647 25.264 3.647v-2zm-24.675-3.558c-7.392-2.202-13.741-5.655-19.064-10.352l-1.323 1.5c5.557 4.903 12.169 8.49 19.816 10.768l.571-1.916zm-19.053-10.342c-5.158-4.689-9.155-10.56-11.984-17.631l-1.857.742c2.931 7.329 7.094 13.458 12.496 18.369l1.345-1.48zm-11.984-17.631c-2.823-7.058-4.248-15.327-4.248-24.829h-2c0 9.698 1.454 18.229 4.391 25.571l1.857-.742zm-4.248-24.829V53.8h-2v76.32h2zm-1-75.32h22.32v-2h-22.32v2zm21.32-1v68.88h2V53.8h-2zm0 68.88c0 4.025.161 8.686.481 13.98l1.997-.12c-.319-5.266-.478-9.885-.478-13.86h-2zm.484 14.013c.492 5.251 1.97 10.18 4.434 14.779l1.763-.944c-2.336-4.361-3.738-9.032-4.206-14.021l-1.991.186zm4.447 14.803c2.66 4.654 6.714 8.608 12.11 11.879l1.037-1.71c-5.163-3.129-8.95-6.855-11.41-11.161l-1.737.992zm12.141 11.897c5.652 3.159 13.528 4.687 23.528 4.687v-2c-9.841 0-17.325-1.512-22.553-4.433l-.975 1.746zm23.528 4.687c8.066 0 15.505-.807 22.311-2.427l-.463-1.946c-6.633 1.58-13.914 2.373-21.848 2.373v2zm22.333-2.433c6.854-1.795 12.755-4.822 17.682-9.091l-1.31-1.512c-4.674 4.051-10.293 6.944-16.879 8.669l.507 1.934zm17.669-9.081c5.114-4.289 9.044-10.123 11.813-17.453l-1.871-.706c-2.671 7.07-6.421 12.596-11.227 16.627l1.285 1.532zm11.809-17.442c2.938-7.509 4.468-16.998 4.629-28.43l-2-.028c-.159 11.288-1.67 20.519-4.492 27.73l1.863.728zm4.629-28.444V53.8h-2v56.88h2zm-1-55.88h22.08v-2h-22.08v2zm21.08-1V181h2V53.8h-2zm1 126.2h-22.08v2h22.08v-2zm-21.09 1.141l2.16-15.12-1.98-.282-2.16 15.12 1.98.282zM423.378 181l-.321.947.007.002.007.003.307-.952zm-25.68-14.88l.674-.739-1.674-1.525v2.264h1zm0 55.44v1h1v-1h-1zm-22.32 0h-1v1h1v-1zm0-167.76v-1h-1v1h1zm22.32 0l.997.077.083-1.077h-1.08v1zm-1.2 15.6l-.997-.077-.2 2.604 1.888-1.804-.691-.723zm25.44-16.08l-.361-.933-.005.002.366.931zm62.64-1.68l.281-.96-.281.96zm24 12.72l-.651.76.01.007.01.009.631-.776zm16.08 21.36l-.914.406.005.01.005.01.904-.426zm6.24 30.24h1v-.014l-1 .014zm-5.76 31.2l-.916-.4-.003.007-.003.007.922.386zm-15.6 21.84l.651.759-.651-.759zm-24 12.72l.281.96-.281-.96zm-87.6-65.04l-1-.019v.037l1-.018zm4.32 22.32l-.913.408.005.01.004.01.904-.428zm11.76 14.88l-.612.791.612-.791zm17.52 8.4l-.253.967.005.002.248-.969zm44.16 0l-.253-.967-.006.001.259.966zm17.04-8.4l-.625-.781-.006.005-.006.006.637.77zm11.04-14.88l-.913-.408-.004.01-.005.01.922.388zm4.32-22.32l1 .018v-.036l-1 .018zm-4.32-22.32l-.925.38.006.014.006.014.913-.408zm-10.8-15.12l-.653.757.008.007.008.006.637-.77zm-16.8-8.64l-.259.966.259-.966zm-44.4.24l.253.967.008-.002.008-.002-.269-.963zm-17.76 8.64l.612.79.004-.002-.616-.788zm-11.76 15.12l-.908-.42-.005.012.913.408zm53.04 90.2c-11.265 0-21.801-1.586-31.613-4.752l-.614 1.904c10.028 3.234 20.772 4.848 32.227 4.848v-2zm-31.599-4.747c-9.799-3.319-18.237-8.212-25.327-14.672l-1.347 1.478c7.309 6.66 15.992 11.687 26.032 15.088l.642-1.894zm-27.001-13.933v55.44h2v-55.44h-2zm1 54.44h-22.32v2h22.32v-2zm-21.32 1V53.8h-2v167.76h2zm-1-166.76h22.32v-2h-22.32v2zm21.323-1.077l-1.2 15.6 1.994.154 1.2-15.6-1.994-.154zm.488 16.4c7.101-6.786 15.469-12.077 25.115-15.872l-.732-1.862c-9.874 3.885-18.466 9.314-25.765 16.288l1.382 1.446zm25.11-15.87c9.794-3.792 20.47-5.693 32.039-5.693v-2c-11.791 0-22.715 1.939-32.761 5.827l.722 1.866zm32.039-5.693c10.797 0 20.781 1.35 29.959 4.04l.562-1.92c-9.382-2.75-19.557-4.12-30.521-4.12v2zm29.959 4.04c9.157 2.683 17.028 6.86 23.63 12.52l1.302-1.52c-6.837-5.86-14.966-10.163-24.37-12.92l-.562 1.92zm23.65 12.536c6.75 5.494 12.017 12.484 15.797 20.99l1.828-.812c-3.9-8.774-9.353-16.024-16.363-21.73l-1.262 1.552zm15.807 21.01c3.926 8.324 5.986 18.256 6.144 29.828l2-.028c-.161-11.788-2.261-22.016-6.335-30.653l-1.809.854zm6.144 29.814c0 11.896-1.903 22.154-5.676 30.8l1.833.8c3.907-8.954 5.843-19.496 5.843-31.6h-2zm-5.682 30.814c-3.625 8.668-8.736 15.816-15.329 21.467l1.302 1.518c6.847-5.869 12.136-13.281 15.872-22.213l-1.845-.772zm-15.329 21.467c-6.602 5.659-14.473 9.835-23.63 12.519l.562 1.92c9.404-2.756 17.533-7.06 24.37-12.921l-1.302-1.518zm-23.63 12.519c-9.178 2.69-19.162 4.04-29.959 4.04v2c10.964 0 21.139-1.37 30.521-4.12l-.562-1.92zm-88.319-64.062c.162 8.894 1.618 16.475 4.407 22.71l1.826-.816c-2.65-5.925-4.075-13.224-4.233-21.93l-2 .036zm4.416 22.73c2.943 6.212 6.959 11.3 12.052 15.243l1.224-1.582c-4.826-3.737-8.65-8.569-11.468-14.517l-1.808.856zm12.052 15.243c5.077 3.931 11.043 6.786 17.879 8.576l.506-1.934c-6.603-1.73-12.318-4.475-17.161-8.224l-1.224 1.582zm17.884 8.578c6.971 1.783 14.495 2.671 22.568 2.671v-2c-7.927 0-15.282-.872-22.072-2.609l-.496 1.938zm22.568 2.671c8.073 0 15.441-.888 22.099-2.674l-.518-1.932c-6.462 1.734-13.653 2.606-21.581 2.606v2zm22.093-2.673c6.84-1.791 12.657-4.651 17.425-8.597l-1.275-1.54c-4.512 3.734-10.056 6.474-16.656 8.203l.506 1.934zm17.412-8.586c4.939-3.952 8.717-9.051 11.337-15.273l-1.844-.776c-2.5 5.938-6.082 10.759-10.743 14.487l1.25 1.562zm11.328-15.253c2.79-6.235 4.245-13.816 4.407-22.71l-2-.036c-.158 8.706-1.582 16.005-4.233 21.93l1.826.816zm4.407-22.746c-.162-8.894-1.617-16.475-4.407-22.71l-1.826.816c2.651 5.925 4.075 13.224 4.233 21.93l2-.036zm-4.395-22.682c-2.614-6.373-6.306-11.554-11.087-15.51l-1.275 1.54c4.499 3.724 8.007 8.623 10.512 14.73l1.85-.76zm-11.072-15.497c-4.766-4.109-10.504-7.054-17.194-8.849l-.518 1.932c6.431 1.725 11.892 4.54 16.406 8.431l1.306-1.514zm-17.194-8.849c-6.658-1.786-14.026-2.674-22.099-2.674v2c7.928 0 15.119.872 21.581 2.606l.518-1.932zm-22.099-2.674c-8.238 0-15.85.97-22.829 2.917l.538 1.926c6.781-1.892 14.209-2.843 22.291-2.843v-2zm-22.813 2.913c-6.843 1.792-12.888 4.73-18.123 8.819l1.232 1.576c5.005-3.91 10.8-6.733 17.397-8.46l-.506-1.935zm-18.119 8.816c-5.099 3.948-9.115 9.12-12.056 15.492l1.816.838c2.819-6.108 6.643-11.016 11.464-14.748l-1.224-1.582zm-12.061 15.503c-2.788 6.233-4.245 13.733-4.407 22.469l2 .038c.158-8.544 1.582-15.764 4.233-21.69l-1.826-.817zM604.316 181l-.321.947.007.002.007.003.307-.952zm-25.68-14.88l.673-.739-1.673-1.525v2.264h1zm0 55.44v1h1v-1h-1zm-22.32 0h-1v1h1v-1zm0-167.76v-1h-1v1h1zm22.32 0l.997.077.083-1.077h-1.08v1zm-1.2 15.6l-.997-.077-.201 2.604 1.888-1.804-.69-.723zm25.44-16.08l-.361-.933-.005.002.366.931zm62.64-1.68l.281-.96-.281.96zm24 12.72l-.651.76.009.007.01.009.632-.776zm16.08 21.36l-.914.406.004.01.005.01.905-.426zm6.24 30.24h1v-.014l-1 .014zm-5.76 31.2l-.917-.4-.003.007-.003.007.923.386zm-15.6 21.84l.65.759-.65-.759zm-24 12.72l.281.96-.281-.96zm-87.6-65.04l-1-.019-.001.019.001.018 1-.018zm4.32 22.32l-.913.408.004.01.005.01.904-.428zm11.76 14.88l-.613.791.613-.791zm17.52 8.4l-.254.967.006.002.248-.969zm44.16 0l-.254-.967-.005.001.259.966zm17.04-8.4l-.625-.781-.007.005-.006.006.638.77zm11.04-14.88l-.913-.408-.005.01-.004.01.922.388zm4.32-22.32l.999.018.001-.018-.001-.018-.999.018zm-4.32-22.32l-.926.38.006.014.007.014.913-.408zm-10.8-15.12l-.653.757.007.007.008.006.638-.77zm-16.8-8.64l-.26.966.26-.966zm-44.4.24l.253.967.008-.002.007-.002-.268-.963zm-17.76 8.64l.612.79.003-.002-.615-.788zm-11.76 15.12l-.908-.42-.005.012.913.408zm53.04 90.2c-11.265 0-21.801-1.586-31.613-4.752l-.614 1.904c10.027 3.234 20.772 4.848 32.227 4.848v-2zm-31.6-4.747c-9.799-3.319-18.236-8.212-25.327-14.672l-1.347 1.478c7.31 6.66 15.992 11.687 26.033 15.088l.641-1.894zm-27-13.933v55.44h2v-55.44h-2zm1 54.44h-22.32v2h22.32v-2zm-21.32 1V53.8h-2v167.76h2zm-1-166.76h22.32v-2h-22.32v2zm21.323-1.077l-1.2 15.6 1.994.154 1.2-15.6-1.994-.154zm.487 16.4c7.102-6.786 15.47-12.077 25.116-15.872l-.732-1.862c-9.875 3.885-18.467 9.314-25.765 16.288l1.381 1.446zm25.111-15.87c9.794-3.792 20.47-5.693 32.039-5.693v-2c-11.792 0-22.715 1.939-32.761 5.827l.722 1.866zm32.039-5.693c10.796 0 20.78 1.35 29.958 4.04l.563-1.92c-9.382-2.75-19.558-4.12-30.521-4.12v2zm29.958 4.04c9.157 2.683 17.028 6.86 23.631 12.52l1.301-1.52c-6.837-5.86-14.966-10.163-24.369-12.92l-.563 1.92zm23.65 12.536c6.75 5.494 12.017 12.484 15.798 20.99l1.827-.812c-3.899-8.774-9.352-16.024-16.362-21.73l-1.263 1.552zm15.807 21.01c3.926 8.324 5.986 18.256 6.145 29.828l2-.028c-.162-11.788-2.262-22.016-6.336-30.653l-1.809.854zm6.145 29.814c0 11.896-1.904 22.154-5.677 30.8l1.833.8c3.907-8.954 5.844-19.496 5.844-31.6h-2zm-5.683 30.814c-3.625 8.668-8.736 15.816-15.328 21.467l1.301 1.518c6.848-5.869 12.137-13.281 15.872-22.213l-1.845-.772zm-15.328 21.467c-6.603 5.659-14.474 9.835-23.631 12.519l.563 1.92c9.403-2.756 17.532-7.06 24.369-12.921l-1.301-1.518zm-23.631 12.519c-9.178 2.69-19.162 4.04-29.958 4.04v2c10.963 0 21.139-1.37 30.521-4.12l-.563-1.92zm-88.318-64.062c.161 8.894 1.617 16.475 4.407 22.71l1.825-.816c-2.65-5.925-4.074-13.224-4.233-21.93l-1.999.036zm4.416 22.73c2.942 6.212 6.958 11.3 12.051 15.243l1.225-1.582c-4.827-3.737-8.651-8.569-11.469-14.517l-1.807.856zm12.051 15.243c5.078 3.931 11.043 6.786 17.879 8.576l.507-1.934c-6.604-1.73-12.319-4.475-17.161-8.224l-1.225 1.582zm17.885 8.578c6.97 1.783 14.494 2.671 22.568 2.671v-2c-7.927 0-15.283-.872-22.073-2.609l-.495 1.938zm22.568 2.671c8.072 0 15.441-.888 22.099-2.674l-.518-1.932c-6.463 1.734-13.654 2.606-21.581 2.606v2zm22.093-2.673c6.839-1.791 12.656-4.651 17.424-8.597l-1.275-1.54c-4.512 3.734-10.055 6.474-16.656 8.203l.507 1.934zm17.411-8.586c4.94-3.952 8.717-9.051 11.337-15.273l-1.843-.776c-2.5 5.938-6.083 10.759-10.743 14.487l1.249 1.562zm11.328-15.253c2.79-6.235 4.246-13.816 4.407-22.71l-1.999-.036c-.159 8.706-1.583 16.005-4.233 21.93l1.825.816zm4.407-22.746c-.161-8.894-1.617-16.475-4.407-22.71l-1.825.816c2.65 5.925 4.074 13.224 4.233 21.93l1.999-.036zm-4.394-22.682c-2.615-6.373-6.307-11.554-11.088-15.51l-1.275 1.54c4.499 3.724 8.007 8.623 10.512 14.73l1.851-.76zm-11.072-15.497c-4.766-4.109-10.505-7.054-17.194-8.849l-.519 1.932c6.431 1.725 11.892 4.54 16.407 8.431l1.306-1.514zm-17.194-8.849c-6.658-1.786-14.027-2.674-22.099-2.674v2c7.927 0 15.118.872 21.58 2.606l.519-1.932zm-22.099-2.674c-8.239 0-15.85.97-22.829 2.917l.537 1.926c6.782-1.892 14.21-2.843 22.292-2.843v-2zm-22.814 2.913c-6.842 1.792-12.887 4.73-18.122 8.819l1.231 1.576c5.006-3.91 10.8-6.733 17.398-8.46l-.507-1.935zm-18.119 8.816c-5.098 3.948-9.115 9.12-12.055 15.492l1.816.838c2.819-6.108 6.643-11.016 11.464-14.748l-1.225-1.582zm-12.06 15.503c-2.789 6.233-4.245 13.733-4.407 22.469l1.999.038c.159-8.544 1.582-15.764 4.233-21.69l-1.825-.817zm298.73 22.968l1 .014v-.014h-1zm-6 30.72l-.916-.4-.004.008.92.392zm-15.84 21.6l-.642-.767-.009.008.651.759zm-24.24 12.96l-.292-.956-.004.001.296.955zm-62.16 0l.297-.955-.008-.002-.008-.003-.281.96zm-24-12.72l-.66.751.009.008.651-.759zm-15.36-21.84l.923-.386-.923.386zm-5.76-30.96h-1v.014l1-.014zm5.52-30.96l.923.386.002-.006-.925-.38zm15.36-22.08l.66.751h.001l-.661-.751zm24-13.2l.297.955.01-.003-.307-.952zm62.64-.24l-.292.957.292-.957zm24.24 13.2l-.661.75.01.009.009.008.642-.767zm15.84 22.08l-.925.38.003.007.003.007.919-.394zm-124.8 30.72l-1-.018v.037l1-.019zm14.16 38.16l-.667.745.007.006.007.006.653-.757zm78.96 0l-.646-.763.646.763zm14.64-38.16l1 .018v-.036l-1 .018zm-14.88-38.16l-.648.762.008.006.64-.768zm-78.96 0l.666.746h.001l-.667-.746zm115.64 38.866c-.158 11.575-2.14 21.679-5.916 30.334l1.833.8c3.903-8.945 5.922-19.321 6.083-31.106l-2-.028zm-5.92 30.342c-3.621 8.502-8.808 15.571-15.562 21.225l1.284 1.534c7.007-5.866 12.379-13.197 16.118-21.975l-1.84-.784zm-15.571 21.233c-6.603 5.66-14.557 9.918-23.881 12.763l.584 1.912c9.557-2.915 17.763-7.297 24.599-13.157l-1.302-1.518zm-23.885 12.764c-9.17 2.846-19.388 4.275-30.664 4.275v2c11.444 0 21.866-1.451 31.257-4.365l-.593-1.91zm-30.664 4.275c-11.437 0-21.735-1.43-30.903-4.275l-.593 1.91c9.392 2.915 19.894 4.365 31.496 4.365v-2zm-30.919-4.28c-9.156-2.684-17.027-6.86-23.63-12.519l-1.302 1.518c6.838 5.861 14.967 10.165 24.37 12.921l.562-1.92zm-23.621-12.511c-6.436-5.651-11.47-12.802-15.097-21.475l-1.845.772c3.733 8.927 8.938 16.336 15.622 22.205l1.32-1.502zm-15.097-21.475c-3.621-8.657-5.524-18.846-5.683-30.588l-2 .028c.162 11.938 2.098 22.389 5.838 31.332l1.845-.772zm-5.683-30.574c0-11.738 1.825-21.922 5.443-30.574l-1.845-.772c-3.742 8.948-5.598 19.404-5.598 31.346h2zm5.445-30.58c3.628-8.833 8.663-16.061 15.095-21.709l-1.32-1.502C741.185 69 735.98 76.493 732.248 85.58l1.85.76zm15.096-21.71c6.606-5.819 14.479-10.153 23.636-12.995l-.593-1.91c-9.403 2.918-17.53 7.384-24.365 13.405l1.322 1.5zm23.646-12.998c9.327-3.004 19.622-4.512 30.893-4.512v-2c-11.449 0-21.954 1.532-31.506 4.608l.613 1.904zm30.893-4.512c11.437 0 21.817 1.43 31.148 4.277l.584-1.913c-9.549-2.914-20.129-4.364-31.732-4.364v2zm31.148 4.277c9.318 2.842 17.269 7.177 23.871 12.993l1.322-1.5c-6.837-6.024-15.047-10.49-24.609-13.407l-.584 1.914zm23.89 13.01c6.746 5.648 11.934 12.87 15.557 21.693l1.85-.76c-3.736-9.098-9.109-16.594-16.123-22.467l-1.284 1.534zm15.563 21.707c3.776 8.81 5.679 19.151 5.679 31.046h2c0-12.105-1.937-22.724-5.841-31.834l-1.838.788zm-124.881 30.345c.323 17.44 5.092 30.475 14.493 38.886l1.334-1.49c-8.839-7.909-13.51-20.314-13.827-37.434l-2 .038zm14.507 38.898c9.521 8.208 22.905 12.243 40.013 12.243v-2c-16.812 0-29.668-3.965-38.707-11.757l-1.306 1.514zm40.013 12.243c17.109 0 30.569-4.036 40.247-12.237l-1.293-1.526c-9.203 7.799-22.143 11.763-38.954 11.763v2zm40.247-12.237c9.737-8.252 14.67-21.299 14.993-38.905l-2-.036c-.317 17.274-5.144 29.667-14.286 37.415l1.293 1.526zm14.993-38.941c-.323-17.611-5.339-30.66-15.24-38.91l-1.28 1.536c9.299 7.75 14.203 20.141 14.52 37.41l2-.036zm-15.232-38.904c-9.835-8.36-23.373-12.478-40.488-12.478v2c16.805 0 29.828 4.042 39.192 12.002l1.296-1.524zM803.493 65.04c-17.111 0-30.423 4.117-39.787 12.495l1.334 1.49c8.876-7.942 21.644-11.985 38.453-11.985v-2zm-39.786 12.494c-9.247 8.256-13.931 21.297-14.254 38.888l2 .036c.317-17.289 4.913-29.688 13.586-37.432l-1.332-1.492zM960.98 72.28l.253.967.011-.002.011-.004-.275-.961zm-17.52 8.4l.612.79-.612-.79zM931.94 95.8l.913.408.004-.008-.917-.4zm-4.32 22.32l-1-.018v.014l1 .004zm-.24 62.88v1h.996l.004-.996-1-.004zm-22.08 0h-1v1h1v-1zm0-127.2v-1h-1v1h1zm22.32 0l.989.148.172-1.148h-1.161v1zM924.74 73l-.989-.148-.518 3.452 2.267-2.654-.76-.65zm24.72-17.28l.361.933.013-.006-.374-.927zm62.64-6h1v-1h-1v1zm0 19.68v1h1v-1h-1zm-29.04-1c-8.08 0-15.534.97-22.355 2.918l.55 1.924c6.619-1.892 13.885-2.842 21.805-2.842v-2zm-22.333 2.913c-6.837 1.79-12.802 4.645-17.879 8.576l1.224 1.582c4.843-3.75 10.558-6.494 17.161-8.224l-.506-1.934zm-17.879 8.576c-5.104 3.952-9.043 9.131-11.825 15.511l1.834.8c2.658-6.1 6.399-11 11.215-14.73l-1.224-1.58zm-11.821 15.503c-2.789 6.235-4.245 13.816-4.407 22.71l2 .036c.158-8.706 1.582-16.005 4.233-21.93l-1.826-.816zm-4.407 22.724l-.24 62.88 2 .008.24-62.88-2-.008zm.76 61.884H905.3v2h22.08v-2zm-21.08 1V53.8h-2V181h2zm-1-126.2h22.32v-2H905.3v2zm21.331-1.148l-2.88 19.2 1.978.296 2.88-19.2-1.978-.296zM925.5 73.65c6.447-7.548 14.547-13.214 24.321-16.997l-.722-1.866c-10.066 3.897-18.446 9.75-25.119 17.563l1.52 1.3zm24.334-17.003c9.783-3.944 20.853-5.927 33.226-5.927v-2c-12.587 0-23.917 2.017-33.974 6.073l.748 1.854zm33.226-5.927h29.04v-2h-29.04v2zm28.04-1V69.4h2V49.72h-2zm1 18.68h-29.04v2h29.04v-2zm85.05 112.12l.02 1 .97-.013.01-.975-1-.012zm-28.08-2.88l.3-.955-.3.955zm-15.12-11.04l-.86.507.01.015.01.015.84-.537zm-6-22.32l-.99.067v.017l.99-.084zm-.96-70.56h1v-1h-1v1zm-22.8 0h-1v1h1v-1zm0-19.68v-1h-1v1h1zm23.04 0v1h1v-1h-1zm0-28.08v-1h-1v1h1zm22.32 0l.99.144.17-1.144h-1.16v1zm-4.08 28.08l-.99-.144-.16 1.144h1.15v-1zm41.76 0h1v-1h-1v1zm0 19.68v1h1v-1h-1zm-37.68 0v-1h-.99l-.01.993 1 .007zm-.24 34.08l-1-.007v.007h1zm.48 29.52l-1 .045.01.012v.011l.99-.068zm3.36 15.6l-.88.464.01.016.01.016.86-.496zm8.4 6l-.17.985.01.001.16-.986zm15.84.96l1 .012.02-1.012h-1.02v1zm-.25 19.64c-11.96.16-21.2-.801-27.77-2.835l-.59 1.91c6.86 2.126 16.35 3.085 28.39 2.925l-.03-2zm-27.77-2.835c-6.52-2.019-11.36-5.567-14.57-10.622l-1.69 1.074c3.5 5.505 8.75 9.317 15.67 11.458l.59-1.91zm-14.55-10.592c-3.1-5.263-5.08-12.538-5.87-21.897l-1.99.168c.8 9.521 2.83 17.126 6.13 22.743l1.73-1.014zm-5.87-21.88c-.64-9.569-.96-21.705-.96-36.413h-2c0 14.732.32 26.916.97 36.547l1.99-.134zm-.96-36.413V73.72h-2v34.08h2zm-1-35.08h-22.8v2h22.8v-2zm-21.8 1V54.04h-2v19.68h2zm-1-18.68h23.04v-2h-23.04v2zm24.04-1V25.96h-2v28.08h2zm-1-27.08h22.32v-2h-22.32v2zm21.33-1.144l-4.08 28.08 1.98.288 4.08-28.08-1.98-.288zm-3.09 29.224h41.76v-2h-41.76v2zm40.76-1v19.68h2V54.04h-2zm1 18.68h-37.68v2h37.68v-2zm-38.68.993l-.24 34.08 2 .014.24-34.08-2-.014zm-.24 34.087c0 12.645.16 22.503.48 29.565l2-.09c-.32-7.018-.48-16.84-.48-29.475h-2zm.49 29.588c.48 7.08 1.61 12.448 3.47 15.996l1.77-.928c-1.66-3.172-2.77-8.204-3.25-15.204l-1.99.136zm3.49 16.028c2.06 3.608 5.11 5.796 9.09 6.489l.35-1.97c-3.38-.587-5.93-2.399-7.71-5.511l-1.73.992zm9.1 6.49c3.92.654 9.26.974 16 .974v-2c-6.69 0-11.91-.32-15.67-.946l-.33 1.972zm15-.038l-.24 20.64 2 .024.24-20.64-2-.024z" fill="#0F0F0F"/><path opacity=".1" d="M549.826 320.32c-.96 25.12-8.24 43.52-21.84 55.2-13.6 11.52-33.68 17.28-60.24 17.28-26.56 0-46.72-5.84-60.48-17.52-13.6-11.84-20.8-30.16-21.6-54.96V220h23.52v89.28c0 9.12.64 17.52 1.92 25.2 1.28 7.68 3.92 14.32 7.92 19.92 4.16 5.44 10 9.68 17.52 12.72 7.68 3.04 18 4.56 30.96 4.56s23.28-1.44 30.96-4.32c7.84-3.04 13.76-7.28 17.76-12.72 4.16-5.44 6.88-11.92 8.16-19.44 1.28-7.68 1.92-16.16 1.92-25.44V220h23.52v100.32zm51.05 67.68l-22.32.24V220h22.32v113.76l81.84-72.96h32.4l-57.12 50.4 65.76 76.8h-29.52l-53.04-61.92-40.32 35.76V388zm219.793-111.6c-8 0-15.36.96-22.08 2.88-6.72 1.76-12.56 4.56-17.52 8.4-4.96 3.84-8.8 8.88-11.52 15.12-2.72 6.08-4.16 13.52-4.32 22.32l-.24 62.88h-22.08V260.8h22.32l-2.88 19.2c6.56-7.68 14.8-13.44 24.72-17.28 9.92-4 21.12-6 33.6-6h29.04v19.68h-29.04zm152.494 76.08c-.16 13.6-4.4 23.92-12.72 30.96-8.16 7.04-20.08 10.56-35.76 10.56h-8.16c-15.68 0-27.84-3.52-36.48-10.56-8.64-7.2-13.12-18.08-13.44-32.64 0-14.24 4.4-24.72 13.2-31.44 8.8-6.88 21.04-10.32 36.72-10.32h73.68c-.8-7.04-2.8-12.8-6-17.28-3.2-4.64-6.96-8.24-11.28-10.8-4.32-2.72-9.04-4.56-14.16-5.52-4.96-1.12-9.6-1.68-13.92-1.68h-2.4c-4.32 0-8.8.32-13.44.96-4.64.64-9.12 1.84-13.44 3.6-4.32 1.6-8.24 3.84-11.76 6.72-3.52 2.88-6.16 6.64-7.92 11.28h-23.52c.8-6.24 3.04-11.92 6.72-17.04 3.84-5.12 8.8-9.52 14.88-13.2 6.24-3.84 13.36-6.8 21.36-8.88 8.16-2.08 16.8-3.12 25.92-3.12h1.92c12.48 0 23.12 1.44 31.92 4.32 8.8 2.88 16 7.28 21.6 13.2 5.597 5.92 9.677 13.44 12.237 22.56 2.56 9.12 3.92 19.92 4.08 32.4V388h-22.317v-59.76l-24.72-.24c4.8 6.56 7.2 14.72 7.2 24.48zm-84.24-1.68c.16 7.68 2.4 13.52 6.72 17.52 4.32 3.84 11.28 5.76 20.88 5.76h8.16c9.28 0 16.08-1.92 20.4-5.76s6.64-9.68 6.96-17.52c-.32-7.84-2.56-13.6-6.72-17.28-4.16-3.68-11.04-5.52-20.64-5.52h-8.16c-9.6 0-16.56 1.84-20.88 5.52-4.32 3.68-6.56 9.44-6.72 17.28zM1123.88 208v27.6h-30V208h30zm39.6 160.32V388H1037v-19.68h64.32v-87.84h-45.84v-19.92h68.4v107.76h39.6zm161.14 19.44l-22.08.24v-69.12c0-4.16-.24-8.8-.72-13.92-.32-5.12-1.76-9.92-4.32-14.4-2.56-4.48-6.48-8.24-11.76-11.28-5.28-3.2-12.88-4.8-22.8-4.8-8 0-15.36.88-22.08 2.64-6.72 1.6-12.56 4.48-17.52 8.64-4.8 4.16-8.64 9.92-11.52 17.28-2.72 7.36-4.16 16.72-4.32 28.08v56.64h-22.32v-127.2l22.32.24-2.4 15.6c6.72-7.68 15.04-13.28 24.95-16.8 10.09-3.68 21.37-5.52 33.85-5.52 9.12 0 17.36 1.2 24.72 3.6 7.52 2.4 13.92 6 19.2 10.8 5.44 4.64 9.6 10.56 12.48 17.76 2.88 7.2 4.32 15.6 4.32 25.2v76.32zm175.66-36c-2.4 6.88-5.92 12.96-10.56 18.24-4.64 5.28-10.24 9.68-16.8 13.2-6.4 3.52-13.6 6.16-21.6 7.92-8 1.76-16.4 2.64-25.2 2.64-11.52 0-22-1.44-31.44-4.32-9.44-2.72-17.6-6.96-24.48-12.72-6.72-5.76-12-13.04-15.84-21.84-3.68-8.8-5.6-19.12-5.76-30.96 0-11.84 1.92-22.16 5.76-30.96 4-8.96 9.44-16.32 16.32-22.08 7.04-5.92 15.36-10.32 24.96-13.2 9.6-3.04 20.08-4.56 31.44-4.56 13.12 0 24.56 1.84 34.32 5.52 9.92 3.68 18 8.96 24.24 15.84 6.4 6.72 10.96 14.88 13.68 24.48 2.72 9.6 3.44 20.24 2.16 31.92h-129.6c1.76 14.56 7.28 25.36 16.56 32.4 9.44 7.04 22 10.56 37.68 10.56 11.52 0 21.68-1.76 30.48-5.28 8.8-3.68 15.28-9.36 19.44-17.04l24.24.24zm-72.72-78.72c-14.72 0-27.04 3.2-36.96 9.6-9.76 6.24-15.76 15.92-18 29.04h106.56c-.16-6.08-1.68-11.52-4.56-16.32-2.72-4.8-6.4-8.8-11.04-12-4.64-3.36-10.08-5.92-16.32-7.68-6.24-1.76-12.8-2.64-19.68-2.64z" fill="#0F0F0F"/></svg>