<svg width="34" height="33" fill="none" xmlns="http://www.w3.org/2000/svg"><path d="M.005 7.058c2.907.698 3.077 3.72 3.307 6.874.191 2.626 2.238 3.843 4.572 3.525 2.312-.314 3.178-2.12 2.518-3.507-.658-1.385-2.378-1.835-3.916-1.105.207.898-.403 1.818.38 2.603l.284-.082c-.445-.801.35-1.573 1.298-1.371 1.02.217.642 2.439-1.097 2.41-1.224-.02-1.913-1.004-1.976-2.566-.101-2.498-.343-4.304-1.224-5.071l.161-.168c1.269.528 1.877 1.431 2.114 2.144.192.579.033 1.06-.287 1.349l.138.242c.586-.396 2.17-.808 4.022-.587l-.058-.27C8.109 10.915 8.148 7.266.117 6.843l-.112.216zm11.475 9.737l-.324-.164c.798-1.175.386-3.148 1.009-7.337.915-6.155 3.493-6.39 3.664-9.294l.469.005c.095.79.861 2.418 2.097 3.395l-.263.24c-2.109-1.092-4.278 2.44-4.737 5.762-.31 2.234-.04 4.83-.04 4.83 2.941-.92 5.865-.69 6.54-1.714l.367.002c.172 1.37.333 1.992.732 2.709l-.199.143c-.897-.55-3.037-.816-5.126-.475-2.356.383-3.446 1.135-4.19 1.898z" fill="#29ABE2"/><path d="M16.623 12.907c-1.604.075-2.198-.896-2.29-2.507-.174-2.993 1.348-5.483 3.47-5.677 1.586-.145 2.525 1.69 2.388 3.869-.175 2.752-1.751 4.23-3.568 4.315zm.754-5.36c-.89-.002-1.697 1.304-1.58 2.946.043.618.29 1.302.922 1.302 1.145.006 1.6-1.586 1.509-2.83-.058-.78-.375-1.417-.851-1.417z" fill="#29ABE2"/><path d="M28.109 21.071c-2.163-.67-4.959-2.706-5.505-4.758 2.151.63 5.133.619 6.017-.393l.336.061c-.205.46-.58 1.659-.621 1.862l-.38-.066c-.292-.687-1.689.173-3.153-.27 1.031.844 2.765 1.157 3.075.646l.373.065c-.159.66-.132 1.04-.132 1.04s-1.352-.036-2.583-.654c.546 1.03 2.109 1.402 2.206.926l.341.015a4.274 4.274 0 00.026 1.526z" fill="#FECF0F"/><path d="M32.894 6.842c-7.785 0-12.299 3.987-10.503 8.804.69.258 1.546.358 1.546.358l.125-.223c-.99-.355-1.236-2.638-.674-3.959 1.2.656-.76 4.436 2.634 4.435l.102-.223c-1.84-.336.616-4.007-2.568-4.539.078-.125.174-.234.262-.335 1.12.446 3.461.541 5.125-.732 1.35-1.03 1.791-3.124 4.062-3.369l-.11-.217zm-8.766 3.99c1.173-1.169 2.603-1.78 3.11-1.318.507.46-.902 1.82-3.11 1.319z" fill="#29ABE2"/><path d="M30.102 9.917l.365.088c-.782 2.371-1.4 5.803-3.469 5.835-1.246.018-1.176-.89-.476-.906.4-.01.599.216.591.368.433-.065.793-.592.84-1.074-.471.41-1.337.358-1.61-.162-.271-.519.342-1.839-.667-1.54l-.116-.198c.625-.474 1.468-.447 1.946-.09.682.512-.464 1.331-.161 1.585.304.253.831-.27.892-1.124.056-.788-.322-.886-.688-.779l-.171-.195c.935-.264 2.083-.837 2.724-1.808z" fill="#29ABE2"/><path d="M3.994 17.301l-.192.16c.962.836.64 1.634.342 3.823-.268 1.967.755 2.833 2.268 2.857 1.505.022 2.644-1.111 2.32-2.7-.508-2.489.324-3.37 1.154-3.456l.043-.308c-2.061-.072-3.385 1.456-2.739 4.419.14.643.088 1.269-.415 1.312-1.061.092-1.15-1.533-.77-2.99.306-1.17.98-2.09 1.524-2.286l-.093-.188c-1.064.224-2.45-.073-3.442-.643z" fill="#FECF0F"/><path d="M15.589 18.828c-1.533 0-3.406.63-3.752 2.774-.126.78-.803 1.06-1.312 1.027.39-.811.71-1.76.923-2.877.162-.844.6-.942.93-.838l.181-.16c-.834-.684-2.069-.99-2.069-.99l-.148.27c.774.369-.247 4.089-1.56 5.57-1.105 1.246-3.449 1.445-4.57.792l-.271.187c.625.708.774 1.823-.317 2.592l.121.194c1.572-.252 4.378-.922 6.214-3.73.542.317.357.925-.33 1.69-1.272 1.418-.088 3.105 2.503 2.314l-.125-.272c-.506.261-1.956-.075-.884-2 .691-1.242-.057-1.885-.972-2.04.068-.113.133-.229.197-.348.848.265 2.617.048 2.892-1.388.373-1.944 1.388-2.4 2.35-2.504v-.263h-.001z" fill="#FECF0F"/><path d="M15.407 18.422l-.067-.269c-.545.013-.66-.644-.12-1.79 1.761-.4 5.02-.502 6.57 1.09l.265-.04a16.113 16.113 0 01-.828-1.543c-1.913-.707-4.15-.778-6.347-.246-2.942.711-3.144 1.945-2.55 2.331.566.368 1.34-.224.542-.674.312-.45 1.042-.636 1.042-.636-.27.796.021 1.623-.661 1.94l.009.289c.542-.274 1.533-.436 2.145-.452z" fill="#29ABE2"/><path d="M18.09 18.383c-1.344.058-2.337-.24-2.356-.866-.023-.727 1.182-.978 2.264-.997 1.37-.023 2.415.305 2.38.934-.038.631-.9.868-2.288.929zm.718-.957c-.046-.372-1.832-.3-1.801.112.027.343 1.855.32 1.801-.112z" fill="#29ABE2"/><path d="M22.304 17.928c1.18 1.878 3.076 3.496 3.962 5.377l.279-.03c-.133-.802-.614-2.165-1.444-2.991l.217-.13s1.233 1.023 2.86 1.472l.022.208c-.339.04-.675-.055-.231 2.437.367 2.06.404 2.354 1.125 2.891l-.16.204c-1.146-.482-2.785-.463-2.96-.482l-.018-.263c.398.03.802-.77-.047-2.45-.94-1.857-1.423-2.297-1.676-2.53l-.29.054s.636.939.94 3.41c.096.774.35 1.38.621 1.456l.002.264s-1.696-.478-3.138-.475l-.013-.27c.29-.035.728-.329.67-1.067-.058-.739-.173-3.03-1.373-5.293-.402-.757-1.199-1.165-1.199-1.165l-.115-.226c.696.012 1.444-.15 1.966-.4zm-2.097 10.186s-.27.623-1.697.359c-1.554-.29-3.114-2.286-5.053-1.549a6.287 6.287 0 01-.095-.244c2.923-1.3 2.534-4.21.931-4.099-1.056.074-1.662.824-2.788.77l-.09.149c.82.544-.084 2.517 2.09 5.477 1.953 2.657 2.291 3.214 2.385 4.023l.354-.017c-.086-.741.551-1.79 1.44-2.377-2.39-1.084-3.501-2.242-4.062-3.329 1.46-.34 2.024 2.154 4.266 2.27 2.246.116 2.616-1.335 2.616-1.335l-.297-.098zm-6.448-4.458c.764-.024.502 1.942-.55 2.531-.086-.33-.143-.647-.192-.946-.182-1.105.13-1.567.742-1.585z" fill="#FECF0F"/><path d="M16.992 27.1l.101-.184c1.429.151 2.005-2.257 1.17-4.071l-.253.007c.539 1.918.001 3.334-1.373 3.765-1.261.415-1.95-.362-1.95-.362l.203-.164c.99.372 1.696-.662 1.596-1.502-.225-1.899-1.787-2.34-2.163-3.713-.198-.723.506-1.341 1.394-1.312.92.032 2.159.737 3.365 2.53 1.42 2.111.631 4.363.028 5.536-1.385-.083-2.118-.53-2.118-.53zm-1.306-6.722c-.576.014-.388.692.38 1.434.786.758 1.24 1.585 1.325 2.29l.23-.007c.044-1.835-1.111-3.737-1.935-3.717z" fill="#FECF0F"/><path d="M19.692 27.693l.12-.31c1.052-.003 1.132-2.302.673-4.284-.294-1.267-.72-2.11-1.61-2.067l-.204-.255c.957-.095 1.912-.42 2.34-.874.498.752 1.081 2.03 1.236 4.04.183 2.35-.888 3.833-2.555 3.75zm.812-8.197c0-.469-.36-.757-1.443-.757-.74 0-1.387.136-2.96.09v.26c1.497.077 1.761.684 2.69 1.01.879.31 1.713-.15 1.713-.603z" fill="#FECF0F"/></svg>