<svg width="17" height="15" viewBox="0 0 17 15" fill="none" xmlns="http://www.w3.org/2000/svg">
<path d="M14.7695 0.00125438C14.5528 0.0108144 14.3509 0.0739343 14.1732 0.145788C14.0067 0.212761 13.3705 0.485614 12.3685 0.915321C11.3656 1.3454 10.0376 1.91553 8.62109 2.52469C5.78797 3.74303 2.60281 5.11445 0.971353 5.81636C0.910006 5.84275 0.695946 5.91113 0.468746 6.08849C0.241547 6.26586 0 6.63339 0 7.04292C0 7.37315 0.15738 7.70121 0.355467 7.89709C0.55356 8.09296 0.76316 8.18971 0.942706 8.26297C1.59415 8.52878 3.61456 9.35558 3.99609 9.51167C4.13037 9.92299 4.86166 12.16 5.03124 12.7083C5.14304 13.0701 5.24946 13.2967 5.38802 13.4765C5.4573 13.5664 5.53782 13.6452 5.63541 13.707C5.67442 13.7317 5.71718 13.7507 5.76041 13.7682L5.76302 13.7695C5.77298 13.7735 5.78156 13.7803 5.79166 13.7838C5.81072 13.7905 5.82346 13.7913 5.84896 13.7968C5.9505 13.8296 6.05303 13.8502 6.14453 13.8502C6.53464 13.8502 6.77344 13.6354 6.77344 13.6354L6.78776 13.6249L8.79428 11.8893L11.2279 14.1913C11.2621 14.2398 11.5817 14.6783 12.2865 14.6783C12.7049 14.6783 13.0369 14.4683 13.25 14.2447C13.4631 14.0211 13.5959 13.7862 13.6523 13.4908V13.4895C13.7051 13.2104 15.9479 1.69657 15.9479 1.69657L15.944 1.71219C16.0097 1.41252 16.0269 1.13343 15.9544 0.858027C15.882 0.582621 15.6911 0.318934 15.4544 0.177041C15.2178 0.0351745 14.9862 -0.00830561 14.7695 0.00125438ZM14.6445 1.39448C14.6413 1.41394 14.6469 1.40415 14.6419 1.42703L14.6406 1.43485L14.6393 1.44266C14.6393 1.44266 12.4243 12.8093 12.3424 13.2421C12.3484 13.2094 12.321 13.2744 12.293 13.3138C12.2533 13.2864 12.1719 13.2513 12.1719 13.2513L12.1588 13.2369L8.83463 10.0924L6.48437 12.1237L7.18359 9.32417C7.18359 9.32417 11.5544 4.79975 11.8177 4.53641C12.0297 4.32575 12.0742 4.25231 12.0742 4.17964C12.0742 4.08231 12.0235 4.01167 11.9102 4.01167C11.8082 4.01167 11.671 4.11084 11.5977 4.15751C10.6423 4.76653 6.44788 7.2111 4.56771 8.30464C4.26892 8.18236 2.19311 7.33265 1.48959 7.04553C1.49491 7.04319 1.49316 7.04402 1.4987 7.04162C3.13058 6.33953 6.31442 4.96811 9.14714 3.74995C10.5635 3.14087 11.8924 2.57031 12.8945 2.14058C13.8812 1.71747 14.5667 1.42626 14.6445 1.39448Z" fill="white"/>
</svg>
