<svg width="270" height="341" fill="none" xmlns="http://www.w3.org/2000/svg"><g style="mix-blend-mode:luminosity" opacity=".05" clip-path="url(#clip0_1_177)"><path fill="#fff" d="M0 0h270v341H0z"/><path d="M0 72.928c23.788 7.217 25.18 38.438 27.061 71.026 1.563 27.139 18.305 39.71 37.404 36.428 18.916-3.246 26-21.908 20.602-36.234-5.386-14.314-19.454-18.965-32.044-11.42 1.697 9.277-3.297 18.783 3.114 26.897l2.32-.848c-3.639-8.283 2.87-16.252 10.624-14.169 8.341 2.241 5.251 25.202-8.975 24.899-10.014-.206-15.656-10.366-16.168-26.509-.83-25.807-2.81-44.47-10.014-52.401l1.319-1.732c10.38 5.45 15.35 14.786 17.292 22.149 1.575 5.983.268 10.948-2.345 13.939l1.123 2.507c4.8-4.093 17.756-8.356 32.91-6.067l-.475-2.785C66.309 112.77 66.627 75.071.916 70.699L0 72.928zM93.883 173.54l-2.65-1.696c6.534-12.134 3.163-32.528 8.255-75.81C106.975 32.431 128.065 30.01 129.469 0l3.835.048c.781 8.163 7.046 24.984 17.157 35.084l-2.149 2.482c-17.255-11.286-34.999 25.202-38.76 59.534-2.528 23.082-.33 49.919-.33 49.919 24.069-9.507 47.992-7.145 53.512-17.718l3.004.025c1.404 14.144 2.723 20.575 5.983 27.986l-1.624 1.478c-7.339-5.68-24.85-8.429-41.935-4.905-19.282 3.96-28.196 11.723-34.278 19.607z" fill="#29ABE2"/><path d="M135.965 133.37c-13.128.775-17.988-9.264-18.745-25.904-1.417-30.93 11.039-56.664 28.404-58.662 12.969-1.502 20.65 17.463 19.527 39.976-1.429 28.435-14.325 43.706-29.186 44.59zm6.167-55.38c-7.279-.024-13.885 13.466-12.933 30.433.355 6.382 2.382 13.454 7.547 13.454 9.367.061 13.091-16.385 12.346-29.246-.476-8.065-3.065-14.641-6.96-14.641z" fill="#29ABE2"/><path d="M229.933 217.73c-17.694-6.927-40.567-27.963-45.036-49.168 17.597 6.516 41.996 6.395 49.225-4.057l2.748.63c-1.673 4.759-4.738 17.136-5.08 19.231l-3.114-.678c-2.382-7.097-13.812 1.792-25.791-2.785 8.438 8.719 22.628 11.952 25.156 6.672l3.053.666c-1.295 6.818-1.075 10.754-1.075 10.754s-11.064-.375-21.138-6.757c4.469 10.633 17.255 14.484 18.048 9.567l2.797.157c-.696 4.869-.586 11.42.207 15.768z" fill="#FECF0F"/><path d="M269.084 70.7c-63.696 0-100.624 41.198-85.933 90.972 5.641 2.664 12.651 3.693 12.651 3.693l1.026-2.301c-8.109-3.669-10.112-27.26-5.52-40.908 9.818 6.782-6.216 45.837 21.554 45.825l.83-2.301c-15.057-3.476 5.043-41.405-21.004-46.903.635-1.296 1.416-2.422 2.137-3.463 9.159 4.614 28.319 5.594 41.935-7.557 11.039-10.657 14.654-32.286 33.228-34.817l-.904-2.24zm-71.719 41.235c9.598-12.086 21.297-18.396 25.437-13.624 4.152 4.759-7.376 18.795-25.437 13.624z" fill="#29ABE2"/><path d="M246.236 102.477l2.992.908c-6.399 24.499-11.455 59.958-28.38 60.285-10.197.194-9.623-9.192-3.895-9.361 3.272-.097 4.896 2.24 4.835 3.802 3.542-.666 6.485-6.115 6.876-11.093-3.859 4.239-10.942 3.694-13.177-1.671-2.222-5.365 2.797-19.001-5.458-15.925l-.953-2.034c5.117-4.905 12.016-4.627 15.924-.933 5.581 5.292-3.798 13.757-1.319 16.373 2.491 2.616 6.802-2.785 7.303-11.614.452-8.138-2.638-9.155-5.63-8.041l-1.404-2.022c7.657-2.725 17.047-8.647 22.286-18.674z" fill="#29ABE2"/><path d="M32.642 178.771l-1.576 1.659c7.877 8.635 5.24 16.882 2.797 39.492-2.186 20.333 6.18 29.282 18.562 29.525 12.31.23 21.627-11.481 18.977-27.89-4.152-25.722 2.65-34.829 9.44-35.713l.353-3.185c-16.864-.751-27.696 15.041-22.408 45.655 1.148 6.649.72 13.116-3.395 13.564-8.682.944-9.415-15.841-6.301-30.906 2.503-12.074 8.023-21.58 12.468-23.615l-.757-1.937c-8.707 2.313-20.052-.763-28.16-6.649z" fill="#FECF0F"/><path d="M127.502 194.551c-12.541 0-27.867 6.515-30.7 28.665-1.026 8.053-6.57 10.948-10.734 10.609 3.2-8.381 5.813-18.19 7.559-29.731 1.319-8.719 4.909-9.737 7.608-8.659l1.477-1.659c-6.826-7.06-16.925-10.221-16.925-10.221l-1.209 2.785c6.326 3.815-2.027 42.253-12.773 57.56-9.037 12.873-28.21 14.932-37.38 8.187l-2.223 1.925c5.117 7.315 6.338 18.844-2.589 26.788l.99 1.998c12.858-2.603 35.816-9.518 50.837-38.547 4.433 3.282 2.918 9.568-2.7 17.475-10.403 14.654-.72 32.081 20.48 23.906l-1.026-2.809c-4.14 2.7-15.997-.776-7.23-20.661 5.655-12.836-.463-19.485-7.95-21.083a99.974 99.974 0 001.613-3.597c6.936 2.737 21.407.496 23.654-14.339 3.053-20.091 11.357-24.801 19.233-25.879v-2.713h-.012z" fill="#FECF0F"/><path d="M126.012 190.349l-.549-2.774c-4.458.134-5.398-6.66-.977-18.504 14.41-4.13 41.068-5.183 53.756 11.263l2.161-.412c-2.54-5.244-5.19-11.553-6.777-15.937-15.644-7.303-33.949-8.041-51.925-2.543-24.069 7.35-25.717 20.103-20.869 24.087 4.64 3.802 10.966-2.313 4.445-6.964 2.552-4.65 8.524-6.575 8.524-6.575-2.211 8.222.171 16.772-5.41 20.054l.073 2.979c4.433-2.834 12.541-4.505 17.548-4.674z" fill="#29ABE2"/><path d="M147.969 189.949c-11.003.606-19.124-2.482-19.282-8.949-.184-7.509 9.671-10.1 18.525-10.294 11.21-.242 19.758 3.149 19.465 9.652-.305 6.515-7.364 8.961-18.708 9.591zm5.874-9.882c-.379-3.851-14.996-3.112-14.74 1.151.22 3.548 15.179 3.306 14.74-1.151z" fill="#29ABE2"/><path d="M182.442 185.25c9.66 19.401 25.169 36.125 32.41 55.562l2.284-.303c-1.087-8.295-5.019-22.379-11.809-30.917l1.771-1.332s10.087 10.56 23.397 15.198l.183 2.156c-2.772.411-5.519-.57-1.892 25.177 3.004 21.29 3.309 24.329 9.207 29.876l-1.306 2.107c-9.379-4.977-22.787-4.784-24.216-4.977l-.147-2.725c3.249.303 6.558-7.957-.39-25.311-7.694-19.194-11.638-23.736-13.714-26.146l-2.369.558s5.202 9.7 7.693 35.228c.782 8.005 2.858 14.266 5.08 15.053l.012 2.725s-13.872-4.941-25.669-4.905l-.109-2.797c2.369-.351 5.959-3.391 5.483-11.02-.477-7.63-1.417-31.305-11.235-54.69-3.285-7.823-9.806-12.038-9.806-12.038l-.94-2.337c5.69.121 11.808-1.55 16.082-4.142zM165.285 290.5s-2.21 6.443-13.885 3.706c-12.712-2.991-25.473-23.615-41.336-15.998a72.866 72.866 0 01-.782-2.531c23.911-13.43 20.736-43.5 7.62-42.349-8.646.763-13.603 8.513-22.811 7.956l-.733 1.538c6.704 5.619-.696 26.013 17.097 56.591 15.972 27.454 18.744 33.219 19.514 41.575l2.894-.182c-.708-7.653 4.506-18.492 11.772-24.559-19.551-11.202-28.636-23.167-33.228-34.393 11.943-3.512 16.559 22.258 34.901 23.457 18.379 1.199 21.407-13.793 21.407-13.793l-2.43-1.018zm-52.754-46.067c6.252-.242 4.103 20.067-4.494 26.158-.709-3.415-1.173-6.685-1.576-9.773-1.489-11.42 1.063-16.191 6.07-16.385z" fill="#FECF0F"/><path d="M138.981 280.025l.83-1.901c11.687 1.562 16.401-23.325 9.562-42.071l-2.064.072c4.409 19.825.013 34.454-11.234 38.911-10.319 4.287-15.949-3.743-15.949-3.743l1.661-1.695c8.096 3.839 13.872-6.842 13.054-15.525-1.844-19.619-14.617-24.184-17.694-38.366-1.625-7.472 4.139-13.854 11.405-13.551 7.523.327 17.658 7.617 27.525 26.146 11.614 21.811 5.166 45.074.232 57.197-11.332-.86-17.328-5.474-17.328-5.474zm-10.685-69.464c-4.714.145-3.175 7.157 3.114 14.823 6.423 7.835 10.148 16.373 10.832 23.663l1.88-.073c.366-18.964-9.085-38.619-15.826-38.413z" fill="#FECF0F"/><path d="M161.072 286.153l.977-3.197c8.609-.037 9.268-23.797 5.507-44.275-2.405-13.092-5.886-21.799-13.176-21.363l-1.661-2.628c7.828-.981 15.643-4.347 19.136-9.034 4.079 7.775 8.853 20.987 10.123 41.756 1.49 24.269-7.266 39.601-20.906 38.741zm6.643-84.699c0-4.844-2.943-7.823-11.809-7.823-6.057 0-11.344 1.404-24.215.92v2.701c12.248.787 14.409 7.06 22.005 10.439 7.193 3.197 14.019-1.551 14.019-6.237z" fill="#FECF0F"/></g><defs><clipPath id="clip0_1_177"><path fill="#fff" d="M0 0h270v341H0z"/></clipPath></defs></svg>