<svg width="44" height="56" viewBox="0 0 44 56" fill="none" xmlns="http://www.w3.org/2000/svg">
<path d="M0 11.9765C3.87662 13.1618 4.10348 18.2889 4.40995 23.6407C4.66468 28.0976 7.39304 30.1619 10.5055 29.623C13.5881 29.09 14.7423 26.0253 13.8627 23.6725C12.9851 21.3218 10.6925 20.5581 8.6408 21.7971C8.91741 23.3205 8.10348 24.8817 9.14826 26.2142L9.52637 26.075C8.93333 24.7147 9.99403 23.406 11.2577 23.7481C12.6169 24.116 12.1134 27.8868 9.79503 27.837C8.16319 27.8032 7.24378 26.1346 7.1602 23.4836C7.02488 19.2455 6.70249 16.1808 5.52836 14.8782L5.74328 14.5938C7.43483 15.4887 8.24478 17.0221 8.56119 18.2312C8.81791 19.2137 8.60498 20.0291 8.1791 20.5203L8.36219 20.932C9.14428 20.2598 11.2557 19.5597 13.7254 19.9356L13.6478 19.4782C10.806 18.5196 10.8577 12.3285 0.149254 11.6106L0 11.9765Z" fill="#29ABE2"/>
<path d="M15.2995 28.4992L14.8677 28.2208C15.9324 26.228 15.3831 22.8789 16.213 15.771C17.4329 5.32595 20.8697 4.92819 21.0985 0L21.7234 0.00795511C21.8508 1.34839 22.8717 4.1108 24.5194 5.76944L24.1692 6.17714C21.3572 4.3236 18.4657 10.3158 17.8528 15.954C17.4408 19.7446 17.799 24.1517 17.799 24.1517C21.7214 22.5905 25.6199 22.9783 26.5194 21.2421L27.009 21.2461C27.2378 23.569 27.4527 24.625 27.9841 25.8422L27.7194 26.0848C26.5234 25.1521 23.6697 24.7006 20.8856 25.2794C17.7433 25.9297 16.2906 27.2045 15.2995 28.4992Z" fill="#29ABE2"/>
<path d="M22.1572 21.9023C20.0179 22.0296 19.2259 20.3809 19.1025 17.6483C18.8716 12.569 20.9015 8.34284 23.7313 8.01469C25.8448 7.76808 27.0965 10.8825 26.9134 14.5796C26.6806 19.2493 24.5791 21.7571 22.1572 21.9023ZM23.1622 12.8076C21.9761 12.8037 20.8995 15.0192 21.0547 17.8054C21.1124 18.8535 21.4428 20.015 22.2846 20.015C23.8109 20.0249 24.4179 17.3242 24.2965 15.2121C24.2189 13.8875 23.797 12.8076 23.1622 12.8076Z" fill="#29ABE2"/>
<path d="M37.4707 35.7563C34.5871 34.6187 30.8597 31.1642 30.1313 27.6819C32.999 28.7518 36.9751 28.7319 38.1532 27.0156L38.601 27.119C38.3284 27.9006 37.8289 29.9332 37.7731 30.2772L37.2657 30.1658C36.8776 29.0004 35.0149 30.4602 33.0627 29.7084C34.4378 31.1404 36.7503 31.6714 37.1622 30.8042L37.6597 30.9136C37.4488 32.0333 37.4846 32.6797 37.4846 32.6797C37.4846 32.6797 35.6816 32.618 34.0398 31.5699C34.7682 33.3161 36.8517 33.9485 36.9811 33.1411L37.4368 33.1669C37.3234 33.9664 37.3413 35.0423 37.4707 35.7563Z" fill="#FBB03B"/>
<path d="M43.8508 11.6106C33.4707 11.6106 27.4527 18.3764 29.8468 26.5503C30.7662 26.9878 31.9085 27.1569 31.9085 27.1569L32.0756 26.779C30.7542 26.1764 30.4279 22.3023 31.1761 20.0609C32.7761 21.1746 30.1632 27.5884 34.6886 27.5864L34.8239 27.2086C32.3702 26.6378 35.6458 20.4089 31.401 19.506C31.5045 19.2932 31.6318 19.1083 31.7493 18.9373C33.2418 19.695 36.3642 19.8561 38.5831 17.6963C40.3821 15.9461 40.9711 12.3942 43.998 11.9785L43.8508 11.6106ZM32.1632 18.3824C33.7274 16.3976 35.6338 15.3614 36.3085 16.145C36.9851 16.9266 35.1065 19.2316 32.1632 18.3824Z" fill="#29ABE2"/>
<path d="M40.1274 16.8291L40.6149 16.9783C39.5722 21.0016 38.7483 26.8247 35.9901 26.8784C34.3284 26.9102 34.4219 25.3689 35.3552 25.3411C35.8886 25.3252 36.1532 25.709 36.1433 25.9655C36.7204 25.8562 37.2 24.9612 37.2637 24.1438C36.6348 24.8399 35.4806 24.7504 35.1164 23.8694C34.7542 22.9883 35.5722 20.749 34.2269 21.2541L34.0717 20.92C34.9055 20.1146 36.0299 20.1603 36.6667 20.7669C37.5761 21.636 36.0478 23.0261 36.4518 23.4557C36.8577 23.8853 37.5602 22.9983 37.6418 21.5485C37.7154 20.212 37.212 20.045 36.7244 20.2279L36.4955 19.8958C37.7433 19.4483 39.2736 18.4758 40.1274 16.8291Z" fill="#29ABE2"/>
<path d="M5.3194 29.3584L5.06268 29.6309C6.34627 31.0489 5.91641 32.4032 5.5184 36.1163C5.16219 39.4554 6.52537 40.9251 8.54328 40.9649C10.5492 41.0027 12.0677 39.0795 11.6358 36.3848C10.9592 32.1606 12.0677 30.665 13.1741 30.5198L13.2318 29.9968C10.4836 29.8735 8.7184 32.4669 9.5801 37.4945C9.76716 38.5863 9.69751 39.6483 9.02686 39.7219C7.61194 39.877 7.49253 37.1206 8 34.6466C8.40796 32.6637 9.30746 31.1026 10.0318 30.7684L9.90845 30.4502C8.48955 30.8301 6.64079 30.3249 5.3194 29.3584Z" fill="#FBB03B"/>
<path d="M20.7781 31.9496C18.7343 31.9496 16.2368 33.0196 15.7751 36.657C15.608 37.9796 14.7045 38.4549 14.0259 38.3992C14.5473 37.023 14.9731 35.4121 15.2577 33.5168C15.4726 32.0848 16.0577 31.9178 16.4975 32.0948L16.7383 31.8223C15.6259 30.6629 13.9801 30.1438 13.9801 30.1438L13.7831 30.6012C14.8139 31.2277 13.4527 37.5401 11.7015 40.0539C10.2289 42.1679 7.10447 42.506 5.60995 41.3983L5.24776 41.7145C6.08159 42.9157 6.28059 44.809 4.82587 46.1137L4.98706 46.4418C7.08258 46.0142 10.8239 44.8787 13.2716 40.1116C13.994 40.6505 13.7473 41.6827 12.8318 42.9814C11.1363 45.3878 12.7144 48.2496 16.1692 46.9072L16.002 46.4458C15.3274 46.8893 13.395 46.3185 14.8239 43.053C15.7453 40.9449 14.7483 39.853 13.5284 39.5905C13.6179 39.3996 13.7055 39.2027 13.791 38.9998C14.9214 39.4493 17.2796 39.0814 17.6458 36.6451C18.1433 33.3457 19.4965 32.5721 20.7801 32.3951V31.9496H20.7781Z" fill="#FBB03B"/>
<path d="M20.5353 31.2596L20.4458 30.8042C19.7194 30.826 19.5662 29.7103 20.2866 27.7653C22.6348 27.0871 26.9791 26.9141 29.0468 29.6149L29.399 29.5472C28.9851 28.6861 28.5532 27.65 28.2945 26.93C25.7453 25.7308 22.7622 25.6095 19.8328 26.5124C15.9104 27.7196 15.6418 29.8137 16.4318 30.468C17.1881 31.0925 18.2189 30.0882 17.1562 29.3245C17.5721 28.5608 18.5453 28.2446 18.5453 28.2446C18.1851 29.595 18.5731 30.9991 17.6637 31.538L17.6756 32.0273C18.398 31.5619 19.7194 31.2874 20.5353 31.2596Z" fill="#29ABE2"/>
<path d="M24.1134 31.1939C22.3204 31.2933 20.997 30.7862 20.9711 29.7242C20.9413 28.4911 22.5473 28.0656 23.99 28.0337C25.8169 27.994 27.2099 28.5508 27.1622 29.6188C27.1124 30.6887 25.9622 31.0905 24.1134 31.1939ZM25.0706 29.5711C25.009 28.9386 22.6269 29.0599 22.6687 29.76C22.7045 30.3427 25.1423 30.3029 25.0706 29.5711Z" fill="#29ABE2"/>
<path d="M29.7313 30.4224C31.3055 33.6084 33.8328 36.3549 35.0129 39.5469L35.3851 39.4972C35.208 38.1348 34.5672 35.8219 33.4607 34.4198L33.7492 34.201C33.7492 34.201 35.393 35.9353 37.5622 36.697L37.592 37.051C37.1403 37.1186 36.6925 36.9575 37.2836 41.1856C37.7731 44.6819 37.8229 45.1811 38.7841 46.0919L38.5711 46.438C37.0428 45.6206 34.8577 45.6524 34.6249 45.6206L34.601 45.1731C35.1303 45.2228 35.6696 43.8665 34.5373 41.0166C33.2836 37.8644 32.6408 37.1186 32.3025 36.7228L31.9164 36.8143C31.9164 36.8143 32.7642 38.4073 33.1701 42.5996C33.2975 43.9142 33.6358 44.9424 33.998 45.0717L34 45.5192C34 45.5192 31.7393 44.7078 29.8169 44.7137L29.799 44.2543C30.1851 44.1966 30.7701 43.6975 30.6925 42.4445C30.6149 41.1916 30.4617 37.3035 28.8617 33.4632C28.3264 32.1785 27.2637 31.4864 27.2637 31.4864L27.1104 31.1025C28.0378 31.1224 29.0348 30.848 29.7313 30.4224Z" fill="#FBB03B"/>
<path d="M26.9353 47.7068C26.9353 47.7068 26.5751 48.7648 24.6726 48.3154C22.601 47.8241 20.5214 44.4372 17.9363 45.6882C17.8905 45.549 17.8488 45.4098 17.809 45.2725C21.7055 43.067 21.1881 38.1288 19.0507 38.3178C17.6418 38.4431 16.8338 39.7159 15.3333 39.6244L15.2139 39.877C16.3065 40.7998 15.1005 44.1489 18 49.1705C20.603 53.6791 21.0547 54.6257 21.1801 55.998L21.6517 55.9682C21.5363 54.7113 22.3861 52.9313 23.5701 51.9349C20.3841 50.0953 18.9035 48.1304 18.1552 46.2868C20.1015 45.7101 20.8537 49.9422 23.8428 50.1391C26.8378 50.336 27.3313 47.8738 27.3313 47.8738L26.9353 47.7068ZM18.3383 40.1415C19.3572 40.1017 19.007 43.4369 17.606 44.4372C17.4905 43.8764 17.4149 43.3394 17.3493 42.8323C17.1065 40.9569 17.5224 40.1733 18.3383 40.1415Z" fill="#FBB03B"/>
<path d="M22.6487 45.9866L22.7841 45.6743C24.6885 45.9309 25.4567 41.8439 24.3423 38.7653L24.006 38.7772C24.7244 42.0329 24.008 44.4353 22.1751 45.1672C20.4935 45.8712 19.5761 44.5527 19.5761 44.5527L19.8468 44.2742C21.1662 44.9047 22.1075 43.1506 21.9741 41.7246C21.6736 38.5028 19.592 37.753 19.0905 35.4242C18.8259 34.1971 19.7652 33.149 20.9492 33.1987C22.1751 33.2524 23.8269 34.4497 25.4348 37.4925C27.3274 41.0743 26.2766 44.8947 25.4726 46.8855C23.6259 46.7443 22.6487 45.9866 22.6487 45.9866ZM20.9075 34.5789C20.1393 34.6028 20.39 35.7543 21.4149 37.0132C22.4617 38.2999 23.0686 39.702 23.1801 40.8993L23.4866 40.8873C23.5463 37.7729 22.006 34.5451 20.9075 34.5789Z" fill="#FBB03B"/>
<path d="M26.2488 46.9928L26.408 46.4678C27.811 46.4618 27.9184 42.5599 27.3055 39.1968C26.9134 37.047 26.3463 35.617 25.1582 35.6886L24.8876 35.2571C26.1632 35.096 27.4368 34.5431 28.006 33.7734C28.6707 35.0502 29.4488 37.22 29.6557 40.6307C29.8985 44.6163 28.4717 47.134 26.2488 46.9928Z" fill="#FBB03B"/>
<path d="M27.3313 33.0833C27.3313 32.2878 26.8517 31.7986 25.407 31.7986C24.4199 31.7986 23.5582 32.0293 21.4607 31.9497V32.3932C23.4567 32.5225 23.809 33.5527 25.0468 34.1076C26.2189 34.6326 27.3313 33.853 27.3313 33.0833Z" fill="#FBB03B"/>
</svg>
