<svg width="1408" height="691" viewBox="0 0 1408 691" fill="none" xmlns="http://www.w3.org/2000/svg">
<path opacity="0.1" d="M183.36 582.24L182.414 581.916L182.41 581.928L183.36 582.24ZM166.8 609.6L166.109 608.877L166.101 608.885L166.8 609.6ZM140.16 625.2L140.45 626.157L140.463 626.153L140.16 625.2ZM16.8 630H15.8V631H16.8V630ZM16.8 462V461H15.8V462H16.8ZM114.48 462.96L114.397 463.957L114.399 463.957L114.48 462.96ZM137.04 466.8L136.782 467.766L136.782 467.766L137.04 466.8ZM157.2 474.96L156.709 475.831L156.718 475.836L157.2 474.96ZM173.76 488.88L172.981 489.507L172.986 489.514L172.992 489.52L173.76 488.88ZM185.04 510.24L184.088 510.545L184.09 510.551L185.04 510.24ZM40.32 608.88H39.32V609.88H40.32V608.88ZM131.04 604.32L130.719 603.373L130.719 603.373L131.04 604.32ZM151.68 591.36L150.922 590.707L150.921 590.709L151.68 591.36ZM161.52 570.72L160.542 570.509L160.541 570.517L160.539 570.524L161.52 570.72ZM160.32 516.24L161.267 515.918L161.267 515.918L160.32 516.24ZM147.84 497.76L147.177 498.509L147.188 498.519L147.2 498.528L147.84 497.76ZM125.76 486.96L125.501 487.926L125.511 487.929L125.521 487.931L125.76 486.96ZM92.88 483.12L92.8924 482.12H92.88V483.12ZM40.32 483.12V482.12H39.32V483.12H40.32ZM188.12 541.44C188.12 557.366 186.208 570.85 182.414 581.916L184.306 582.564C188.192 571.23 190.12 557.514 190.12 541.44H188.12ZM182.41 581.928C178.773 592.997 173.333 601.968 166.109 608.877L167.491 610.323C174.987 603.152 180.587 593.883 184.31 582.552L182.41 581.928ZM166.101 608.885C159.023 615.805 150.283 620.93 139.857 624.247L140.463 626.153C151.157 622.75 160.177 617.475 167.499 610.315L166.101 608.885ZM139.87 624.243C129.423 627.409 117.444 629 103.92 629V631C117.596 631 129.777 629.391 140.45 626.157L139.87 624.243ZM103.92 629H16.8V631H103.92V629ZM17.8 630V462H15.8V630H17.8ZM16.8 463H91.68V461H16.8V463ZM91.68 463C99.1716 463 106.744 463.319 114.397 463.957L114.563 461.963C106.856 461.321 99.2284 461 91.68 461V463ZM114.399 463.957C122.182 464.592 129.643 465.862 136.782 467.766L137.298 465.834C130.037 463.898 122.458 462.608 114.561 461.963L114.399 463.957ZM136.782 467.766C143.904 469.665 150.545 472.354 156.709 475.831L157.691 474.089C151.375 470.526 144.576 467.775 137.298 465.834L136.782 467.766ZM156.718 475.836C163.002 479.293 168.422 483.848 172.981 489.507L174.539 488.253C169.818 482.392 164.198 477.667 157.682 474.084L156.718 475.836ZM172.992 489.52C177.696 495.165 181.4 502.165 184.088 510.545L185.992 509.935C183.24 501.355 179.424 494.115 174.528 488.24L172.992 489.52ZM184.09 510.551C186.768 518.743 188.12 528.633 188.12 540.24H190.12C190.12 528.487 188.752 518.377 185.991 509.929L184.09 510.551ZM188.12 540.24V541.44H190.12V540.24H188.12ZM40.32 609.88H95.76V607.88H40.32V609.88ZM95.76 609.88C110.377 609.88 122.258 608.356 131.361 605.267L130.719 603.373C121.902 606.364 110.263 607.88 95.76 607.88V609.88ZM131.361 605.267C140.444 602.185 147.494 597.78 152.439 592.011L150.921 590.709C146.266 596.14 139.556 600.375 130.719 603.373L131.361 605.267ZM152.438 592.013C157.518 586.113 160.869 579.072 162.501 570.916L160.539 570.524C158.971 578.368 155.762 585.087 150.922 590.707L152.438 592.013ZM162.498 570.931C164.275 562.689 165.16 553.497 165.16 543.36H163.16C163.16 553.383 162.285 562.431 160.542 570.509L162.498 570.931ZM165.16 543.36C165.16 532.724 163.871 523.569 161.267 515.918L159.373 516.562C161.889 523.951 163.16 532.876 163.16 543.36H165.16ZM161.267 515.918C158.651 508.235 154.39 501.917 148.48 496.992L147.2 498.528C152.81 503.203 156.869 509.205 159.373 516.562L161.267 515.918ZM148.503 497.011C142.755 491.92 135.237 488.258 125.999 485.989L125.521 487.931C134.523 490.142 141.725 493.68 147.177 498.509L148.503 497.011ZM126.019 485.994C116.954 483.566 105.905 482.281 92.8924 482.12L92.8677 484.12C105.775 484.279 116.646 485.554 125.501 487.926L126.019 485.994ZM92.88 482.12H40.32V484.12H92.88V482.12ZM39.32 483.12V608.88H41.32V483.12H39.32ZM356.966 566.16L357.966 566.174V566.16H356.966ZM350.966 596.88L350.05 596.48L350.046 596.488L350.966 596.88ZM335.126 618.48L334.484 617.713L334.475 617.721L335.126 618.48ZM310.886 631.44L310.594 630.484L310.59 630.485L310.886 631.44ZM248.726 631.44L249.023 630.485L249.015 630.483L249.008 630.48L248.726 631.44ZM224.726 618.72L224.066 619.471L224.075 619.479L224.726 618.72ZM209.366 596.88L210.289 596.494L209.366 596.88ZM203.606 565.92H202.606L202.606 565.934L203.606 565.92ZM209.126 534.96L210.049 535.346L210.051 535.34L209.126 534.96ZM224.486 512.88L225.146 513.631L225.147 513.63L224.486 512.88ZM248.486 499.68L248.783 500.635L248.793 500.632L248.486 499.68ZM311.126 499.44L310.834 500.396L311.126 499.44ZM335.366 512.64L334.705 513.39L334.715 513.399L334.724 513.407L335.366 512.64ZM351.206 534.72L350.281 535.1L350.284 535.107L350.287 535.114L351.206 534.72ZM226.406 565.44L225.406 565.422L225.406 565.44L225.406 565.459L226.406 565.44ZM240.566 603.6L239.899 604.345L239.906 604.351L239.913 604.357L240.566 603.6ZM319.526 603.6L318.88 602.837L318.88 602.837L319.526 603.6ZM334.166 565.44L335.166 565.458L335.166 565.44L335.166 565.422L334.166 565.44ZM319.286 527.28L318.639 528.042L318.646 528.048L319.286 527.28ZM240.326 527.28L240.992 528.026L240.993 528.025L240.326 527.28ZM355.966 566.146C355.808 577.721 353.826 587.825 350.05 596.48L351.883 597.28C355.786 588.335 357.805 577.959 357.966 566.174L355.966 566.146ZM350.046 596.488C346.425 604.99 341.238 612.059 334.484 617.713L335.768 619.247C342.775 613.381 348.147 606.05 351.886 597.272L350.046 596.488ZM334.475 617.721C327.872 623.381 319.918 627.639 310.594 630.484L311.178 632.396C320.735 629.481 328.941 625.099 335.777 619.239L334.475 617.721ZM310.59 630.485C301.42 633.331 291.202 634.76 279.926 634.76V636.76C291.37 636.76 301.792 635.309 311.183 632.395L310.59 630.485ZM279.926 634.76C268.489 634.76 258.191 633.33 249.023 630.485L248.43 632.395C257.822 635.31 268.324 636.76 279.926 636.76V634.76ZM249.008 630.48C239.851 627.796 231.98 623.62 225.377 617.961L224.075 619.479C230.913 625.34 239.042 629.644 248.445 632.4L249.008 630.48ZM225.386 617.969C218.951 612.318 213.916 605.167 210.289 596.494L208.444 597.266C212.177 606.193 217.382 613.602 224.066 619.471L225.386 617.969ZM210.289 596.494C206.669 587.837 204.765 577.648 204.606 565.906L202.606 565.934C202.768 577.872 204.704 588.323 208.444 597.266L210.289 596.494ZM204.606 565.92C204.606 554.182 206.431 543.998 210.049 535.346L208.204 534.574C204.462 543.522 202.606 553.978 202.606 565.92H204.606ZM210.051 535.34C213.679 526.507 218.714 519.279 225.146 513.631L223.826 512.129C217.138 518.001 211.933 525.493 208.201 534.58L210.051 535.34ZM225.147 513.63C231.753 507.811 239.626 503.477 248.783 500.635L248.19 498.725C238.787 501.643 230.66 506.109 223.825 512.13L225.147 513.63ZM248.793 500.632C258.121 497.628 268.415 496.12 279.686 496.12V494.12C268.237 494.12 257.732 495.652 248.18 498.728L248.793 500.632ZM279.686 496.12C291.123 496.12 301.503 497.55 310.834 500.396L311.418 498.484C301.869 495.57 291.289 494.12 279.686 494.12V496.12ZM310.834 500.396C320.152 503.239 328.103 507.574 334.705 513.39L336.027 511.89C329.19 505.866 320.98 501.401 311.418 498.484L310.834 500.396ZM334.724 513.407C341.47 519.055 346.658 526.278 350.281 535.1L352.131 534.34C348.395 525.242 343.022 517.745 336.008 511.873L334.724 513.407ZM350.287 535.114C354.063 543.924 355.966 554.265 355.966 566.16H357.966C357.966 554.055 356.03 543.436 352.125 534.326L350.287 535.114ZM225.406 565.459C225.729 582.899 230.499 595.934 239.899 604.345L241.233 602.855C232.394 594.946 227.723 582.541 227.406 565.421L225.406 565.459ZM239.913 604.357C249.434 612.565 262.818 616.6 279.926 616.6V614.6C263.114 614.6 250.258 610.635 241.219 602.843L239.913 604.357ZM279.926 616.6C297.035 616.6 310.495 612.564 320.173 604.363L318.88 602.837C309.678 610.636 296.737 614.6 279.926 614.6V616.6ZM320.173 604.363C329.91 596.111 334.843 583.064 335.166 565.458L333.166 565.422C332.849 582.696 328.022 595.089 318.88 602.837L320.173 604.363ZM335.166 565.422C334.843 547.811 329.827 534.763 319.926 526.512L318.646 528.048C327.945 535.797 332.85 548.189 333.166 565.458L335.166 565.422ZM319.934 526.518C310.099 518.158 296.561 514.04 279.446 514.04V516.04C296.252 516.04 309.274 520.082 318.639 528.042L319.934 526.518ZM279.446 514.04C262.335 514.04 249.023 518.157 239.659 526.535L240.993 528.025C249.869 520.083 262.637 516.04 279.446 516.04V514.04ZM239.66 526.534C230.413 534.79 225.729 547.831 225.406 565.422L227.406 565.458C227.723 548.169 232.319 535.77 240.992 528.026L239.66 526.534ZM520.693 629.76L520.704 630.76L521.693 630.749V629.76H520.693ZM498.613 630H497.613V631.011L498.624 631L498.613 630ZM497.893 546.96L496.895 547.022L496.896 547.038L496.898 547.053L497.893 546.96ZM493.573 532.56L494.441 532.064L494.441 532.064L493.573 532.56ZM481.813 521.28L481.295 522.135L481.304 522.141L481.314 522.147L481.813 521.28ZM436.933 519.12L437.165 520.093L437.176 520.09L437.186 520.087L436.933 519.12ZM419.413 527.76L418.771 526.994L418.764 526.999L418.758 527.004L419.413 527.76ZM407.893 545.04L406.962 544.676L406.958 544.684L406.955 544.693L407.893 545.04ZM403.573 573.12L402.573 573.106V573.12H403.573ZM403.573 629.76V630.76H404.573V629.76H403.573ZM381.253 629.76H380.253V630.76H381.253V629.76ZM381.253 502.56L381.264 501.56L380.253 501.549V502.56H381.253ZM403.573 502.8L404.561 502.952L404.737 501.812L403.584 501.8L403.573 502.8ZM401.173 518.4L400.185 518.248L399.662 521.646L401.926 519.058L401.173 518.4ZM426.133 501.6L426.468 502.542L426.476 502.539L426.133 501.6ZM484.693 499.68L484.383 500.631L484.389 500.633L484.693 499.68ZM503.893 510.48L503.22 511.22L503.232 511.231L503.244 511.241L503.893 510.48ZM516.373 528.24L517.302 527.869L517.302 527.869L516.373 528.24ZM520.682 628.76L498.602 629L498.624 631L520.704 630.76L520.682 628.76ZM499.613 630V560.88H497.613V630H499.613ZM499.613 560.88C499.613 556.683 499.371 552.011 498.889 546.867L496.898 547.053C497.375 552.149 497.613 556.757 497.613 560.88H499.613ZM498.891 546.898C498.562 541.624 497.077 536.676 494.441 532.064L492.705 533.056C495.189 537.404 496.585 542.056 496.895 547.022L498.891 546.898ZM494.441 532.064C491.779 527.404 487.718 523.526 482.312 520.413L481.314 522.147C486.468 525.114 490.248 528.756 492.705 533.056L494.441 532.064ZM482.331 520.425C476.827 517.089 469.016 515.48 459.013 515.48V517.48C468.851 517.48 476.239 519.071 481.295 522.135L482.331 520.425ZM459.013 515.48C450.94 515.48 443.494 516.368 436.68 518.153L437.186 520.087C443.812 518.352 451.086 517.48 459.013 517.48V515.48ZM436.702 518.147C429.841 519.781 423.858 522.727 418.771 526.994L420.056 528.526C424.889 524.473 430.586 521.659 437.165 520.093L436.702 518.147ZM418.758 527.004C413.809 531.293 409.887 537.201 406.962 544.676L408.824 545.404C411.659 538.159 415.417 532.547 420.068 528.516L418.758 527.004ZM406.955 544.693C404.182 552.196 402.734 561.679 402.573 573.106L404.573 573.134C404.732 561.841 406.164 552.604 408.831 545.387L406.955 544.693ZM402.573 573.12V629.76H404.573V573.12H402.573ZM403.573 628.76H381.253V630.76H403.573V628.76ZM382.253 629.76V502.56H380.253V629.76H382.253ZM381.242 503.56L403.562 503.8L403.584 501.8L381.264 501.56L381.242 503.56ZM402.585 502.648L400.185 518.248L402.161 518.552L404.561 502.952L402.585 502.648ZM401.926 519.058C408.529 511.512 416.704 506.007 426.468 502.542L425.799 500.658C415.723 504.233 407.257 509.928 400.421 517.741L401.926 519.058ZM426.476 502.539C436.43 498.905 447.591 497.08 459.973 497.08V495.08C447.395 495.08 435.996 496.935 425.79 500.661L426.476 502.539ZM459.973 497.08C469.006 497.08 477.139 498.269 484.383 500.631L485.003 498.729C477.527 496.291 469.18 495.08 459.973 495.08V497.08ZM484.389 500.633C491.787 502.994 498.057 506.526 503.22 511.22L504.566 509.74C499.169 504.834 492.639 501.166 484.997 498.727L484.389 500.633ZM503.244 511.241C508.551 515.767 512.62 521.549 515.445 528.611L517.302 527.869C514.367 520.531 510.116 514.473 504.542 509.719L503.244 511.241ZM515.445 528.611C518.268 535.669 519.693 543.938 519.693 553.44H521.693C521.693 543.742 520.239 535.211 517.302 527.869L515.445 528.611ZM519.693 553.44V629.76H521.693V553.44H519.693ZM656.038 594.48L657.038 594.492V594.48H656.038ZM643.318 625.44L642.672 624.677L642.665 624.683L643.318 625.44ZM562.918 625.44L562.278 626.208L562.286 626.215L562.918 625.44ZM549.478 592.8H548.478V592.811L548.478 592.822L549.478 592.8ZM562.678 561.36L563.285 562.155L563.294 562.148L562.678 561.36ZM673.078 551.04V552.04H674.198L674.072 550.927L673.078 551.04ZM667.078 533.76L666.255 534.328L666.26 534.335L666.264 534.341L667.078 533.76ZM655.798 522.96L655.265 523.806L655.277 523.813L655.288 523.82L655.798 522.96ZM641.638 517.44L641.418 518.415L641.436 518.419L641.454 518.423L641.638 517.44ZM611.878 516.72L611.741 515.729L611.741 515.729L611.878 516.72ZM598.438 520.32L598.785 521.258L598.801 521.252L598.815 521.246L598.438 520.32ZM586.678 527.04L586.045 526.266L586.045 526.266L586.678 527.04ZM578.758 538.32V539.32H579.448L579.693 538.675L578.758 538.32ZM555.238 538.32L554.246 538.193L554.102 539.32H555.238V538.32ZM561.958 521.28L561.158 520.68L561.152 520.688L561.146 520.696L561.958 521.28ZM576.838 508.08L577.356 508.936L577.362 508.932L576.838 508.08ZM598.198 499.2L597.951 498.231L597.946 498.232L598.198 499.2ZM657.958 500.4L657.647 501.35L657.958 500.4ZM679.558 513.6L680.285 512.913L680.285 512.913L679.558 513.6ZM691.798 536.16L692.761 535.89L692.761 535.89L691.798 536.16ZM695.878 568.56H696.878L696.878 568.547L695.878 568.56ZM695.878 630V631H696.878V630H695.878ZM673.558 630H672.558V631H673.558V630ZM673.558 570.24H674.558V569.25L673.568 569.24L673.558 570.24ZM648.838 570L648.848 569L646.853 568.981L648.031 570.591L648.838 570ZM571.798 592.8L570.798 592.78L570.798 592.8L570.798 592.821L571.798 592.8ZM578.518 610.32L577.839 611.054L577.846 611.061L577.854 611.067L578.518 610.32ZM627.958 610.32L628.622 611.067L628.622 611.067L627.958 610.32ZM634.918 592.8L635.917 592.841L635.919 592.8L635.917 592.759L634.918 592.8ZM628.198 575.52L627.536 576.269L627.536 576.269L628.198 575.52ZM578.518 575.52L577.87 574.759L577.87 574.759L578.518 575.52ZM655.038 594.468C654.881 607.856 650.718 617.869 642.672 624.677L643.964 626.203C652.559 618.931 656.876 608.304 657.038 594.492L655.038 594.468ZM642.665 624.683C634.754 631.508 623.105 635 607.558 635V637C623.371 637 635.563 633.452 643.971 626.197L642.665 624.683ZM607.558 635H599.398V637H607.558V635ZM599.398 635C583.856 635 571.951 631.51 563.55 624.665L562.286 626.215C571.165 633.45 583.58 637 599.398 637V635ZM563.558 624.672C555.202 617.708 550.794 607.14 550.478 592.778L548.478 592.822C548.803 607.58 553.354 618.772 562.278 626.208L563.558 624.672ZM550.478 592.8C550.478 578.774 554.801 568.633 563.285 562.155L562.071 560.565C552.955 567.527 548.478 578.346 548.478 592.8H550.478ZM563.294 562.148C571.859 555.451 583.853 552.04 599.398 552.04V550.04C583.583 550.04 571.097 553.509 562.062 560.572L563.294 562.148ZM599.398 552.04H673.078V550.04H599.398V552.04ZM674.072 550.927C673.258 543.765 671.215 537.831 667.892 533.179L666.264 534.341C669.341 538.649 671.298 544.234 672.085 551.153L674.072 550.927ZM667.901 533.192C664.629 528.448 660.767 524.742 656.308 522.1L655.288 523.82C659.469 526.298 663.127 529.792 666.255 534.328L667.901 533.192ZM656.331 522.114C651.902 519.325 647.064 517.44 641.822 516.457L641.454 518.423C646.453 519.36 651.054 521.155 655.265 523.806L656.331 522.114ZM641.858 516.465C636.838 515.331 632.124 514.76 627.718 514.76V516.76C631.952 516.76 636.518 517.309 641.418 518.415L641.858 516.465ZM627.718 514.76H625.318V516.76H627.718V514.76ZM625.318 514.76C620.949 514.76 616.423 515.084 611.741 515.729L612.015 517.711C616.613 517.076 621.047 516.76 625.318 516.76V514.76ZM611.741 515.729C607.019 516.381 602.458 517.602 598.061 519.394L598.815 521.246C603.058 519.518 607.457 518.339 612.015 517.711L611.741 515.729ZM598.091 519.382C593.668 521.02 589.652 523.315 586.045 526.266L587.311 527.814C590.745 525.005 594.568 522.82 598.785 521.258L598.091 519.382ZM586.045 526.266C582.377 529.267 579.639 533.177 577.823 537.965L579.693 538.675C581.397 534.183 583.939 530.573 587.311 527.814L586.045 526.266ZM578.758 537.32H555.238V539.32H578.758V537.32ZM556.23 538.447C557.009 532.372 559.187 526.849 562.77 521.864L561.146 520.696C557.369 525.951 555.067 531.788 554.246 538.193L556.23 538.447ZM562.758 521.88C566.513 516.873 571.373 512.557 577.356 508.935L576.32 507.224C570.143 510.963 565.083 515.447 561.158 520.68L562.758 521.88ZM577.362 508.932C583.508 505.15 590.534 502.226 598.45 500.168L597.946 498.232C589.863 500.334 582.649 503.33 576.314 507.228L577.362 508.932ZM598.445 500.169C606.518 498.111 615.075 497.08 624.118 497.08V495.08C614.922 495.08 606.198 496.129 597.951 498.231L598.445 500.169ZM624.118 497.08H626.038V495.08H624.118V497.08ZM626.038 497.08C638.447 497.08 648.976 498.512 657.647 501.35L658.269 499.45C649.341 496.528 638.59 495.08 626.038 495.08V497.08ZM657.647 501.35C666.311 504.186 673.361 508.504 678.832 514.287L680.285 512.913C674.555 506.856 667.206 502.374 658.269 499.45L657.647 501.35ZM678.832 514.287C684.303 520.072 688.312 527.441 690.835 536.43L692.761 535.89C690.164 526.639 686.013 518.968 680.285 512.913L678.832 514.287ZM690.835 536.43C693.366 545.445 694.719 556.154 694.878 568.573L696.878 568.547C696.717 556.006 695.351 545.115 692.761 535.89L690.835 536.43ZM694.878 568.56V630H696.878V568.56H694.878ZM695.878 629H673.558V631H695.878V629ZM674.558 630V570.24H672.558V630H674.558ZM673.568 569.24L648.848 569L648.828 571L673.548 571.24L673.568 569.24ZM648.031 570.591C652.682 576.947 655.038 584.889 655.038 594.48H657.038C657.038 584.551 654.594 576.173 649.645 569.409L648.031 570.591ZM570.798 592.821C570.962 600.686 573.264 606.818 577.839 611.054L579.198 609.586C575.132 605.822 572.954 600.274 572.798 592.779L570.798 592.821ZM577.854 611.067C582.445 615.148 589.704 617.08 599.398 617.08V615.08C589.892 615.08 583.232 613.172 579.182 609.573L577.854 611.067ZM599.398 617.08H607.558V615.08H599.398V617.08ZM607.558 617.08C616.943 617.08 624.036 615.144 628.622 611.067L627.294 609.573C623.24 613.176 616.733 615.08 607.558 615.08V617.08ZM628.622 611.067C633.21 606.99 635.59 600.852 635.917 592.841L633.919 592.759C633.606 600.428 631.347 605.97 627.294 609.573L628.622 611.067ZM635.917 592.759C635.591 584.761 633.297 578.695 628.861 574.771L627.536 576.269C631.419 579.705 633.605 585.159 633.919 592.841L635.917 592.759ZM628.861 574.771C624.425 570.847 617.24 569 607.558 569V571C617.077 571 623.652 572.833 627.536 576.269L628.861 574.771ZM607.558 569H599.398V571H607.558V569ZM599.398 569C589.711 569 582.459 570.849 577.87 574.759L579.167 576.281C583.217 572.831 589.885 571 599.398 571V569ZM577.87 574.759C573.258 578.687 570.962 584.767 570.798 592.78L572.798 592.82C572.954 585.153 575.138 579.713 579.167 576.281L577.87 574.759ZM797.638 629.52L797.651 630.52L798.627 630.507L798.638 629.532L797.638 629.52ZM769.558 626.64L769.854 625.685L769.558 626.64ZM754.438 615.6L753.576 616.107L753.585 616.122L753.594 616.137L754.438 615.6ZM748.438 593.28L747.44 593.347L747.441 593.355L747.442 593.364L748.438 593.28ZM747.478 522.72H748.478V521.72H747.478V522.72ZM724.678 522.72H723.678V523.72H724.678V522.72ZM724.678 503.04V502.04H723.678V503.04H724.678ZM747.718 503.04V504.04H748.718V503.04H747.718ZM747.718 474.96V473.96H746.718V474.96H747.718ZM770.038 474.96L771.028 475.104L771.194 473.96H770.038V474.96ZM765.958 503.04L764.969 502.896L764.802 504.04H765.958V503.04ZM807.718 503.04H808.718V502.04H807.718V503.04ZM807.718 522.72V523.72H808.718V522.72H807.718ZM770.038 522.72V521.72H769.045L769.038 522.713L770.038 522.72ZM769.798 556.8L768.798 556.793V556.8H769.798ZM770.278 586.32L769.279 586.365L769.28 586.377L769.28 586.388L770.278 586.32ZM773.638 601.92L772.752 602.384L772.761 602.4L772.77 602.416L773.638 601.92ZM782.038 607.92L781.867 608.905L781.874 608.906L782.038 607.92ZM797.878 608.88L798.878 608.892L798.89 607.88H797.878V608.88ZM797.625 628.52C785.667 628.68 776.428 627.719 769.854 625.685L769.262 627.595C776.129 629.721 785.61 630.68 797.651 630.52L797.625 628.52ZM769.854 625.685C763.33 623.666 758.499 620.118 755.282 615.063L753.594 616.137C757.098 621.642 762.346 625.454 769.262 627.595L769.854 625.685ZM755.3 615.093C752.204 609.83 750.228 602.555 749.435 593.196L747.442 593.364C748.249 602.885 750.272 610.49 753.576 616.107L755.3 615.093ZM749.436 593.213C748.798 583.644 748.478 571.508 748.478 556.8H746.478C746.478 571.532 746.798 583.716 747.44 593.347L749.436 593.213ZM748.478 556.8V522.72H746.478V556.8H748.478ZM747.478 521.72H724.678V523.72H747.478V521.72ZM725.678 522.72V503.04H723.678V522.72H725.678ZM724.678 504.04H747.718V502.04H724.678V504.04ZM748.718 503.04V474.96H746.718V503.04H748.718ZM747.718 475.96H770.038V473.96H747.718V475.96ZM769.049 474.816L764.969 502.896L766.948 503.184L771.028 475.104L769.049 474.816ZM765.958 504.04H807.718V502.04H765.958V504.04ZM806.718 503.04V522.72H808.718V503.04H806.718ZM807.718 521.72H770.038V523.72H807.718V521.72ZM769.038 522.713L768.798 556.793L770.798 556.807L771.038 522.727L769.038 522.713ZM768.798 556.8C768.798 569.445 768.958 579.303 769.279 586.365L771.277 586.275C770.958 579.257 770.798 569.435 770.798 556.8H768.798ZM769.28 586.388C769.763 593.468 770.894 598.836 772.752 602.384L774.524 601.456C772.862 598.284 771.753 593.252 771.276 586.252L769.28 586.388ZM772.77 602.416C774.832 606.024 777.881 608.212 781.867 608.905L782.209 606.935C778.835 606.348 776.285 604.536 774.506 601.424L772.77 602.416ZM781.874 608.906C785.793 609.56 791.136 609.88 797.878 609.88V607.88C791.18 607.88 785.963 607.56 782.203 606.934L781.874 608.906ZM796.878 608.868L796.638 629.508L798.638 629.532L798.878 608.892L796.878 608.868ZM978.546 593.76L979.49 594.089L979.949 592.774L978.556 592.76L978.546 593.76ZM951.186 625.2L950.713 624.319L950.704 624.324L951.186 625.2ZM929.586 633.12L929.8 634.097L929.8 634.097L929.586 633.12ZM872.946 631.44L873.237 630.484L873.23 630.481L873.222 630.479L872.946 631.44ZM848.466 618.72L847.815 619.479L847.824 619.487L848.466 618.72ZM832.626 596.88L831.703 597.266L831.706 597.273L831.709 597.28L832.626 596.88ZM826.866 565.92H825.866L825.866 565.934L826.866 565.92ZM832.626 534.96L831.712 534.552L831.709 534.56L832.626 534.96ZM848.946 512.88L849.588 513.647L849.589 513.645L848.946 512.88ZM873.906 499.68L874.193 500.638L874.2 500.636L874.208 500.633L873.906 499.68ZM939.666 500.64L939.313 501.576L939.318 501.578L939.666 500.64ZM963.906 516.48L963.165 517.152L963.173 517.161L963.181 517.17L963.906 516.48ZM979.746 572.88V573.88H980.642L980.74 572.989L979.746 572.88ZM850.146 572.88V571.88H849.017L849.153 573L850.146 572.88ZM866.706 605.28L866.101 606.077L866.108 606.082L866.706 605.28ZM934.866 610.56L935.237 611.488L935.244 611.486L935.251 611.483L934.866 610.56ZM954.306 593.52L954.316 592.52L953.713 592.514L953.426 593.044L954.306 593.52ZM868.866 524.64L869.404 525.483L869.408 525.48L868.866 524.64ZM850.866 553.68L849.88 553.512L849.68 554.68H850.866V553.68ZM957.426 553.68V554.68H958.452L958.425 553.654L957.426 553.68ZM952.866 537.36L951.996 537.853L952.002 537.864L952.008 537.874L952.866 537.36ZM941.826 525.36L941.239 526.17L941.248 526.177L941.258 526.183L941.826 525.36ZM925.506 517.68L925.777 516.718L925.777 516.718L925.506 517.68ZM977.601 593.431C975.242 600.194 971.786 606.16 967.234 611.34L968.737 612.66C973.465 607.28 977.049 601.086 979.49 594.089L977.601 593.431ZM967.234 611.34C962.678 616.525 957.174 620.852 950.713 624.319L951.658 626.081C958.317 622.508 964.013 618.035 968.737 612.66L967.234 611.34ZM950.704 624.324C944.397 627.793 937.289 630.401 929.371 632.143L929.8 634.097C937.883 632.319 945.174 629.647 951.668 626.076L950.704 624.324ZM929.371 632.143C921.446 633.887 913.119 634.76 904.386 634.76V636.76C913.253 636.76 921.725 635.873 929.8 634.097L929.371 632.143ZM904.386 634.76C892.948 634.76 882.569 633.33 873.237 630.484L872.654 632.396C882.203 635.31 892.783 636.76 904.386 636.76V634.76ZM873.222 630.479C863.904 627.794 855.871 623.616 849.108 617.953L847.824 619.487C854.82 625.344 863.108 629.646 872.669 632.401L873.222 630.479ZM849.116 617.961C842.52 612.307 837.327 605.154 833.542 596.48L831.709 597.28C835.604 606.206 840.971 613.613 847.815 619.479L849.116 617.961ZM833.548 596.494C829.928 587.837 828.024 577.648 827.866 565.906L825.866 565.934C826.027 577.872 827.963 588.323 831.703 597.266L833.548 596.494ZM827.866 565.92C827.866 554.186 829.768 544.008 833.542 535.36L831.709 534.56C827.803 543.512 825.866 553.974 825.866 565.92H827.866ZM833.539 535.368C837.483 526.533 842.835 519.3 849.588 513.647L848.304 512.113C841.297 517.98 835.769 525.467 831.712 534.552L833.539 535.368ZM849.589 513.645C856.516 507.821 864.712 503.482 874.193 500.638L873.618 498.722C863.899 501.638 855.455 506.099 848.302 512.115L849.589 513.645ZM874.208 500.633C883.698 497.628 894.075 496.12 905.346 496.12V494.12C893.896 494.12 883.313 495.652 873.604 498.727L874.208 500.633ZM905.346 496.12C918.375 496.12 929.69 497.948 939.313 501.576L940.018 499.704C930.121 495.972 918.556 494.12 905.346 494.12V496.12ZM939.318 501.578C949.109 505.21 957.047 510.406 963.165 517.152L964.646 515.808C958.284 508.794 950.063 503.43 940.013 499.702L939.318 501.578ZM963.181 517.17C969.461 523.763 973.944 531.777 976.624 541.233L978.548 540.687C975.787 530.943 971.15 522.637 964.63 515.79L963.181 517.17ZM976.624 541.233C979.303 550.689 980.02 561.197 978.752 572.771L980.74 572.989C982.031 561.203 981.309 550.431 978.548 540.687L976.624 541.233ZM979.746 571.88H850.146V573.88H979.746V571.88ZM849.153 573C850.936 587.755 856.553 598.833 866.101 606.077L867.31 604.483C858.299 597.647 852.875 587.125 851.138 572.76L849.153 573ZM866.108 606.082C875.77 613.287 888.561 616.84 904.386 616.84V614.84C888.85 614.84 876.521 611.353 867.303 604.478L866.108 606.082ZM904.386 616.84C916.006 616.84 926.296 615.065 935.237 611.488L934.494 609.632C925.835 613.095 915.805 614.84 904.386 614.84V616.84ZM935.251 611.483C944.241 607.723 950.906 601.896 955.185 593.996L953.426 593.044C949.385 600.504 943.09 606.037 934.48 609.637L935.251 611.483ZM954.296 594.52L978.536 594.76L978.556 592.76L954.316 592.52L954.296 594.52ZM905.826 514.04C890.961 514.04 878.441 517.272 868.323 523.8L869.408 525.48C879.13 519.208 891.25 516.04 905.826 516.04V514.04ZM868.327 523.797C858.293 530.212 852.16 540.16 849.88 553.512L851.851 553.848C854.052 540.96 859.918 531.548 869.404 525.483L868.327 523.797ZM850.866 554.68H957.426V552.68H850.866V554.68ZM958.425 553.654C958.261 547.417 956.699 541.806 953.723 536.846L952.008 537.874C954.792 542.514 956.27 547.783 956.426 553.706L958.425 553.654ZM953.736 536.867C950.939 531.933 947.155 527.821 942.393 524.537L941.258 526.183C945.776 529.299 949.352 533.187 951.996 537.853L953.736 536.867ZM942.412 524.55C937.665 521.113 932.115 518.505 925.777 516.718L925.234 518.642C931.376 520.375 936.706 522.887 941.239 526.17L942.412 524.55ZM925.777 516.718C919.444 514.931 912.792 514.04 905.826 514.04V516.04C912.619 516.04 919.088 516.909 925.234 518.642L925.777 516.718Z" fill="#0F0F0F"/>
<path opacity="0.1" d="M178.539 155.56L177.635 155.131L177.631 155.141L178.539 155.56ZM163.899 171.88L164.444 172.718L164.451 172.714L164.458 172.709L163.899 171.88ZM136.539 182.44L136.319 181.464L136.316 181.465L136.539 182.44ZM53.2588 180.52L52.917 181.46L52.9215 181.461L53.2588 180.52ZM28.0588 165.88L27.3516 166.587L27.3609 166.596L27.3705 166.605L28.0588 165.88ZM14.8588 145.96L13.9143 146.289L13.9186 146.301L13.9233 146.313L14.8588 145.96ZM10.0588 124.36V123.36H8.96372L9.06286 124.451L10.0588 124.36ZM35.4987 124.36L36.496 124.286L36.4274 123.36H35.4987V124.36ZM51.8188 154.6L51.2314 155.409L51.2387 155.415L51.2462 155.42L51.8188 154.6ZM141.339 158.44L141.71 159.369L141.717 159.366L141.339 158.44ZM158.619 136.36L159.619 136.376L158.619 136.36ZM143.739 114.76L144.133 113.841L144.133 113.841L143.739 114.76ZM96.6988 106.36L96.7588 105.362L96.7458 105.361L96.7328 105.361L96.6988 106.36ZM59.9788 103.48L59.8395 104.47L59.8416 104.471L59.9788 103.48ZM34.5388 96.28L34.986 95.3856L34.986 95.3856L34.5388 96.28ZM19.6588 82.6L20.5329 82.1144L20.5329 82.1144L19.6588 82.6ZM19.6588 40.36L18.7689 39.9037L18.7689 39.9037L19.6588 40.36ZM34.7788 24.04L35.3379 24.8691L35.3421 24.8662L34.7788 24.04ZM61.6588 12.76L61.9013 13.7302L61.9146 13.7267L61.6588 12.76ZM141.099 13.96L140.761 14.9011L140.765 14.9027L141.099 13.96ZM165.579 28.12L164.881 28.8368L164.891 28.8459L165.579 28.12ZM178.299 47.56L177.35 47.8762L177.353 47.8856L177.357 47.895L178.299 47.56ZM183.099 68.92V69.92H184.194L184.095 68.8295L183.099 68.92ZM157.659 68.92L156.662 69.0048L156.74 69.92H157.659V68.92ZM152.139 50.2L151.279 50.7106L151.286 50.7226L152.139 50.2ZM139.899 37.96L139.376 38.8127L139.388 38.8199L139.899 37.96ZM75.3388 31.24L75.1914 30.2509L75.1883 30.2514L75.3388 31.24ZM56.1388 36.52L56.5293 37.4406L56.5359 37.4378L56.5424 37.4349L56.1388 36.52ZM43.6588 45.4L42.8878 44.7631L42.8848 44.7668L43.6588 45.4ZM42.6988 70.84L41.8667 71.3947L41.8821 71.4178L41.8988 71.44L42.6988 70.84ZM53.7388 78.76L53.352 79.6822L53.3648 79.6876L53.3778 79.6926L53.7388 78.76ZM72.6988 83.32L72.5544 84.3095L72.5658 84.3112L72.5772 84.3126L72.6988 83.32ZM100.299 85.72L100.238 86.7182L100.244 86.7185L100.299 85.72ZM137.979 89.8L137.797 90.7834L137.805 90.7847L137.812 90.786L137.979 89.8ZM178.299 112.36L177.409 112.817L177.414 112.826L177.419 112.836L178.299 112.36ZM182.099 134.68C182.099 142.061 180.608 148.873 177.635 155.131L179.442 155.989C182.55 149.447 184.099 142.339 184.099 134.68H182.099ZM177.631 155.141C174.842 161.183 170.1 166.492 163.34 171.051L164.458 172.709C171.458 167.988 176.476 162.416 179.447 155.979L177.631 155.141ZM163.353 171.042C156.605 175.436 147.608 178.921 136.319 181.464L136.759 183.416C148.19 180.839 157.433 177.284 164.444 172.718L163.353 171.042ZM136.316 181.465C125.214 184.003 111.295 185.28 94.5388 185.28V187.28C111.383 187.28 125.463 185.997 136.762 183.415L136.316 181.465ZM94.5388 185.28C77.8042 185.28 64.1694 183.366 53.596 179.579L52.9215 181.461C63.7881 185.354 77.6733 187.28 94.5388 187.28V185.28ZM53.6005 179.58C43.1318 175.773 34.862 170.956 28.747 165.155L27.3705 166.605C33.7355 172.644 42.2657 177.587 52.917 181.46L53.6005 179.58ZM28.7659 165.173C22.7744 159.181 18.4585 152.659 15.7942 145.607L13.9233 146.313C16.699 153.661 21.1831 160.419 27.3516 166.587L28.7659 165.173ZM15.8032 145.631C13.2673 138.341 11.6866 131.221 11.0546 124.269L9.06286 124.451C9.71094 131.579 11.3302 138.859 13.9143 146.289L15.8032 145.631ZM10.0588 125.36H35.4987V123.36H10.0588V125.36ZM34.5015 124.434C35.4817 137.667 41.0573 148.025 51.2314 155.409L52.4061 153.791C42.7402 146.775 37.4358 136.973 36.496 124.286L34.5015 124.434ZM51.2462 155.42C61.5621 162.625 76.2764 166.16 95.2588 166.16V164.16C76.4811 164.16 62.2355 160.655 52.3913 153.78L51.2462 155.42ZM95.2588 166.16C114.837 166.16 130.342 163.916 141.71 159.368L140.967 157.512C129.936 161.924 114.72 164.16 95.2588 164.16V166.16ZM141.717 159.366C147.509 157 151.951 153.91 154.966 150.056C157.991 146.191 159.535 141.616 159.619 136.376L157.619 136.344C157.542 141.184 156.126 145.329 153.391 148.824C150.647 152.33 146.529 155.24 140.961 157.514L141.717 159.366ZM159.619 136.376C159.701 131.161 158.458 126.629 155.842 122.833C153.231 119.042 149.302 116.056 144.133 113.841L143.345 115.679C148.255 117.784 151.847 120.558 154.195 123.967C156.54 127.371 157.696 131.479 157.619 136.344L159.619 136.376ZM144.133 113.841C133.889 109.451 118.066 106.643 96.7588 105.362L96.6387 107.358C117.891 108.637 133.429 111.429 143.345 115.679L144.133 113.841ZM96.7328 105.361C82.6765 104.881 70.4725 103.923 60.1159 102.489L59.8416 104.471C70.2851 105.917 82.561 106.879 96.6647 107.359L96.7328 105.361ZM60.118 102.49C49.9478 101.06 41.5804 98.6828 34.986 95.3856L34.0915 97.1744C40.9371 100.597 49.5297 103.02 59.8395 104.47L60.118 102.49ZM34.986 95.3856C28.4201 92.1026 23.6218 87.6743 20.5329 82.1144L18.7846 83.0856C22.0958 89.0457 27.2174 93.7374 34.0915 97.1744L34.986 95.3856ZM20.5329 82.1144C17.4423 76.5513 15.8588 69.2156 15.8588 60.04H13.8588C13.8588 69.4244 15.4752 77.1287 18.7846 83.0856L20.5329 82.1144ZM15.8588 60.04C15.8588 53.3218 17.4195 46.9179 20.5486 40.8163L18.7689 39.9037C15.498 46.2821 13.8588 52.9982 13.8588 60.04H15.8588ZM20.5486 40.8163C23.6586 34.7518 28.5721 29.432 35.3379 24.8691L34.2196 23.2109C27.2254 27.928 22.0589 33.4882 18.7689 39.9037L20.5486 40.8163ZM35.3421 24.8662C42.2591 20.1501 51.1017 16.43 61.9013 13.7301L61.4162 11.7898C50.4558 14.5299 41.3784 18.3299 34.2154 23.2138L35.3421 24.8662ZM61.9146 13.7267C72.6871 10.8752 85.7161 9.43999 101.019 9.43999V7.43999C85.6014 7.43999 72.3904 8.88481 61.4029 11.7933L61.9146 13.7267ZM101.019 9.43999C117.437 9.43999 130.67 11.2747 140.761 14.9011L141.437 13.0189C131.048 9.28528 117.561 7.43999 101.019 7.43999V9.43999ZM140.765 14.9027C151.072 18.5499 159.094 23.2053 164.881 28.8367L166.276 27.4033C160.224 21.5147 151.925 16.7301 141.432 13.0173L140.765 14.9027ZM164.891 28.8459C170.864 34.5048 175.007 40.8478 177.35 47.8762L179.247 47.2438C176.79 39.8721 172.453 33.2552 166.266 27.394L164.891 28.8459ZM177.357 47.895C179.891 55.0224 181.471 62.0604 182.103 69.0105L184.095 68.8295C183.446 61.6996 181.827 54.4976 179.241 47.225L177.357 47.895ZM183.099 67.92H157.659V69.92H183.099V67.92ZM158.655 68.8352C158.006 61.2046 156.133 54.8036 152.991 49.6774L151.286 50.7226C154.224 55.5164 156.032 61.5954 156.662 69.0048L158.655 68.8352ZM152.999 49.6895C149.873 44.4256 145.673 40.2255 140.409 37.1001L139.388 38.8199C144.364 41.7745 148.324 45.7344 151.279 50.7105L152.999 49.6895ZM140.421 37.1074C135.342 33.9942 129.384 31.7964 122.566 30.4977L122.192 32.4623C128.813 33.7236 134.536 35.8458 139.376 38.8126L140.421 37.1074ZM122.566 30.4977C115.775 29.2041 108.351 28.56 100.299 28.56V30.56C108.246 30.56 115.543 31.1959 122.192 32.4623L122.566 30.4977ZM100.299 28.56C91.1388 28.56 82.7687 29.1224 75.1914 30.2509L75.4861 32.2291C82.9488 31.1176 91.2187 30.56 100.299 30.56V28.56ZM75.1883 30.2514C67.7619 31.3815 61.2732 33.1618 55.7351 35.6051L56.5424 37.4349C61.8843 35.0782 68.1956 33.3385 75.4892 32.2286L75.1883 30.2514ZM55.7482 35.5994C50.35 37.8896 46.0486 40.9368 42.8878 44.7631L44.4297 46.0369C47.3489 42.5032 51.3675 39.6304 56.5293 37.4406L55.7482 35.5994ZM42.8848 44.7668C39.8402 48.4879 38.3388 53.0399 38.3388 58.36H40.3388C40.3388 53.4401 41.7173 49.3521 44.4327 46.0332L42.8848 44.7668ZM38.3388 58.36C38.3388 63.472 39.4945 67.8363 41.8667 71.3947L43.5308 70.2853C41.423 67.1237 40.3388 63.168 40.3388 58.36H38.3388ZM41.8988 71.44C44.436 74.8231 48.2826 77.5563 53.352 79.6822L54.1255 77.8378C49.2749 75.8037 45.7615 73.2569 43.4988 70.24L41.8988 71.44ZM53.3778 79.6926C58.4315 81.6488 64.8309 83.1832 72.5544 84.3095L72.8431 82.3305C65.2066 81.2168 58.966 79.7111 54.0997 77.8274L53.3778 79.6926ZM72.5772 84.3126C80.443 85.2757 89.6642 86.0773 100.238 86.7182L100.359 84.7218C89.8133 84.0827 80.6345 83.2843 72.8203 82.3274L72.5772 84.3126ZM100.244 86.7185C114.937 87.517 127.452 88.8735 137.797 90.7834L138.16 88.8166C127.705 86.8865 115.1 85.523 100.353 84.7215L100.244 86.7185ZM137.812 90.786C148.14 92.5339 156.585 95.2265 163.178 98.8371L164.139 97.0829C157.292 93.3335 148.617 90.5861 138.146 88.814L137.812 90.786ZM163.178 98.8371C169.75 102.436 174.474 107.1 177.409 112.817L179.188 111.903C176.044 105.78 171.007 100.844 164.139 97.0829L163.178 98.8371ZM177.419 112.836C180.518 118.569 182.099 125.833 182.099 134.68H184.099C184.099 125.607 182.479 117.991 179.178 111.884L177.419 112.836ZM321.761 165.88L322.751 166.021L323.227 162.685L321.008 165.221L321.761 165.88ZM238.241 183.88L238.545 182.927L238.535 182.924L238.526 182.922L238.241 183.88ZM218.801 173.32L218.128 174.06L218.133 174.065L218.139 174.07L218.801 173.32ZM206.561 155.32L205.632 155.691L205.632 155.691L206.561 155.32ZM202.241 53.8V52.8H201.241V53.8H202.241ZM224.561 53.8H225.561V52.8H224.561V53.8ZM225.041 136.6L224.042 136.66L224.043 136.677L224.045 136.693L225.041 136.6ZM229.361 151L228.479 151.472L228.486 151.484L228.492 151.496L229.361 151ZM241.121 162.52L240.602 163.375L240.617 163.384L240.633 163.393L241.121 162.52ZM286.241 164.68L286.472 165.653L286.483 165.65L286.494 165.647L286.241 164.68ZM303.521 155.8L302.878 155.034L302.872 155.039L302.866 155.044L303.521 155.8ZM315.041 138.76L314.109 138.396L314.105 138.407L315.041 138.76ZM319.601 110.68L320.601 110.694V110.68H319.601ZM319.601 53.8V52.8H318.601V53.8H319.601ZM341.681 53.8H342.681V52.8H341.681V53.8ZM341.681 181V182H342.681V181H341.681ZM319.601 181L318.611 180.859L318.448 182H319.601V181ZM321.008 165.221C314.407 172.765 306.238 178.188 296.48 181.493L297.121 183.387C307.204 179.972 315.674 174.355 322.513 166.539L321.008 165.221ZM296.48 181.493C286.681 184.812 275.592 186.48 263.201 186.48V188.48C275.769 188.48 287.08 186.788 297.121 183.387L296.48 181.493ZM263.201 186.48C254.168 186.48 245.952 185.292 238.545 182.927L237.937 184.833C245.569 187.268 253.993 188.48 263.201 188.48V186.48ZM238.526 182.922C231.134 180.72 224.785 177.267 219.462 172.57L218.139 174.07C223.696 178.973 230.308 182.56 237.955 184.838L238.526 182.922ZM219.473 172.58C214.315 167.891 210.318 162.02 207.489 154.949L205.632 155.691C208.563 163.02 212.726 169.149 218.128 174.06L219.473 172.58ZM207.489 154.949C204.666 147.891 203.241 139.622 203.241 130.12H201.241C201.241 139.818 202.695 148.349 205.632 155.691L207.489 154.949ZM203.241 130.12V53.8H201.241V130.12H203.241ZM202.241 54.8H224.561V52.8H202.241V54.8ZM223.561 53.8V122.68H225.561V53.8H223.561ZM223.561 122.68C223.561 126.705 223.722 131.366 224.042 136.66L226.039 136.54C225.72 131.274 225.561 126.655 225.561 122.68H223.561ZM224.045 136.693C224.537 141.944 226.015 146.873 228.479 151.472L230.242 150.528C227.906 146.167 226.504 141.496 226.036 136.507L224.045 136.693ZM228.492 151.496C231.152 156.15 235.206 160.104 240.602 163.375L241.639 161.665C236.476 158.536 232.689 154.81 230.229 150.504L228.492 151.496ZM240.633 163.393C246.285 166.552 254.161 168.08 264.161 168.08V166.08C254.32 166.08 246.836 164.568 241.608 161.647L240.633 163.393ZM264.161 168.08C272.227 168.08 279.666 167.273 286.472 165.653L286.009 163.707C279.376 165.287 272.095 166.08 264.161 166.08V168.08ZM286.494 165.647C293.348 163.852 299.249 160.825 304.176 156.556L302.866 155.044C298.192 159.095 292.573 161.988 285.987 163.713L286.494 165.647ZM304.163 156.566C309.277 152.277 313.207 146.443 315.976 139.113L314.105 138.407C311.434 145.477 307.684 151.003 302.878 155.034L304.163 156.566ZM315.972 139.124C318.91 131.615 320.44 122.126 320.601 110.694L318.601 110.666C318.442 121.954 316.931 131.185 314.109 138.396L315.972 139.124ZM320.601 110.68V53.8H318.601V110.68H320.601ZM319.601 54.8H341.681V52.8H319.601V54.8ZM340.681 53.8V181H342.681V53.8H340.681ZM341.681 180H319.601V182H341.681V180ZM320.591 181.141L322.751 166.021L320.771 165.739L318.611 180.859L320.591 181.141ZM423.378 181L423.057 181.947L423.064 181.949L423.071 181.952L423.378 181ZM397.698 166.12L398.372 165.381L396.698 163.856V166.12H397.698ZM397.698 221.56V222.56H398.698V221.56H397.698ZM375.378 221.56H374.378V222.56H375.378V221.56ZM375.378 53.8V52.8H374.378V53.8H375.378ZM397.698 53.8L398.695 53.8767L398.778 52.8H397.698V53.8ZM396.498 69.4L395.501 69.3233L395.301 71.9273L397.189 70.123L396.498 69.4ZM421.938 53.32L421.577 52.3874L421.572 52.3894L421.938 53.32ZM484.578 51.64L484.859 50.6804L484.859 50.6804L484.578 51.64ZM508.578 64.36L507.927 65.1192L507.937 65.1275L507.947 65.1356L508.578 64.36ZM524.658 85.72L523.744 86.1261L523.749 86.1364L523.754 86.1466L524.658 85.72ZM530.898 115.96L531.898 115.96L531.898 115.946L530.898 115.96ZM525.138 147.16L524.222 146.76L524.219 146.767L524.216 146.774L525.138 147.16ZM509.538 169L510.189 169.759L510.189 169.759L509.538 169ZM485.538 181.72L485.819 182.68L485.819 182.68L485.538 181.72ZM397.938 116.68L396.938 116.661L396.938 116.68L396.938 116.698L397.938 116.68ZM402.258 139L401.345 139.408L401.35 139.418L401.354 139.428L402.258 139ZM414.018 153.88L413.406 154.671L413.406 154.671L414.018 153.88ZM431.538 162.28L431.285 163.247L431.29 163.249L431.538 162.28ZM475.698 162.28L475.445 161.313L475.439 161.314L475.698 162.28ZM492.738 153.88L492.113 153.099L492.107 153.104L492.101 153.11L492.738 153.88ZM503.778 139L502.865 138.592L502.861 138.602L502.856 138.612L503.778 139ZM508.098 116.68L509.098 116.698L509.098 116.68L509.098 116.662L508.098 116.68ZM503.778 94.36L502.853 94.7395L502.859 94.7541L502.865 94.7684L503.778 94.36ZM492.978 79.24L492.325 79.9974L492.333 80.004L492.341 80.0104L492.978 79.24ZM476.178 70.6L475.919 71.5658L475.919 71.5658L476.178 70.6ZM431.778 70.84L432.031 71.8074L432.039 71.8053L432.047 71.8032L431.778 70.84ZM414.018 79.48L414.63 80.2707L414.634 80.268L414.018 79.48ZM402.258 94.6L401.35 94.1809L401.345 94.1916L402.258 94.6ZM455.298 184.8C444.033 184.8 433.497 183.214 423.685 180.048L423.071 181.952C433.099 185.186 443.843 186.8 455.298 186.8V184.8ZM423.699 180.053C413.9 176.734 405.462 171.841 398.372 165.381L397.025 166.859C404.334 173.519 413.017 178.546 423.057 181.947L423.699 180.053ZM396.698 166.12V221.56H398.698V166.12H396.698ZM397.698 220.56H375.378V222.56H397.698V220.56ZM376.378 221.56V53.8H374.378V221.56H376.378ZM375.378 54.8H397.698V52.8H375.378V54.8ZM396.701 53.7233L395.501 69.3233L397.495 69.4767L398.695 53.8767L396.701 53.7233ZM397.189 70.123C404.29 63.3373 412.658 58.0456 422.304 54.2506L421.572 52.3894C411.698 56.2743 403.106 61.7027 395.807 68.677L397.189 70.123ZM422.299 54.2526C432.093 50.4613 442.769 48.56 454.338 48.56V46.56C442.547 46.56 431.623 48.4987 421.577 52.3874L422.299 54.2526ZM454.338 48.56C465.135 48.56 475.119 49.9095 484.297 52.5996L484.859 50.6804C475.477 47.9305 465.302 46.56 454.338 46.56V48.56ZM484.297 52.5996C493.454 55.2835 501.325 59.4597 507.927 65.1192L509.229 63.6007C502.392 57.7403 494.263 53.4365 484.859 50.6804L484.297 52.5996ZM507.947 65.1356C514.697 70.6298 519.964 77.6201 523.744 86.1261L525.572 85.3139C521.672 76.5399 516.219 69.2901 509.209 63.5844L507.947 65.1356ZM523.754 86.1466C527.68 94.4697 529.74 104.402 529.898 115.974L531.898 115.946C531.737 104.158 529.637 93.9303 525.563 85.2934L523.754 86.1466ZM529.898 115.96C529.898 127.856 527.995 138.114 524.222 146.76L526.055 147.56C529.962 138.606 531.898 128.064 531.898 115.96H529.898ZM524.216 146.774C520.591 155.442 515.48 162.59 508.887 168.241L510.189 169.759C517.036 163.89 522.325 156.478 526.061 147.546L524.216 146.774ZM508.887 168.241C502.285 173.9 494.414 178.076 485.257 180.76L485.819 182.68C495.223 179.924 503.352 175.62 510.189 169.759L508.887 168.241ZM485.257 180.76C476.079 183.45 466.095 184.8 455.298 184.8V186.8C466.262 186.8 476.437 185.43 485.819 182.68L485.257 180.76ZM396.938 116.698C397.1 125.592 398.556 133.173 401.345 139.408L403.171 138.592C400.521 132.667 399.096 125.368 398.938 116.662L396.938 116.698ZM401.354 139.428C404.297 145.64 408.313 150.728 413.406 154.671L414.63 153.089C409.804 149.352 405.98 144.52 403.162 138.572L401.354 139.428ZM413.406 154.671C418.483 158.602 424.449 161.457 431.285 163.247L431.791 161.313C425.188 159.583 419.473 156.838 414.63 153.089L413.406 154.671ZM431.29 163.249C438.261 165.032 445.785 165.92 453.858 165.92V163.92C445.931 163.92 438.576 163.048 431.786 161.311L431.29 163.249ZM453.858 165.92C461.931 165.92 469.299 165.032 475.957 163.246L475.439 161.314C468.977 163.048 461.786 163.92 453.858 163.92V165.92ZM475.951 163.247C482.791 161.456 488.608 158.596 493.376 154.65L492.101 153.11C487.589 156.844 482.045 159.584 475.445 161.313L475.951 163.247ZM493.363 154.661C498.302 150.709 502.08 145.61 504.7 139.388L502.856 138.612C500.356 144.55 496.774 149.371 492.113 153.099L493.363 154.661ZM504.691 139.408C507.481 133.173 508.936 125.592 509.098 116.698L507.098 116.662C506.94 125.368 505.516 132.667 502.865 138.592L504.691 139.408ZM509.098 116.662C508.936 107.768 507.481 100.187 504.691 93.9516L502.865 94.7684C505.516 100.693 506.94 107.992 507.098 116.698L509.098 116.662ZM504.703 93.9804C502.089 87.607 498.397 82.4263 493.616 78.4696L492.341 80.0104C496.84 83.7337 500.348 88.633 502.853 94.7395L504.703 93.9804ZM493.631 78.4826C488.865 74.3741 483.127 71.4288 476.437 69.6342L475.919 71.5658C482.35 73.2911 487.811 76.1059 492.325 79.9974L493.631 78.4826ZM476.437 69.6342C469.779 67.8479 462.411 66.96 454.338 66.96V68.96C462.266 68.96 469.457 69.8321 475.919 71.5658L476.437 69.6342ZM454.338 66.96C446.1 66.96 438.488 67.9292 431.509 69.8768L432.047 71.8032C438.828 69.9108 446.256 68.96 454.338 68.96V66.96ZM431.525 69.8726C424.682 71.6647 418.637 74.6025 413.402 78.692L414.634 80.268C419.639 76.3575 425.434 73.5353 432.031 71.8074L431.525 69.8726ZM413.406 78.6893C408.307 82.6368 404.291 87.8093 401.35 94.1809L403.166 95.0191C405.985 88.9107 409.809 84.0032 414.63 80.2707L413.406 78.6893ZM401.345 94.1916C398.557 100.425 397.1 107.925 396.938 116.661L398.938 116.699C399.096 108.155 400.52 100.935 403.171 95.0084L401.345 94.1916ZM604.316 181L603.995 181.947L604.002 181.949L604.009 181.952L604.316 181ZM578.636 166.12L579.309 165.381L577.636 163.856V166.12H578.636ZM578.636 221.56V222.56H579.636V221.56H578.636ZM556.316 221.56H555.316V222.56H556.316V221.56ZM556.316 53.8V52.8H555.316V53.8H556.316ZM578.636 53.8L579.633 53.8767L579.716 52.8H578.636V53.8ZM577.436 69.4L576.439 69.3233L576.238 71.9273L578.126 70.123L577.436 69.4ZM602.876 53.32L602.515 52.3874L602.51 52.3894L602.876 53.32ZM665.516 51.64L665.797 50.6804L665.797 50.6804L665.516 51.64ZM689.516 64.36L688.865 65.1192L688.874 65.1275L688.884 65.1356L689.516 64.36ZM705.596 85.72L704.682 86.1261L704.686 86.1364L704.691 86.1466L705.596 85.72ZM711.836 115.96L712.836 115.96L712.836 115.946L711.836 115.96ZM706.076 147.16L705.159 146.76L705.156 146.767L705.153 146.774L706.076 147.16ZM690.476 169L691.126 169.759L691.126 169.759L690.476 169ZM666.476 181.72L666.757 182.68L666.757 182.68L666.476 181.72ZM578.876 116.68L577.876 116.661L577.875 116.68L577.876 116.698L578.876 116.68ZM583.196 139L582.283 139.408L582.287 139.418L582.292 139.428L583.196 139ZM594.956 153.88L594.343 154.671L594.343 154.671L594.956 153.88ZM612.476 162.28L612.222 163.247L612.228 163.249L612.476 162.28ZM656.636 162.28L656.382 161.313L656.377 161.314L656.636 162.28ZM673.676 153.88L673.051 153.099L673.044 153.104L673.038 153.11L673.676 153.88ZM684.716 139L683.803 138.592L683.798 138.602L683.794 138.612L684.716 139ZM689.036 116.68L690.035 116.698L690.036 116.68L690.035 116.662L689.036 116.68ZM684.716 94.36L683.79 94.7395L683.796 94.7541L683.803 94.7684L684.716 94.36ZM673.916 79.24L673.263 79.9974L673.27 80.004L673.278 80.0104L673.916 79.24ZM657.116 70.6L656.856 71.5658L656.856 71.5658L657.116 70.6ZM612.716 70.84L612.969 71.8074L612.977 71.8053L612.984 71.8032L612.716 70.84ZM594.956 79.48L595.568 80.2707L595.571 80.268L594.956 79.48ZM583.196 94.6L582.288 94.1809L582.283 94.1916L583.196 94.6ZM636.236 184.8C624.971 184.8 614.435 183.214 604.623 180.048L604.009 181.952C614.036 185.186 624.781 186.8 636.236 186.8V184.8ZM604.636 180.053C594.837 176.734 586.4 171.841 579.309 165.381L577.962 166.859C585.272 173.519 593.954 178.546 603.995 181.947L604.636 180.053ZM577.636 166.12V221.56H579.636V166.12H577.636ZM578.636 220.56H556.316V222.56H578.636V220.56ZM557.316 221.56V53.8H555.316V221.56H557.316ZM556.316 54.8H578.636V52.8H556.316V54.8ZM577.639 53.7233L576.439 69.3233L578.433 69.4767L579.633 53.8767L577.639 53.7233ZM578.126 70.123C585.228 63.3373 593.596 58.0456 603.242 54.2506L602.51 52.3894C592.635 56.2743 584.043 61.7027 576.745 68.677L578.126 70.123ZM603.237 54.2526C613.031 50.4613 623.707 48.56 635.276 48.56V46.56C623.484 46.56 612.561 48.4987 602.515 52.3874L603.237 54.2526ZM635.276 48.56C646.072 48.56 656.056 49.9095 665.234 52.5996L665.797 50.6804C656.415 47.9305 646.239 46.56 635.276 46.56V48.56ZM665.234 52.5996C674.391 55.2835 682.262 59.4597 688.865 65.1192L690.166 63.6007C683.329 57.7403 675.2 53.4365 665.797 50.6804L665.234 52.5996ZM688.884 65.1356C695.634 70.6298 700.901 77.6201 704.682 86.1261L706.509 85.3139C702.61 76.5399 697.157 69.2901 690.147 63.5844L688.884 65.1356ZM704.691 86.1466C708.617 94.4697 710.677 104.402 710.836 115.974L712.836 115.946C712.674 104.158 710.574 93.9303 706.5 85.2934L704.691 86.1466ZM710.836 115.96C710.836 127.856 708.932 138.114 705.159 146.76L706.992 147.56C710.899 138.606 712.836 128.064 712.836 115.96H710.836ZM705.153 146.774C701.528 155.442 696.417 162.59 689.825 168.241L691.126 169.759C697.974 163.89 703.263 156.478 706.998 147.546L705.153 146.774ZM689.825 168.241C683.222 173.9 675.351 178.076 666.194 180.76L666.757 182.68C676.16 179.924 684.289 175.62 691.126 169.759L689.825 168.241ZM666.194 180.76C657.016 183.45 647.032 184.8 636.236 184.8V186.8C647.199 186.8 657.375 185.43 666.757 182.68L666.194 180.76ZM577.876 116.698C578.037 125.592 579.493 133.173 582.283 139.408L584.108 138.592C581.458 132.667 580.034 125.368 579.875 116.662L577.876 116.698ZM582.292 139.428C585.234 145.64 589.25 150.728 594.343 154.671L595.568 153.089C590.741 149.352 586.917 144.52 584.099 138.572L582.292 139.428ZM594.343 154.671C599.421 158.602 605.386 161.457 612.222 163.247L612.729 161.313C606.125 159.583 600.41 156.838 595.568 153.089L594.343 154.671ZM612.228 163.249C619.198 165.032 626.722 165.92 634.796 165.92V163.92C626.869 163.92 619.513 163.048 612.723 161.311L612.228 163.249ZM634.796 165.92C642.868 165.92 650.237 165.032 656.895 163.246L656.377 161.314C649.914 163.048 642.723 163.92 634.796 163.92V165.92ZM656.889 163.247C663.728 161.456 669.545 158.596 674.313 154.65L673.038 153.11C668.526 156.844 662.983 159.584 656.382 161.313L656.889 163.247ZM674.3 154.661C679.24 150.709 683.017 145.61 685.637 139.388L683.794 138.612C681.294 144.55 677.711 149.371 673.051 153.099L674.3 154.661ZM685.628 139.408C688.418 133.173 689.874 125.592 690.035 116.698L688.036 116.662C687.877 125.368 686.453 132.667 683.803 138.592L685.628 139.408ZM690.035 116.662C689.874 107.768 688.418 100.187 685.628 93.9516L683.803 94.7684C686.453 100.693 687.877 107.992 688.036 116.698L690.035 116.662ZM685.641 93.9804C683.026 87.607 679.334 82.4263 674.553 78.4696L673.278 80.0104C677.777 83.7337 681.285 88.633 683.79 94.7395L685.641 93.9804ZM674.569 78.4826C669.803 74.3741 664.064 71.4288 657.375 69.6342L656.856 71.5658C663.287 73.2911 668.748 76.1059 673.263 79.9974L674.569 78.4826ZM657.375 69.6342C650.717 67.8479 643.348 66.96 635.276 66.96V68.96C643.203 68.96 650.394 69.8321 656.856 71.5658L657.375 69.6342ZM635.276 66.96C627.037 66.96 619.426 67.9292 612.447 69.8768L612.984 71.8032C619.766 69.9108 627.194 68.96 635.276 68.96V66.96ZM612.462 69.8726C605.62 71.6647 599.575 74.6025 594.34 78.692L595.571 80.268C600.577 76.3575 606.371 73.5353 612.969 71.8074L612.462 69.8726ZM594.343 78.6893C589.245 82.6368 585.228 87.8093 582.288 94.1809L584.104 95.0191C586.923 88.9107 590.747 84.0032 595.568 80.2707L594.343 78.6893ZM582.283 94.1916C579.494 100.425 578.038 107.925 577.876 116.661L579.875 116.699C580.034 108.155 581.457 100.935 584.108 95.0084L582.283 94.1916ZM881.013 117.16L882.013 117.174V117.16H881.013ZM875.013 147.88L874.097 147.48L874.093 147.488L875.013 147.88ZM859.173 169.48L858.531 168.713L858.522 168.721L859.173 169.48ZM834.933 182.44L834.641 181.484L834.637 181.485L834.933 182.44ZM772.773 182.44L773.07 181.485L773.062 181.483L773.054 181.48L772.773 182.44ZM748.773 169.72L748.113 170.471L748.122 170.479L748.773 169.72ZM733.413 147.88L734.336 147.494L733.413 147.88ZM727.653 116.92H726.653L726.653 116.934L727.653 116.92ZM733.173 85.96L734.096 86.3458L734.098 86.3399L733.173 85.96ZM748.533 63.88L749.193 64.6314L749.194 64.6304L748.533 63.88ZM772.533 50.68L772.83 51.6351L772.84 51.6319L772.533 50.68ZM835.173 50.44L834.881 51.3965L835.173 50.44ZM859.413 63.64L858.752 64.3904L858.762 64.3987L858.771 64.4068L859.413 63.64ZM875.253 85.72L874.328 86.0999L874.331 86.1069L874.334 86.1139L875.253 85.72ZM750.453 116.44L749.453 116.422L749.453 116.44L749.453 116.459L750.453 116.44ZM764.613 154.6L763.946 155.345L763.953 155.351L763.96 155.357L764.613 154.6ZM843.573 154.6L842.927 153.837L842.927 153.837L843.573 154.6ZM858.213 116.44L859.213 116.458L859.213 116.44L859.213 116.422L858.213 116.44ZM843.333 78.28L842.685 79.042L842.693 79.0482L843.333 78.28ZM764.373 78.28L765.039 79.0259L765.04 79.0252L764.373 78.28ZM880.013 117.146C879.855 128.721 877.873 138.825 874.097 147.48L875.93 148.28C879.833 139.335 881.852 128.959 882.013 117.174L880.013 117.146ZM874.093 147.488C870.472 155.99 865.285 163.059 858.531 168.713L859.815 170.247C866.822 164.381 872.194 157.05 875.933 148.272L874.093 147.488ZM858.522 168.721C851.919 174.381 843.965 178.639 834.641 181.484L835.225 183.396C844.782 180.481 852.988 176.099 859.824 170.239L858.522 168.721ZM834.637 181.485C825.467 184.331 815.249 185.76 803.973 185.76V187.76C815.417 187.76 825.839 186.309 835.23 183.395L834.637 181.485ZM803.973 185.76C792.536 185.76 782.238 184.33 773.07 181.485L772.477 183.395C781.869 186.31 792.371 187.76 803.973 187.76V185.76ZM773.054 181.48C763.898 178.796 756.027 174.62 749.424 168.961L748.122 170.479C754.96 176.34 763.089 180.644 772.492 183.4L773.054 181.48ZM749.433 168.969C742.997 163.318 737.963 156.167 734.336 147.494L732.491 148.266C736.224 157.193 741.429 164.602 748.113 170.471L749.433 168.969ZM734.336 147.494C730.715 138.837 728.812 128.648 728.653 116.906L726.653 116.934C726.815 128.872 728.751 139.323 732.491 148.266L734.336 147.494ZM728.653 116.92C728.653 105.182 730.478 94.998 734.096 86.3458L732.251 85.5742C728.509 94.522 726.653 104.978 726.653 116.92H728.653ZM734.098 86.3399C737.726 77.5067 742.761 70.279 749.193 64.6314L747.873 63.1286C741.185 69.001 735.98 76.4933 732.248 85.5801L734.098 86.3399ZM749.194 64.6304C755.8 58.8112 763.673 54.4769 772.83 51.6351L772.237 49.7249C762.834 52.6431 754.707 57.1088 747.872 63.1296L749.194 64.6304ZM772.84 51.6319C782.167 48.628 792.462 47.12 803.733 47.12V45.12C792.284 45.12 781.779 46.652 772.227 49.7281L772.84 51.6319ZM803.733 47.12C815.17 47.12 825.55 48.5497 834.881 51.3965L835.465 49.4835C825.916 46.5703 815.336 45.12 803.733 45.12V47.12ZM834.881 51.3965C844.199 54.2392 852.15 58.5738 858.752 64.3904L860.074 62.8896C853.237 56.8662 845.027 52.4008 835.465 49.4835L834.881 51.3965ZM858.771 64.4068C865.517 70.0545 870.705 77.2777 874.328 86.0999L876.178 85.3401C872.442 76.2423 867.069 68.7455 860.055 62.8732L858.771 64.4068ZM874.334 86.1139C878.11 94.9242 880.013 105.265 880.013 117.16H882.013C882.013 105.055 880.076 94.4358 876.172 85.3261L874.334 86.1139ZM749.453 116.459C749.776 133.899 754.545 146.934 763.946 155.345L765.28 153.855C756.441 145.946 751.77 133.541 751.453 116.421L749.453 116.459ZM763.96 155.357C773.481 163.565 786.865 167.6 803.973 167.6V165.6C787.161 165.6 774.305 161.635 765.266 153.843L763.96 155.357ZM803.973 167.6C821.082 167.6 834.542 163.564 844.22 155.363L842.927 153.837C833.724 161.636 820.784 165.6 803.973 165.6V167.6ZM844.22 155.363C853.957 147.111 858.89 134.064 859.213 116.458L857.213 116.422C856.896 133.696 852.069 146.089 842.927 153.837L844.22 155.363ZM859.213 116.422C858.89 98.8109 853.874 85.7625 843.973 77.5118L842.693 79.0482C851.992 86.7975 856.896 99.1891 857.213 116.458L859.213 116.422ZM843.981 77.5181C834.146 69.1582 820.608 65.04 803.493 65.04V67.04C820.298 67.04 833.321 71.0818 842.685 79.0419L843.981 77.5181ZM803.493 65.04C786.382 65.04 773.07 69.1567 763.706 77.5348L765.04 79.0252C773.916 71.0832 786.684 67.04 803.493 67.04V65.04ZM763.707 77.5341C754.46 85.7902 749.776 98.8307 749.453 116.422L751.453 116.458C751.77 99.1692 756.366 86.7698 765.039 79.0259L763.707 77.5341ZM960.98 72.28L961.233 73.2474L961.244 73.2446L961.255 73.2415L960.98 72.28ZM943.46 80.68L944.072 81.4707L944.072 81.4707L943.46 80.68ZM931.94 95.8L932.853 96.2084L932.857 96.1996L931.94 95.8ZM927.62 118.12L926.62 118.102L926.62 118.109L926.62 118.116L927.62 118.12ZM927.38 181V182H928.376L928.38 181.004L927.38 181ZM905.3 181H904.3V182H905.3V181ZM905.3 53.8V52.8H904.3V53.8H905.3ZM927.62 53.8L928.609 53.9483L928.781 52.8H927.62V53.8ZM924.74 73L923.751 72.8517L923.233 76.3037L925.5 73.6495L924.74 73ZM949.46 55.72L949.821 56.6527L949.834 56.6474L949.46 55.72ZM1012.1 49.72H1013.1V48.72H1012.1V49.72ZM1012.1 69.4V70.4H1013.1V69.4H1012.1ZM983.06 68.4C974.98 68.4 967.526 69.3696 960.705 71.3185L961.255 73.2415C967.874 71.3504 975.14 70.4 983.06 70.4V68.4ZM960.727 71.3126C953.89 73.1031 947.925 75.9584 942.848 79.8893L944.072 81.4707C948.915 77.7216 954.63 74.9769 961.233 73.2474L960.727 71.3126ZM942.848 79.8893C937.744 83.8407 933.805 89.02 931.023 95.4004L932.857 96.1996C935.515 90.1 939.256 85.1993 944.072 81.4707L942.848 79.8893ZM931.027 95.3916C928.238 101.627 926.782 109.208 926.62 118.102L928.62 118.138C928.778 109.432 930.202 102.133 932.853 96.2084L931.027 95.3916ZM926.62 118.116L926.38 180.996L928.38 181.004L928.62 118.124L926.62 118.116ZM927.38 180H905.3V182H927.38V180ZM906.3 181V53.8H904.3V181H906.3ZM905.3 54.8H927.62V52.8H905.3V54.8ZM926.631 53.6517L923.751 72.8517L925.729 73.1483L928.609 53.9483L926.631 53.6517ZM925.5 73.6495C931.947 66.1022 940.047 60.436 949.821 56.6526L949.099 54.7874C939.033 58.684 930.653 64.5378 923.98 72.3505L925.5 73.6495ZM949.834 56.6474C959.617 52.7027 970.687 50.72 983.06 50.72V48.72C970.473 48.72 959.143 50.7373 949.086 54.7926L949.834 56.6474ZM983.06 50.72H1012.1V48.72H983.06V50.72ZM1011.1 49.72V69.4H1013.1V49.72H1011.1ZM1012.1 68.4H983.06V70.4H1012.1V68.4ZM1097.15 180.52L1097.17 181.52L1098.14 181.507L1098.15 180.532L1097.15 180.52ZM1069.07 177.64L1069.37 176.685L1069.07 177.64ZM1053.95 166.6L1053.09 167.107L1053.1 167.122L1053.11 167.137L1053.95 166.6ZM1047.95 144.28L1046.96 144.347L1046.96 144.355L1046.96 144.364L1047.95 144.28ZM1046.99 73.72H1047.99V72.72H1046.99V73.72ZM1024.19 73.72H1023.19V74.72H1024.19V73.72ZM1024.19 54.04V53.04H1023.19V54.04H1024.19ZM1047.23 54.04V55.04H1048.23V54.04H1047.23ZM1047.23 25.96V24.96H1046.23V25.96H1047.23ZM1069.55 25.96L1070.54 26.1038L1070.71 24.96H1069.55V25.96ZM1065.47 54.04L1064.48 53.8962L1064.32 55.04H1065.47V54.04ZM1107.23 54.04H1108.23V53.04H1107.23V54.04ZM1107.23 73.72V74.72H1108.23V73.72H1107.23ZM1069.55 73.72V72.72H1068.56L1068.55 73.713L1069.55 73.72ZM1069.31 107.8L1068.31 107.793V107.8H1069.31ZM1069.79 137.32L1068.79 137.365L1068.8 137.377L1068.8 137.388L1069.79 137.32ZM1073.15 152.92L1072.27 153.384L1072.28 153.4L1072.29 153.416L1073.15 152.92ZM1081.55 158.92L1081.38 159.905L1081.39 159.906L1081.55 158.92ZM1097.39 159.88L1098.39 159.892L1098.41 158.88H1097.39V159.88ZM1097.14 179.52C1085.18 179.68 1075.94 178.719 1069.37 176.685L1068.78 178.595C1075.64 180.721 1085.13 181.68 1097.17 181.52L1097.14 179.52ZM1069.37 176.685C1062.85 174.666 1058.01 171.118 1054.8 166.063L1053.11 167.137C1056.61 172.642 1061.86 176.454 1068.78 178.595L1069.37 176.685ZM1054.82 166.093C1051.72 160.83 1049.74 153.555 1048.95 144.196L1046.96 144.364C1047.76 153.885 1049.79 161.49 1053.09 167.107L1054.82 166.093ZM1048.95 144.213C1048.31 134.644 1047.99 122.508 1047.99 107.8H1045.99C1045.99 122.532 1046.31 134.716 1046.96 144.347L1048.95 144.213ZM1047.99 107.8V73.72H1045.99V107.8H1047.99ZM1046.99 72.72H1024.19V74.72H1046.99V72.72ZM1025.19 73.72V54.04H1023.19V73.72H1025.19ZM1024.19 55.04H1047.23V53.04H1024.19V55.04ZM1048.23 54.04V25.96H1046.23V54.04H1048.23ZM1047.23 26.96H1069.55V24.96H1047.23V26.96ZM1068.56 25.8162L1064.48 53.8962L1066.46 54.1838L1070.54 26.1038L1068.56 25.8162ZM1065.47 55.04H1107.23V53.04H1065.47V55.04ZM1106.23 54.04V73.72H1108.23V54.04H1106.23ZM1107.23 72.72H1069.55V74.72H1107.23V72.72ZM1068.55 73.713L1068.31 107.793L1070.31 107.807L1070.55 73.727L1068.55 73.713ZM1068.31 107.8C1068.31 120.445 1068.47 130.303 1068.79 137.365L1070.79 137.275C1070.47 130.257 1070.31 120.435 1070.31 107.8H1068.31ZM1068.8 137.388C1069.28 144.468 1070.41 149.836 1072.27 153.384L1074.04 152.456C1072.38 149.284 1071.27 144.252 1070.79 137.252L1068.8 137.388ZM1072.29 153.416C1074.35 157.024 1077.4 159.212 1081.38 159.905L1081.73 157.935C1078.35 157.348 1075.8 155.536 1074.02 152.424L1072.29 153.416ZM1081.39 159.906C1085.31 160.56 1090.65 160.88 1097.39 160.88V158.88C1090.7 158.88 1085.48 158.56 1081.72 157.934L1081.39 159.906ZM1096.39 159.868L1096.15 180.508L1098.15 180.532L1098.39 159.892L1096.39 159.868Z" fill="#0F0F0F"/>
<path opacity="0.1" d="M549.826 320.32C548.866 345.44 541.586 363.84 527.986 375.52C514.386 387.04 494.306 392.8 467.746 392.8C441.186 392.8 421.026 386.96 407.266 375.28C393.666 363.44 386.466 345.12 385.666 320.32V220H409.186V309.28C409.186 318.4 409.826 326.8 411.106 334.48C412.386 342.16 415.026 348.8 419.026 354.4C423.186 359.84 429.026 364.08 436.546 367.12C444.226 370.16 454.546 371.68 467.506 371.68C480.466 371.68 490.786 370.24 498.466 367.36C506.306 364.32 512.226 360.08 516.226 354.64C520.386 349.2 523.106 342.72 524.386 335.2C525.666 327.52 526.306 319.04 526.306 309.76V220H549.826V320.32ZM600.876 388L578.556 388.24V220H600.876V333.76L682.716 260.8H715.116L657.996 311.2L723.756 388H694.236L641.196 326.08L600.876 361.84V388ZM820.669 276.4C812.669 276.4 805.309 277.36 798.589 279.28C791.869 281.04 786.029 283.84 781.069 287.68C776.109 291.52 772.269 296.56 769.549 302.8C766.829 308.88 765.389 316.32 765.229 325.12L764.989 388H742.909V260.8H765.229L762.349 280C768.909 272.32 777.149 266.56 787.069 262.72C796.989 258.72 808.189 256.72 820.669 256.72H849.709V276.4H820.669ZM973.163 352.48C973.003 366.08 968.763 376.4 960.443 383.44C952.283 390.48 940.363 394 924.683 394H916.523C900.843 394 888.683 390.48 880.043 383.44C871.403 376.24 866.923 365.36 866.603 350.8C866.603 336.56 871.003 326.08 879.803 319.36C888.603 312.48 900.843 309.04 916.523 309.04H990.203C989.403 302 987.403 296.24 984.203 291.76C981.003 287.12 977.243 283.52 972.923 280.96C968.603 278.24 963.883 276.4 958.763 275.44C953.803 274.32 949.163 273.76 944.843 273.76H942.443C938.123 273.76 933.643 274.08 929.003 274.72C924.363 275.36 919.883 276.56 915.563 278.32C911.243 279.92 907.323 282.16 903.803 285.04C900.283 287.92 897.643 291.68 895.883 296.32H872.363C873.163 290.08 875.403 284.4 879.083 279.28C882.923 274.16 887.883 269.76 893.963 266.08C900.203 262.24 907.323 259.28 915.323 257.2C923.483 255.12 932.123 254.08 941.243 254.08H943.163C955.643 254.08 966.283 255.52 975.083 258.4C983.883 261.28 991.083 265.68 996.683 271.6C1002.28 277.52 1006.36 285.04 1008.92 294.16C1011.48 303.28 1012.84 314.08 1013 326.56V388H990.683V328.24L965.963 328C970.763 334.56 973.163 342.72 973.163 352.48ZM888.923 350.8C889.083 358.48 891.323 364.32 895.643 368.32C899.963 372.16 906.923 374.08 916.523 374.08H924.683C933.963 374.08 940.763 372.16 945.083 368.32C949.403 364.48 951.723 358.64 952.043 350.8C951.723 342.96 949.483 337.2 945.323 333.52C941.163 329.84 934.283 328 924.683 328H916.523C906.923 328 899.963 329.84 895.643 333.52C891.323 337.2 889.083 342.96 888.923 350.8ZM1123.88 208V235.6H1093.88V208H1123.88ZM1163.48 368.32V388H1037V368.32H1101.32V280.48H1055.48V260.56H1123.88V368.32H1163.48ZM1324.62 387.76L1302.54 388V318.88C1302.54 314.72 1302.3 310.08 1301.82 304.96C1301.5 299.84 1300.06 295.04 1297.5 290.56C1294.94 286.08 1291.02 282.32 1285.74 279.28C1280.46 276.08 1272.86 274.48 1262.94 274.48C1254.94 274.48 1247.58 275.36 1240.86 277.12C1234.14 278.72 1228.3 281.6 1223.34 285.76C1218.54 289.92 1214.7 295.68 1211.82 303.04C1209.1 310.4 1207.66 319.76 1207.5 331.12V387.76H1185.18V260.56L1207.5 260.8L1205.1 276.4C1211.82 268.72 1220.14 263.12 1230.05 259.6C1240.14 255.92 1251.42 254.08 1263.9 254.08C1273.02 254.08 1281.26 255.28 1288.62 257.68C1296.14 260.08 1302.54 263.68 1307.82 268.48C1313.26 273.12 1317.42 279.04 1320.3 286.24C1323.18 293.44 1324.62 301.84 1324.62 311.44V387.76ZM1500.28 351.76C1497.88 358.64 1494.36 364.72 1489.72 370C1485.08 375.28 1479.48 379.68 1472.92 383.2C1466.52 386.72 1459.32 389.36 1451.32 391.12C1443.32 392.88 1434.92 393.76 1426.12 393.76C1414.6 393.76 1404.12 392.32 1394.68 389.44C1385.24 386.72 1377.08 382.48 1370.2 376.72C1363.48 370.96 1358.2 363.68 1354.36 354.88C1350.68 346.08 1348.76 335.76 1348.6 323.92C1348.6 312.08 1350.52 301.76 1354.36 292.96C1358.36 284 1363.8 276.64 1370.68 270.88C1377.72 264.96 1386.04 260.56 1395.64 257.68C1405.24 254.64 1415.72 253.12 1427.08 253.12C1440.2 253.12 1451.64 254.96 1461.4 258.64C1471.32 262.32 1479.4 267.6 1485.64 274.48C1492.04 281.2 1496.6 289.36 1499.32 298.96C1502.04 308.56 1502.76 319.2 1501.48 330.88H1371.88C1373.64 345.44 1379.16 356.24 1388.44 363.28C1397.88 370.32 1410.44 373.84 1426.12 373.84C1437.64 373.84 1447.8 372.08 1456.6 368.56C1465.4 364.88 1471.88 359.2 1476.04 351.52L1500.28 351.76ZM1427.56 273.04C1412.84 273.04 1400.52 276.24 1390.6 282.64C1380.84 288.88 1374.84 298.56 1372.6 311.68H1479.16C1479 305.6 1477.48 300.16 1474.6 295.36C1471.88 290.56 1468.2 286.56 1463.56 283.36C1458.92 280 1453.48 277.44 1447.24 275.68C1441 273.92 1434.44 273.04 1427.56 273.04Z" fill="#0F0F0F"/>
</svg>
