<svg width="80" height="80" viewBox="0 0 80 80" fill="none" xmlns="http://www.w3.org/2000/svg">
<path d="M80 40C80 29.3913 75.7857 19.2172 68.2843 11.7157C60.7828 4.21427 50.6087 8.00932e-07 40 0C29.3913 -8.00931e-07 19.2172 4.21427 11.7157 11.7157C4.21428 19.2172 1.60186e-06 29.3913 0 40L40 40H80Z" fill="#29ABE2"/>
<path d="M0 40C0 50.6087 4.21427 60.7828 11.7157 68.2843C19.2172 75.7857 29.3913 80 40 80C50.6087 80 60.7828 75.7857 68.2843 68.2843C75.7857 60.7828 80 50.6087 80 40L40 40L0 40Z" fill="#FECF0F"/>
</svg>
