<svg width="270" height="341" viewBox="0 0 270 341" fill="none" xmlns="http://www.w3.org/2000/svg">
<path d="M0 72.9277C23.7883 80.1454 25.1805 111.366 27.0611 143.954C28.6242 171.093 45.3664 183.664 64.4654 180.382C83.3813 177.136 90.4641 158.474 85.0665 144.148C79.6812 129.834 65.6133 125.183 53.0231 132.728C54.7205 142.005 49.7259 151.511 56.1371 159.625L58.4573 158.777C54.8182 150.494 61.327 142.525 69.0814 144.608C77.422 146.849 74.3324 169.81 60.1058 169.507C50.0923 169.301 44.4505 159.141 43.9376 142.998C43.1072 117.191 41.1289 98.5288 33.924 90.5966L35.2429 88.8648C45.6228 94.3144 50.593 103.651 52.5346 111.014C54.1099 116.997 52.8033 121.962 50.19 124.953L51.3134 127.46C56.1126 123.367 69.0692 119.104 84.2239 121.393L83.7476 118.608C66.3094 112.77 66.6269 75.0713 0.915875 70.6995L0 72.9277Z" fill="#29ABE2"/>
<path d="M93.8833 173.54L91.2334 171.844C97.7666 159.71 94.3962 139.316 99.4885 96.0342C106.974 32.4312 128.064 30.0092 129.468 0L133.303 0.0484409C134.084 8.21074 140.349 25.0319 150.46 35.1318L148.311 37.6144C131.056 26.3277 113.312 62.8158 109.551 97.1483C107.023 120.23 109.221 147.067 109.221 147.067C133.29 137.56 157.213 139.922 162.733 129.349L165.737 129.374C167.141 143.518 168.46 149.949 171.72 157.36L170.096 158.838C162.757 153.158 145.246 150.409 128.161 153.933C108.879 157.893 99.9647 165.656 93.8833 173.54Z" fill="#29ABE2"/>
<path d="M135.965 133.37C122.837 134.145 117.977 124.106 117.22 107.466C115.803 76.5366 128.259 50.8024 145.624 48.8042C158.593 47.3025 166.274 66.2671 165.151 88.7801C163.722 117.215 150.826 132.486 135.965 133.37ZM142.132 77.9899C134.853 77.9656 128.247 91.4564 129.199 108.423C129.554 114.805 131.581 121.877 136.746 121.877C146.113 121.938 149.837 105.492 149.092 92.6311C148.616 84.5657 146.027 77.9899 142.132 77.9899Z" fill="#29ABE2"/>
<path d="M229.933 217.73C212.239 210.803 189.366 189.767 184.897 168.562C202.494 175.078 226.893 174.957 234.122 164.505L236.87 165.135C235.197 169.894 232.132 182.271 231.79 184.366L228.676 183.688C226.294 176.591 214.864 185.48 202.885 180.903C211.323 189.622 225.513 192.855 228.041 187.575L231.094 188.241C229.799 195.059 230.019 198.995 230.019 198.995C230.019 198.995 218.955 198.62 208.881 192.238C213.35 202.871 226.136 206.722 226.929 201.805L229.726 201.962C229.03 206.831 229.14 213.382 229.933 217.73Z" fill="#FBB03B"/>
<path d="M269.084 70.6995C205.388 70.6995 168.46 111.898 183.151 161.672C188.792 164.336 195.802 165.365 195.802 165.365L196.828 163.064C188.719 159.395 186.716 135.804 191.308 122.156C201.126 128.938 185.092 167.993 212.862 167.981L213.692 165.68C198.635 162.204 218.735 124.275 192.688 118.777C193.323 117.481 194.104 116.355 194.825 115.314C203.984 119.928 223.144 120.908 236.76 107.757C247.799 97.0998 251.414 75.4709 269.988 72.9399L269.084 70.6995ZM197.365 111.935C206.963 99.8488 218.662 93.5394 222.802 98.3108C226.954 103.07 215.426 117.106 197.365 111.935Z" fill="#29ABE2"/>
<path d="M246.236 102.477L249.228 103.385C242.829 127.884 237.773 163.343 220.848 163.67C210.651 163.864 211.225 154.478 216.953 154.309C220.225 154.212 221.849 156.549 221.788 158.111C225.33 157.445 228.273 151.996 228.664 147.018C224.805 151.257 217.722 150.712 215.487 145.347C213.265 139.982 218.284 126.346 210.029 129.422L209.076 127.388C214.193 122.483 221.092 122.761 225 126.455C230.581 131.747 221.202 140.212 223.681 142.828C226.172 145.444 230.483 140.043 230.984 131.214C231.436 123.076 228.346 122.059 225.354 123.173L223.95 121.151C231.607 118.426 240.997 112.504 246.236 102.477Z" fill="#29ABE2"/>
<path d="M32.6418 178.771L31.0665 180.43C38.943 189.065 36.3053 197.312 33.863 219.922C31.6771 240.255 40.0421 249.204 52.4247 249.447C64.7341 249.677 74.0516 237.966 71.4016 221.557C67.2497 195.835 74.0516 186.728 80.8413 185.844L81.1954 182.659C64.3311 181.908 53.4993 197.7 58.787 228.314C59.9349 234.963 59.5075 241.43 55.3921 241.878C46.7096 242.822 45.9769 226.037 49.0909 210.972C51.5943 198.898 57.114 189.392 61.559 187.357L60.8019 185.42C52.095 187.733 40.7504 184.657 32.6418 178.771Z" fill="#FBB03B"/>
<path d="M127.502 194.551C114.961 194.551 99.635 201.066 96.8019 223.216C95.7761 231.269 90.232 234.164 86.0679 233.825C89.2673 225.444 91.8806 215.635 93.6269 204.094C94.9457 195.375 98.536 194.357 101.235 195.435L102.712 193.776C95.886 186.716 85.787 183.555 85.787 183.555L84.578 186.34C90.9037 190.155 82.5509 228.593 71.8046 243.9C62.768 256.773 43.5957 258.832 34.4247 252.087L32.2022 254.012C37.3189 261.327 38.54 272.856 29.6133 280.8L30.6025 282.798C43.4613 280.195 66.4193 273.28 81.4396 244.251C85.8725 247.533 84.3582 253.819 78.7409 261.726C68.3365 276.38 78.0204 293.807 99.2198 285.632L98.194 282.823C94.0543 285.523 82.1968 282.047 90.9647 262.162C96.6187 249.326 90.5007 242.677 83.0149 241.079C83.5645 239.916 84.1018 238.717 84.6269 237.482C91.5631 240.219 106.034 237.978 108.281 223.143C111.334 203.052 119.638 198.342 127.514 197.264V194.551H127.502Z" fill="#FBB03B"/>
<path d="M126.012 190.349L125.463 187.575C121.005 187.709 120.065 180.915 124.486 169.071C138.896 164.941 165.554 163.888 178.242 180.334L180.403 179.922C177.863 174.678 175.213 168.369 173.626 163.985C157.982 156.682 139.677 155.944 121.701 161.442C97.6323 168.792 95.9837 181.545 100.832 185.529C105.472 189.331 111.798 183.216 105.277 178.565C107.829 173.915 113.801 171.99 113.801 171.99C111.59 180.212 113.972 188.762 108.391 192.044L108.464 195.023C112.897 192.189 121.005 190.518 126.012 190.349Z" fill="#29ABE2"/>
<path d="M147.969 189.949C136.966 190.555 128.845 187.467 128.687 181C128.503 173.491 138.358 170.9 147.212 170.706C158.422 170.464 166.97 173.855 166.677 180.358C166.372 186.873 159.313 189.319 147.969 189.949ZM153.843 180.067C153.464 176.216 138.847 176.955 139.103 181.218C139.323 184.766 154.282 184.524 153.843 180.067Z" fill="#29ABE2"/>
<path d="M182.442 185.25C192.102 204.651 207.611 221.375 214.852 240.812L217.136 240.509C216.049 232.214 212.117 218.13 205.327 209.592L207.098 208.26C207.098 208.26 217.185 218.82 230.495 223.458L230.678 225.614C227.906 226.025 225.159 225.044 228.786 250.791C231.79 272.081 232.095 275.12 237.993 280.667L236.687 282.774C227.308 277.797 213.9 277.99 212.471 277.797L212.324 275.072C215.573 275.375 218.882 267.115 211.934 249.761C204.24 230.567 200.296 226.025 198.22 223.615L195.851 224.173C195.851 224.173 201.053 233.873 203.544 259.401C204.326 267.406 206.402 273.667 208.624 274.454L208.636 277.179C208.636 277.179 194.764 272.238 182.967 272.274L182.858 269.477C185.227 269.126 188.817 266.086 188.341 258.457C187.864 250.827 186.924 227.152 177.106 203.767C173.821 195.944 167.3 191.729 167.3 191.729L166.36 189.392C172.05 189.513 178.168 187.842 182.442 185.25Z" fill="#FBB03B"/>
<path d="M165.285 290.5C165.285 290.5 163.075 296.943 151.4 294.206C138.688 291.215 125.927 270.591 110.064 278.208C109.783 277.361 109.526 276.513 109.282 275.677C133.193 262.247 130.018 232.177 116.902 233.328C108.256 234.091 103.299 241.841 94.0909 241.284L93.3582 242.822C100.062 248.441 92.6622 268.835 110.455 299.413C126.427 326.867 129.199 332.632 129.969 340.988L132.863 340.806C132.155 333.153 137.369 322.314 144.635 316.247C125.084 305.045 115.999 293.08 111.407 281.854C123.35 278.342 127.966 304.112 146.308 305.311C164.687 306.51 167.715 291.518 167.715 291.518L165.285 290.5ZM112.531 244.433C118.783 244.191 116.634 264.5 108.037 270.591C107.328 267.176 106.864 263.906 106.461 260.818C104.972 249.398 107.524 244.627 112.531 244.433Z" fill="#FBB03B"/>
<path d="M138.981 280.025L139.811 278.124C151.498 279.686 156.212 254.799 149.373 236.053L147.309 236.125C151.718 255.95 147.322 270.579 136.075 275.036C125.756 279.323 120.126 271.293 120.126 271.293L121.787 269.598C129.883 273.437 135.659 262.756 134.841 254.073C132.997 234.454 120.224 229.889 117.147 215.707C115.522 208.235 121.286 201.853 128.552 202.156C136.075 202.483 146.21 209.773 156.077 228.302C167.691 250.113 161.243 273.376 156.309 285.499C144.977 284.639 138.981 280.025 138.981 280.025ZM128.296 210.561C123.582 210.706 125.121 217.718 131.41 225.384C137.833 233.219 141.558 241.757 142.242 249.047L144.122 248.974C144.488 230.01 135.037 210.355 128.296 210.561Z" fill="#FBB03B"/>
<path d="M161.072 286.153L162.049 282.956C170.658 282.919 171.317 259.159 167.556 238.681C165.151 225.589 161.67 216.882 154.38 217.318L152.719 214.69C160.547 213.709 168.362 210.343 171.855 205.656C175.934 213.431 180.708 226.643 181.978 247.412C183.468 271.681 174.712 287.013 161.072 286.153Z" fill="#FBB03B"/>
<path d="M167.715 201.454C167.715 196.61 164.772 193.631 155.906 193.631C149.849 193.631 144.562 195.035 131.691 194.551V197.252C143.939 198.039 146.1 204.312 153.696 207.691C160.889 210.888 167.715 206.14 167.715 201.454Z" fill="#FBB03B"/>
</svg>
