<svg width="34" height="33" viewBox="0 0 34 33" fill="none" xmlns="http://www.w3.org/2000/svg">
<path d="M0.00463867 7.05781C2.91223 7.75632 3.08239 10.7777 3.31225 13.9316C3.5033 16.558 5.54967 17.7746 7.8841 17.457C10.1961 17.1429 11.0619 15.3368 10.4021 13.9503C9.74389 12.565 8.02441 12.115 6.48553 12.8451C6.693 13.7429 6.08253 14.6629 6.86614 15.4482L7.14974 15.3661C6.70494 14.5645 7.5005 13.7933 8.44831 13.9949C9.46775 14.2117 9.09013 16.4338 7.35124 16.4045C6.1273 16.3846 5.43772 15.4013 5.37503 13.839C5.27353 11.3415 5.03173 9.53542 4.1511 8.76776L4.3123 8.60016C5.58101 9.12756 6.1885 10.0312 6.42583 10.7438C6.61837 11.3227 6.45866 11.8032 6.13925 12.0927L6.27657 12.3353C6.86316 11.9392 8.44681 11.5266 10.2991 11.7482L10.2409 11.4786C8.10948 10.9137 8.14829 7.26525 0.116584 6.84216L0.00463867 7.05781Z" fill="#29ABE2"/>
<path d="M11.4798 16.7948L11.1559 16.6307C11.9544 15.4563 11.5425 13.4827 12.1649 9.29396C13.0799 3.13862 15.6576 2.90422 15.8292 0L16.2979 0.004688C16.3934 0.794616 17.1591 2.42252 18.395 3.39997L18.1323 3.64023C16.0233 2.54793 13.8545 6.07916 13.3948 9.40178C13.0858 11.6356 13.3545 14.2328 13.3545 14.2328C16.2964 13.3127 19.2204 13.5413 19.8951 12.5181L20.2623 12.5205C20.4339 13.8894 20.5951 14.5117 20.9936 15.229L20.7951 15.372C19.8981 14.8223 17.7577 14.5562 15.6695 14.8973C13.3127 15.2805 12.2231 16.0318 11.4798 16.7948Z" fill="#29ABE2"/>
<path d="M16.6233 12.9072C15.0187 12.9823 14.4247 12.0107 14.3321 10.4003C14.159 7.40705 15.6814 4.91655 17.8039 4.72317C19.3891 4.57784 20.3279 6.41319 20.1906 8.59194C20.016 11.3438 18.4398 12.8217 16.6233 12.9072ZM17.377 7.54769C16.4875 7.54534 15.68 8.85095 15.7964 10.4929C15.8397 11.1106 16.0874 11.795 16.7188 11.795C17.8636 11.8009 18.3189 10.2093 18.2278 8.96464C18.1696 8.18408 17.8532 7.54769 17.377 7.54769Z" fill="#29ABE2"/>
<path d="M28.1089 21.0713C25.9461 20.401 23.1504 18.3652 22.6041 16.313C24.755 16.9436 27.7372 16.9318 28.6208 15.9204L28.9567 15.9814C28.7522 16.4419 28.3775 17.6397 28.3357 17.8425L27.9551 17.7769C27.6641 17.0901 26.267 17.9503 24.8027 17.5073C25.8341 18.3511 27.5685 18.6641 27.8775 18.1531L28.2507 18.2175C28.0924 18.8774 28.1193 19.2583 28.1193 19.2583C28.1193 19.2583 26.767 19.2219 25.5356 18.6043C26.0819 19.6333 27.6447 20.006 27.7417 19.5302L28.0835 19.5454C27.9984 20.0165 28.0118 20.6506 28.1089 21.0713Z" fill="#FECF0F"/>
<path d="M32.8941 6.84216C25.1087 6.84216 20.5951 10.8293 22.3907 15.6462C23.0803 15.9041 23.937 16.0037 23.937 16.0037L24.0624 15.781C23.0713 15.4259 22.8265 13.1428 23.3877 11.822C24.5878 12.4783 22.628 16.258 26.0222 16.2568L26.1237 16.0342C24.2833 15.6978 26.7401 12.0271 23.5564 11.495C23.634 11.3696 23.7295 11.2606 23.8176 11.1598C24.9371 11.6063 27.279 11.7013 28.9432 10.4285C30.2925 9.39712 30.7343 7.30393 33.0046 7.05898L32.8941 6.84216ZM24.1281 10.8328C25.3013 9.66317 26.7312 9.05255 27.2372 9.51432C27.7446 9.97492 26.3356 11.3333 24.1281 10.8328Z" fill="#29ABE2"/>
<path d="M30.1016 9.91748L30.4673 10.0054C29.6851 12.3763 29.0672 15.808 26.9984 15.8396C25.7521 15.8583 25.8223 14.95 26.5223 14.9336C26.9223 14.9243 27.1208 15.1505 27.1134 15.3016C27.5462 15.2372 27.9059 14.7098 27.9537 14.2281C27.482 14.6383 26.6163 14.5856 26.3432 14.0664C26.0715 13.5472 26.685 12.2275 25.676 12.5252L25.5596 12.3283C26.185 11.8536 27.0283 11.8806 27.5059 12.238C28.188 12.7502 27.0417 13.5694 27.3447 13.8226C27.6492 14.0757 28.1761 13.553 28.2373 12.6986C28.2925 11.9111 27.9149 11.8126 27.5492 11.9204L27.3776 11.7247C28.3134 11.461 29.4612 10.8879 30.1016 9.91748Z" fill="#29ABE2"/>
<path d="M3.9943 17.301L3.80176 17.4616C4.76449 18.2972 4.44209 19.0954 4.14356 21.2835C3.87639 23.2513 4.89882 24.1174 6.41232 24.1408C7.91687 24.1631 9.05573 23.0298 8.73183 21.4417C8.22435 18.9524 9.05573 18.071 9.88562 17.9855L9.9289 17.6772C7.86761 17.6046 6.54367 19.1329 7.18997 22.0957C7.33028 22.7391 7.27803 23.365 6.77503 23.4083C5.71378 23.4997 5.62423 21.8753 6.00484 20.4174C6.31083 19.2489 6.98548 18.3289 7.52879 18.132L7.43625 17.9445C6.37202 18.1683 4.98539 17.8706 3.9943 17.301Z" fill="#FECF0F"/>
<path d="M15.589 18.8282C14.0561 18.8282 12.1829 19.4587 11.8366 21.6023C11.7112 22.3817 11.0336 22.6618 10.5246 22.629C10.9156 21.818 11.2351 20.8687 11.4485 19.7518C11.6097 18.9079 12.0485 18.8095 12.3784 18.9138L12.559 18.7532C11.7246 18.0699 10.4903 17.764 10.4903 17.764L10.3425 18.0336C11.1157 18.4028 10.0947 22.1227 8.78122 23.6041C7.67669 24.8499 5.3333 25.0492 4.21235 24.3964L3.9407 24.5827C4.5661 25.2906 4.71536 26.4064 3.62427 27.1752L3.74517 27.3686C5.31688 27.1166 8.12298 26.4474 9.95888 23.6381C10.5007 23.9557 10.3156 24.564 9.62902 25.3293C8.35732 26.7474 9.54095 28.4339 12.1321 27.6428L12.0067 27.3709C11.5007 27.6323 10.0514 27.2959 11.1231 25.3715C11.8142 24.1292 11.0664 23.4857 10.1514 23.331C10.2186 23.2185 10.2843 23.1025 10.3485 22.983C11.1963 23.2478 12.965 23.031 13.2396 21.5953C13.6128 19.651 14.6278 19.1951 15.5905 19.0907V18.8282H15.589Z" fill="#FECF0F"/>
<path d="M15.4068 18.4215L15.3397 18.1531C14.7949 18.166 14.6799 17.5085 15.2202 16.3623C16.9815 15.9626 20.2399 15.8607 21.7907 17.4522L22.0549 17.4124C21.7444 16.9049 21.4205 16.2943 21.2265 15.87C19.3145 15.1633 17.077 15.0918 14.8799 15.6239C11.938 16.3353 11.7365 17.5694 12.3291 17.955C12.8963 18.323 13.6694 17.7312 12.8724 17.2811C13.1843 16.8311 13.9142 16.6447 13.9142 16.6447C13.6441 17.4405 13.9351 18.2679 13.253 18.5856L13.2619 18.8739C13.8038 18.5996 14.7949 18.4379 15.4068 18.4215Z" fill="#29ABE2"/>
<path d="M18.0905 18.3828C16.7457 18.4414 15.7531 18.1425 15.7337 17.5167C15.7113 16.79 16.9158 16.5392 17.998 16.5205C19.3682 16.497 20.413 16.8252 20.3772 17.4545C20.3399 18.0851 19.4772 18.3218 18.0905 18.3828ZM18.8085 17.4264C18.7622 17.0537 16.9756 17.1252 17.0069 17.5378C17.0338 17.8812 18.8622 17.8577 18.8085 17.4264Z" fill="#29ABE2"/>
<path d="M22.3041 17.9281C23.4848 19.8056 25.3804 21.4242 26.2655 23.3052L26.5446 23.2759C26.4118 22.4731 25.9312 21.1101 25.1013 20.2838L25.3177 20.1549C25.3177 20.1549 26.5506 21.1769 28.1775 21.6258L28.1999 21.8344C27.8611 21.8742 27.5253 21.7793 27.9686 24.271C28.3358 26.3313 28.3731 26.6255 29.094 27.1623L28.9343 27.3662C27.788 26.8845 26.1491 26.9033 25.9745 26.8845L25.9565 26.6208C26.3536 26.6501 26.7581 25.8508 25.9088 24.1713C24.9684 22.3137 24.4863 21.8742 24.2326 21.641L23.943 21.6949C23.943 21.6949 24.5789 22.6337 24.8834 25.1043C24.9789 25.8789 25.2326 26.4849 25.5043 26.5611L25.5058 26.8248C25.5058 26.8248 23.8102 26.3466 22.3683 26.3501L22.3549 26.0794C22.6445 26.0454 23.0833 25.7512 23.0251 25.0128C22.9669 24.2745 22.8519 21.9832 21.6519 19.7201C21.2504 18.963 20.4533 18.5551 20.4533 18.5551L20.3384 18.3289C21.0339 18.3406 21.7817 18.1789 22.3041 17.9281Z" fill="#FECF0F"/>
<path d="M20.2071 28.114C20.2071 28.114 19.9369 28.7375 18.51 28.4726C16.9562 28.1831 15.3964 26.1872 13.4575 26.9244C13.4232 26.8424 13.3919 26.7603 13.362 26.6795C16.2845 25.3797 15.8964 22.4696 14.2934 22.581C13.2366 22.6548 12.6306 23.4049 11.5052 23.351L11.4156 23.4998C12.2351 24.0436 11.3306 26.0173 13.5053 28.9766C15.4576 31.6335 15.7964 32.1914 15.8905 33.0001L16.2442 32.9825C16.1577 32.2418 16.795 31.1928 17.6831 30.6057C15.2934 29.5216 14.1829 28.3636 13.6217 27.2772C15.0815 26.9373 15.6457 29.4313 17.8876 29.5474C20.134 29.6634 20.5041 28.2124 20.5041 28.2124L20.2071 28.114ZM13.759 23.6557C14.5233 23.6323 14.2606 25.5977 13.2098 26.1872C13.1232 25.8567 13.0665 25.5403 13.0172 25.2414C12.8351 24.1362 13.1471 23.6745 13.759 23.6557Z" fill="#FECF0F"/>
<path d="M16.992 27.1002L17.0935 26.9162C18.5219 27.0674 19.098 24.6589 18.2622 22.8447L18.0099 22.8517C18.5487 24.7703 18.0114 26.186 16.6367 26.6173C15.3755 27.0322 14.6874 26.2552 14.6874 26.2552L14.8904 26.0911C15.88 26.4626 16.586 25.4289 16.486 24.5886C16.2606 22.69 14.6993 22.2481 14.3232 20.8757C14.1247 20.1526 14.8292 19.5349 15.7173 19.5642C16.6367 19.5959 17.8756 20.3014 19.0816 22.0946C20.5011 24.2054 19.713 26.4568 19.11 27.6299C17.7248 27.5467 16.992 27.1002 16.992 27.1002ZM15.6859 20.3776C15.1098 20.3917 15.2979 21.0703 16.0665 21.8121C16.8517 22.5704 17.3069 23.3967 17.3905 24.1022L17.6203 24.0952C17.6651 22.2598 16.5098 20.3577 15.6859 20.3776Z" fill="#FECF0F"/>
<path d="M19.6921 27.6931L19.8115 27.3837C20.8638 27.3802 20.9444 25.0807 20.4847 23.0989C20.1906 21.8319 19.7652 20.9893 18.8741 21.0315L18.6711 20.7771C19.6279 20.6822 20.5832 20.3564 21.0101 19.9028C21.5086 20.6553 22.0922 21.9339 22.2474 23.9439C22.4295 26.2926 21.3593 27.7763 19.6921 27.6931Z" fill="#FECF0F"/>
<path d="M20.504 19.4962C20.504 19.0274 20.1443 18.7391 19.0607 18.7391C18.3203 18.7391 17.674 18.8751 16.1008 18.8282V19.0896C17.5979 19.1657 17.8621 19.7728 18.7905 20.0998C19.6696 20.4092 20.504 19.9498 20.504 19.4962Z" fill="#FECF0F"/>
</svg>
